<svg width="38" height="18" viewBox="0 0 38 18" fill="none" xmlns="http://www.w3.org/2000/svg">
<path fill-rule="evenodd" clip-rule="evenodd" d="M6.74018 1.2168L13.4804 5.10823V12.8911L6.74018 16.7825L0 12.8911V5.10823L6.74018 1.2168Z" fill="black"/>
<path fill-rule="evenodd" clip-rule="evenodd" d="M2.05339 12.3997L2.04022 12.3922L6.7548 9.67773L8.36668 10.6058L5.26924 12.3892L6.80941 13.2759L9.91101 11.5093L11.5305 12.4418L6.81247 15.129L5.21618 14.2157L5.20943 14.2196L2.051 12.4011L2.05339 12.3997Z" fill="url(#paint0_linear_796_13173)"/>
<path fill-rule="evenodd" clip-rule="evenodd" d="M1.56693 11.5855C0.985196 11.9306 1.24859 12.4737 1.56865 12.8656L1.56913 13.2155L1.9279 13.4207L1.9244 13.4227L5.08283 15.2412L5.09068 15.2367L6.81141 16.2212L12 13.2659L12.0038 11.6196L9.91355 10.4161L8.83999 11.0276V9.78358L6.7548 8.58301L1.56691 11.57L1.56693 11.5855ZM5.43507 14.3408L6.81247 15.1289L11.5305 12.4417L9.91101 11.5092L6.80941 13.2758L5.26923 12.389L8.36667 10.6057L6.7548 9.67762L2.04022 12.3921L2.05339 12.3996L2.051 12.401L4.41163 13.7601C4.2223 14.3386 5.11369 15.0811 5.20824 15.1576C5.19999 15.0814 5.14663 14.604 5.06369 14.1639L5.05729 14.1319L5.20943 14.2195L5.21618 14.2156L5.43117 14.3386L5.21152 15.1603L5.21618 15.1642L5.43507 14.3408ZM2.05057 13.3459C2.04033 13.2524 1.83668 11.4293 1.57887 11.5782L1.56693 11.5855L1.56865 12.8656C1.78252 13.1281 2.02181 13.3229 2.05057 13.3459ZM2.42152 11.9635L2.51138 11.6273V11.6255L2.42152 11.9635Z" fill="black"/>
<path fill-rule="evenodd" clip-rule="evenodd" d="M8.72375 9.55826L10.621 10.6506V10.6611L12.1517 11.5424V5.66681L10.621 4.78549V8.78573L8.72375 7.69339V3.72648L7.30084 2.90723V8.74979L8.72375 9.56904V9.55826Z" fill="url(#paint1_linear_796_13173)"/>
<path fill-rule="evenodd" clip-rule="evenodd" d="M8.72369 10.6527L10.6209 11.745V11.7555L10.1476 11.483L11.6783 12.3643L13.1002 11.5422V5.1182L11.0942 3.96323L9.6723 4.7853V7.14477V3.17787L7.77409 2.08496L6.35217 2.90704V9.29803L8.72369 10.6635V10.6527ZM10.6209 10.6609L12.1516 11.5422V5.66663L10.6209 4.7853V8.78554L8.72369 7.6932V3.72629L7.30078 2.90704V8.7496L8.72369 9.56885V9.55807L10.6209 10.6504V11.599V10.6609ZM10.6113 11.5978C10.5619 11.5364 10.3271 11.2467 10.1047 10.9988C9.88233 10.751 9.6723 10.5449 9.6723 10.6507C9.6723 11.4618 10.5117 11.5861 10.6113 11.5978ZM8.71244 10.5037C8.60615 10.3717 7.77508 9.34794 7.77508 9.55838C7.77508 10.0595 8.09552 10.2985 8.364 10.4105L8.71244 10.5037Z" fill="black"/>
<path fill-rule="evenodd" clip-rule="evenodd" d="M2.79489 4.87709V4.8748L6.20125 2.91357V4.77845L2.79489 6.73968V8.83388L6.20125 6.87263V8.73751L1.32886 11.5428V5.72117L2.79489 4.87709Z" fill="url(#paint2_linear_796_13173)"/>
<path fill-rule="evenodd" clip-rule="evenodd" d="M2.57567 5.00266L2.32157 4.05207L5.72794 2.09082L7.14986 2.91292V5.32622L5.81027 6.0975L7.14986 6.87198V9.2853L1.80217 12.3643L0.380249 11.5422V5.17209L2.32157 4.05435L2.57513 5.00296L2.25151 5.1893C2.03949 4.95702 1.84628 4.77318 1.84628 4.87421C1.84628 5.07053 1.89543 5.22664 1.97156 5.35048L1.32886 5.72052V11.5422L6.20125 8.73686V6.87198L2.79489 8.83323V6.73902L6.20125 4.7778V2.91292L2.79489 4.87414V4.87643L2.57567 5.00266Z" fill="black"/>
<path d="M18.067 13.8865C17.4073 13.8865 16.8884 13.7567 16.5103 13.4973C16.1397 13.2378 15.8802 12.8857 15.732 12.441C15.5837 11.9888 15.5096 11.4699 15.5096 10.8843V7.67077C15.5096 7.0555 15.5837 6.52177 15.732 6.06959C15.8802 5.6174 16.1397 5.269 16.5103 5.02437C16.8884 4.77975 17.4073 4.65743 18.067 4.65743C18.6897 4.65743 19.1752 4.76492 19.5236 4.97989C19.8795 5.18746 20.1315 5.48768 20.2798 5.88056C20.428 6.27344 20.5021 6.72934 20.5021 7.24824V8.00435H18.9232V7.226C18.9232 6.97396 18.9084 6.74416 18.8787 6.5366C18.8565 6.32904 18.7861 6.16596 18.6675 6.04735C18.5563 5.92133 18.3598 5.85832 18.0781 5.85832C17.7964 5.85832 17.5889 5.92504 17.4555 6.05847C17.3294 6.18449 17.2479 6.35869 17.2108 6.58108C17.1738 6.79605 17.1552 7.04068 17.1552 7.31495V11.229C17.1552 11.5551 17.1812 11.8257 17.2331 12.0407C17.285 12.2482 17.3776 12.4076 17.511 12.5188C17.6519 12.6226 17.8409 12.6745 18.0781 12.6745C18.3524 12.6745 18.5451 12.6115 18.6563 12.4854C18.7749 12.352 18.8491 12.1778 18.8787 11.9628C18.9084 11.7479 18.9232 11.5069 18.9232 11.2401V10.4284H20.5021V11.1511C20.5021 11.6848 20.4317 12.1593 20.2909 12.5744C20.15 12.9821 19.9017 13.3046 19.5459 13.5418C19.1975 13.7716 18.7045 13.8865 18.067 13.8865Z" fill="white"/>
<path d="M24.0121 13.8865C23.3449 13.8865 22.826 13.7642 22.4554 13.5195C22.0847 13.2749 21.829 12.9265 21.6881 12.4743C21.5473 12.0221 21.4769 11.481 21.4769 10.8509V4.75751H23.078V11.0399C23.078 11.3216 23.0966 11.5885 23.1336 11.8405C23.1707 12.0851 23.2559 12.2853 23.3894 12.441C23.5302 12.5892 23.7378 12.6633 24.0121 12.6633C24.3012 12.6633 24.5087 12.5892 24.6347 12.441C24.7682 12.2853 24.8534 12.0851 24.8905 11.8405C24.935 11.5885 24.9572 11.3216 24.9572 11.0399V4.75751H26.5473V10.8509C26.5473 11.481 26.4768 12.0221 26.336 12.4743C26.1952 12.9265 25.9394 13.2749 25.5688 13.5195C25.2055 13.7642 24.6866 13.8865 24.0121 13.8865Z" fill="#2CE08F"/>
<path d="M27.7263 13.7642V4.75751H29.939C30.3393 4.75751 30.6988 4.79457 31.0176 4.8687C31.3437 4.94283 31.6217 5.06885 31.8515 5.24676C32.0887 5.41725 32.2703 5.65076 32.3964 5.94728C32.5224 6.24379 32.5854 6.61814 32.5854 7.07033C32.5854 7.43356 32.5335 7.7449 32.4297 8.00435C32.3334 8.2638 32.1888 8.47136 31.9961 8.62703C31.8033 8.77529 31.5624 8.87536 31.2733 8.92725C31.6291 8.98656 31.9219 9.11258 32.1517 9.30531C32.389 9.49063 32.5632 9.73526 32.6744 10.0392C32.793 10.3431 32.8523 10.7101 32.8523 11.14C32.8523 11.5699 32.7967 11.9517 32.6855 12.2853C32.5817 12.6115 32.4223 12.8857 32.2073 13.1081C31.9998 13.3231 31.7366 13.4862 31.4179 13.5974C31.1065 13.7086 30.7396 13.7642 30.3171 13.7642H27.7263ZM29.3719 12.6078H29.9946C30.4913 12.6078 30.8285 12.4891 31.0065 12.2519C31.1844 12.0073 31.2733 11.633 31.2733 11.1289C31.2733 10.7656 31.2288 10.4728 31.1399 10.2505C31.0583 10.0207 30.9175 9.85016 30.7174 9.73897C30.5246 9.62777 30.2652 9.57218 29.939 9.57218H29.3719V12.6078ZM29.3719 8.438H29.9279C30.254 8.438 30.5061 8.38982 30.684 8.29345C30.8619 8.19709 30.9842 8.04883 31.0509 7.84868C31.1251 7.64853 31.1621 7.39649 31.1621 7.09257C31.1621 6.77381 31.1065 6.52919 30.9953 6.35869C30.8916 6.18078 30.7322 6.06218 30.5172 6.00287C30.3022 5.93616 30.028 5.9028 29.6944 5.9028H29.3719V8.438ZM33.9157 13.7642V4.75751H37.6963V5.91392H35.5614V8.50472H37.2404V9.65001H35.5614V12.63H37.7185V13.7642H33.9157Z" fill="white"/>
<defs>
<linearGradient id="paint0_linear_796_13173" x1="6.80482" y1="4.76129" x2="6.80482" y2="14.4414" gradientUnits="userSpaceOnUse">
<stop stop-color="#00CBDF"/>
<stop offset="1" stop-color="#47ED5E"/>
</linearGradient>
<linearGradient id="paint1_linear_796_13173" x1="6.80498" y1="4.76132" x2="6.80498" y2="14.4414" gradientUnits="userSpaceOnUse">
<stop stop-color="#00CBDF"/>
<stop offset="1" stop-color="#47ED5E"/>
</linearGradient>
<linearGradient id="paint2_linear_796_13173" x1="6.80491" y1="4.76179" x2="6.80491" y2="14.4419" gradientUnits="userSpaceOnUse">
<stop stop-color="#00CBDF"/>
<stop offset="1" stop-color="#47ED5E"/>
</linearGradient>
</defs>
</svg>
