<svg width="107" height="47" viewBox="0 0 107 47" fill="none" xmlns="http://www.w3.org/2000/svg">
<path fill-rule="evenodd" clip-rule="evenodd" d="M18.9789 1.2749L37.9579 12.2324V34.1473L18.9789 45.1048L0 34.1473V12.2324L18.9789 1.2749Z" fill="black"/>
<path fill-rule="evenodd" clip-rule="evenodd" d="M5.78196 32.7635L5.74487 32.7422L19.0201 25.0989L23.5588 27.712L14.8371 32.7337L19.1739 35.2306L27.9074 30.2563L32.4676 32.8819L19.1825 40.4485L14.6877 37.8768L14.6687 37.8878L5.77523 32.7674L5.78196 32.7635Z" fill="url(#paint0_linear_796_13155)"/>
<path fill-rule="evenodd" clip-rule="evenodd" d="M4.41214 30.471C2.7741 31.4428 3.51575 32.9719 4.41699 34.0754L4.41833 35.0606L5.42854 35.6386L5.41871 35.6442L14.3122 40.7647L14.3343 40.752L19.1795 43.5241L33.7894 35.2028L33.8002 30.567L27.9145 27.1782L24.8915 28.9V25.3972L19.0201 22.0166L4.41208 30.4274L4.41214 30.471ZM15.304 38.2294L19.1825 40.4485L32.4675 32.8818L27.9073 30.2562L19.1739 35.2306L14.8371 32.7336L23.5588 27.712L19.0201 25.0988L5.74482 32.7421L5.78191 32.7634L5.77518 32.7673L12.4222 36.5943C11.8891 38.2231 14.3991 40.3138 14.6653 40.5293C14.6421 40.3146 14.4918 38.9703 14.2583 37.7312L14.2402 37.6411L14.6687 37.8877L14.6877 37.8768L15.293 38.2231L14.6745 40.5369L14.6877 40.5478L15.304 38.2294ZM5.77396 35.4279C5.74513 35.1648 5.1717 30.0312 4.44577 30.4505L4.41214 30.471L4.41699 34.0754C5.0192 34.8146 5.69298 35.3631 5.77396 35.4279ZM6.81848 31.5353L7.0715 30.5888V30.5836L6.81848 31.5353Z" fill="black"/>
<path fill-rule="evenodd" clip-rule="evenodd" d="M24.5641 24.7623L29.9063 27.8382V27.8676L34.2164 30.3492V13.8048L29.9063 11.3232V22.5871L24.5641 19.5112V8.34127L20.5575 6.03442V22.4859L24.5641 24.7927V24.7623Z" fill="url(#paint1_linear_796_13155)"/>
<path fill-rule="evenodd" clip-rule="evenodd" d="M24.564 27.8446L29.9062 30.9204V30.9498L28.5735 30.1825L32.8836 32.6641L36.8874 30.3493V12.2607L31.239 9.00853L27.2351 11.3233V17.9671V6.79712L21.8902 3.71973L17.8864 6.03452V24.0302L24.564 27.875V27.8446ZM29.9062 27.8677L34.2164 30.3493V13.8049L29.9062 11.3233V22.5872L24.564 19.5113V8.34136L20.5574 6.03452V22.486L24.564 24.7928V24.7624L29.9062 27.8383V30.5093V27.8677ZM29.8793 30.5058C29.7401 30.3329 29.079 29.5173 28.4528 28.8193C27.8265 28.1214 27.2351 27.5412 27.2351 27.839C27.2351 30.1231 29.5988 30.4729 29.8793 30.5058ZM24.5324 27.425C24.2331 27.0534 21.893 24.1707 21.893 24.7633C21.893 26.1744 22.7952 26.8473 23.5512 27.1628L24.5324 27.425Z" fill="black"/>
<path fill-rule="evenodd" clip-rule="evenodd" d="M7.86991 11.5799V11.5734L17.4615 6.05103V11.3021L7.86991 16.8245V22.7214L17.4615 17.1989V22.45L3.74188 30.3492V13.9566L7.86991 11.5799Z" fill="url(#paint2_linear_796_13155)"/>
<path fill-rule="evenodd" clip-rule="evenodd" d="M7.25259 11.9352L6.5371 9.25854L16.1287 3.73608L20.1325 6.05094V12.8463L16.3605 15.0181L20.1325 17.1988V23.9942L5.07456 32.664L1.07074 30.3491V12.4123L6.5371 9.26498L7.25107 11.9361L6.33981 12.4607C5.74282 11.8067 5.19877 11.2891 5.19877 11.5735C5.19877 12.1263 5.33718 12.5659 5.55153 12.9146L3.74182 13.9566V30.3491L17.4614 22.4499V17.1988L7.86985 22.7213V16.8244L17.4614 11.302V6.05094L7.86985 11.5733V11.5798L7.25259 11.9352Z" fill="black"/>
<path d="M50.873 37.3444C49.0153 37.3444 47.5542 36.9791 46.4897 36.2486C45.446 35.518 44.7155 34.5265 44.298 33.2741C43.8805 32.0009 43.6718 30.5398 43.6718 28.8908V19.8423C43.6718 18.1098 43.8805 16.607 44.298 15.3337C44.7155 14.0604 45.446 13.0794 46.4897 12.3906C47.5542 11.7018 49.0153 11.3574 50.873 11.3574C52.6264 11.3574 53.9936 11.66 54.9746 12.2654C55.9765 12.8498 56.6862 13.6952 57.1037 14.8014C57.5211 15.9077 57.7299 17.1914 57.7299 18.6525V20.7816H53.2839V18.5899C53.2839 17.8802 53.2421 17.2332 53.1586 16.6487C53.096 16.0643 52.8977 15.6051 52.5638 15.2711C52.2507 14.9162 51.6975 14.7388 50.9043 14.7388C50.1112 14.7388 49.5267 14.9267 49.151 15.3024C48.7962 15.6572 48.5666 16.1478 48.4622 16.774C48.3578 17.3793 48.3056 18.0681 48.3056 18.8404V29.8614C48.3056 30.7798 48.3787 31.5417 48.5248 32.147C48.6709 32.7314 48.9318 33.1802 49.3075 33.4933C49.7041 33.7855 50.2364 33.9317 50.9043 33.9317C51.6766 33.9317 52.2193 33.7542 52.5324 33.3994C52.8664 33.0237 53.0751 32.5332 53.1586 31.9278C53.2421 31.3225 53.2839 30.6441 53.2839 29.8927V27.6071H57.7299V29.6422C57.7299 31.1451 57.5316 32.481 57.135 33.6499C56.7384 34.7979 56.0391 35.7059 55.0372 36.3738C54.0562 37.0209 52.6681 37.3444 50.873 37.3444Z" fill="black"/>
<path d="M67.613 37.3444C65.7344 37.3444 64.2733 37 63.2297 36.3112C62.186 35.6224 61.4659 34.6413 61.0693 33.3681C60.6727 32.0948 60.4744 30.5711 60.4744 28.7969V11.6392H64.983V29.3291C64.983 30.1223 65.0352 30.8737 65.1396 31.5834C65.2439 32.2722 65.484 32.8358 65.8597 33.2741C66.2563 33.6916 66.8407 33.9003 67.613 33.9003C68.4271 33.9003 69.0115 33.6916 69.3664 33.2741C69.7421 32.8358 69.9821 32.2722 70.0865 31.5834C70.2117 30.8737 70.2743 30.1223 70.2743 29.3291V11.6392H74.7516V28.7969C74.7516 30.5711 74.5533 32.0948 74.1567 33.3681C73.7602 34.6413 73.04 35.6224 71.9964 36.3112C70.9736 37 69.5125 37.3444 67.613 37.3444Z" fill="#2CE08F"/>
<path d="M78.0713 37V11.6392H84.3019C85.429 11.6392 86.4414 11.7435 87.3389 11.9523C88.2573 12.161 89.0401 12.5158 89.6872 13.0168C90.3551 13.4969 90.8665 14.1544 91.2213 14.9893C91.5762 15.8242 91.7536 16.8783 91.7536 18.1516C91.7536 19.1744 91.6075 20.051 91.3153 20.7816C91.0439 21.5121 90.6369 22.0966 90.0942 22.5349C89.5515 22.9524 88.8731 23.2342 88.0591 23.3803C89.061 23.5473 89.8855 23.9021 90.5325 24.4448C91.2005 24.9666 91.691 25.6555 92.0041 26.5113C92.338 27.3671 92.505 28.4003 92.505 29.6109C92.505 30.8216 92.3485 31.8965 92.0354 32.8358C91.7432 33.7542 91.2944 34.5265 90.6891 35.1527C90.1046 35.758 89.3636 36.2173 88.4661 36.5304C87.5894 36.8435 86.5562 37 85.3664 37H78.0713ZM82.7051 33.7438H84.4584C85.8569 33.7438 86.8067 33.4098 87.3076 32.7419C87.8086 32.0531 88.0591 30.999 88.0591 29.5796C88.0591 28.5568 87.9338 27.7323 87.6833 27.1061C87.4537 26.4591 87.0571 25.979 86.4936 25.6659C85.9509 25.3528 85.2203 25.1963 84.3019 25.1963H82.7051V33.7438ZM82.7051 22.0027H84.2706C85.189 22.0027 85.8987 21.867 86.3996 21.5956C86.9006 21.3243 87.245 20.9068 87.4329 20.3433C87.6416 19.7797 87.746 19.07 87.746 18.2142C87.746 17.3167 87.5894 16.6278 87.2763 16.1478C86.9841 15.6468 86.5353 15.3128 85.93 15.1458C85.3247 14.958 84.5524 14.8641 83.6131 14.8641H82.7051V22.0027ZM95.4995 37V11.6392H106.145V14.8954H100.133V22.1905H104.861V25.4154H100.133V33.8064H106.207V37H95.4995Z" fill="black"/>
<defs>
<linearGradient id="paint0_linear_796_13155" x1="19.161" y1="11.2552" x2="19.161" y2="38.5124" gradientUnits="userSpaceOnUse">
<stop stop-color="#00CBDF"/>
<stop offset="1" stop-color="#47ED5E"/>
</linearGradient>
<linearGradient id="paint1_linear_796_13155" x1="19.1612" y1="11.2552" x2="19.1612" y2="38.5123" gradientUnits="userSpaceOnUse">
<stop stop-color="#00CBDF"/>
<stop offset="1" stop-color="#47ED5E"/>
</linearGradient>
<linearGradient id="paint2_linear_796_13155" x1="19.1613" y1="11.2552" x2="19.1613" y2="38.5124" gradientUnits="userSpaceOnUse">
<stop stop-color="#00CBDF"/>
<stop offset="1" stop-color="#47ED5E"/>
</linearGradient>
</defs>
</svg>
