<svg width="106" height="38" viewBox="0 0 106 38" fill="none" xmlns="http://www.w3.org/2000/svg">
<g id="Case Study Logo ">
<g id="Group 138">
<rect id="Rectangle 232" x="0.752457" y="0.676591" width="104.613" height="36.5894" rx="3.94592" fill="white" stroke="#E8E7EE" stroke-width="0.717439"/>
<g id="logo&#229;&#164;&#135;&#228;&#187;&#189;-2">
<path id="&#229;&#189;&#162;&#231;&#138;&#182;" d="M39.3721 18.1224C39.3742 18.1634 39.3857 18.1666 39.4065 18.1321C39.7095 17.6369 40.1003 17.3343 40.5791 17.2243C40.9704 17.1345 41.3591 17.1708 41.7453 17.3332C42.1336 17.4971 42.438 17.7774 42.6584 18.1742C42.8529 18.5235 42.9803 18.8969 43.0406 19.2944C43.0988 19.6746 43.1192 20.0645 43.102 20.4642C43.0797 20.958 42.9581 21.4198 42.737 21.8496C42.462 22.3851 42.0888 22.7448 41.6171 22.9288C41.0787 23.1394 40.5106 23.0909 39.9126 22.7833C39.7159 22.6819 39.568 22.5209 39.469 22.3003C39.4512 22.26 39.4247 22.2322 39.4001 22.228C39.3584 22.2201 39.3419 22.264 39.3505 22.3596C39.38 22.6823 39.245 22.8843 38.9457 22.9655C38.5903 23.0618 38.3308 23.0011 38.1672 22.7833C38.0702 22.6539 38.0218 22.4311 38.0218 22.1148C38.0218 20.0534 38.0218 17.992 38.0218 15.9305C38.0218 15.6696 38.0685 15.4741 38.1618 15.344C38.3197 15.1255 38.5412 15.0468 38.8261 15.1079C39.0178 15.1489 39.1581 15.2387 39.2472 15.3775C39.3304 15.5047 39.3656 15.6531 39.3527 15.8227C39.3433 15.9399 39.3387 16.0028 39.3387 16.0114C39.325 16.7316 39.3362 17.4353 39.3721 18.1224ZM39.5228 19.1294C39.3118 19.6886 39.2662 20.2629 39.3861 20.8523C39.4564 21.1959 39.563 21.4528 39.7059 21.6232C39.9097 21.8661 40.1918 21.9765 40.5522 21.9542C41.1545 21.9168 41.5281 21.5908 41.6731 20.9763C41.8117 20.3927 41.8063 19.8112 41.657 19.2318C41.5364 18.7661 41.251 18.4764 40.8009 18.3629C40.4758 18.2802 40.1962 18.3212 39.9621 18.4858C39.7841 18.6108 39.6377 18.8254 39.5228 19.1294Z" fill="#222222"/>
<path id="&#230;&#164;&#173;&#229;&#156;&#134;&#229;&#189;&#162;" d="M44.8711 16.7318C45.2601 16.7318 45.5753 16.4161 45.5753 16.0266C45.5753 15.6372 45.2601 15.3215 44.8711 15.3215C44.4822 15.3215 44.1669 15.6372 44.1669 16.0266C44.1669 16.4161 44.4822 16.7318 44.8711 16.7318Z" fill="#222222"/>
<path id="&#230;&#164;&#173;&#229;&#156;&#134;&#229;&#189;&#162;_2" d="M70.3099 16.7337C70.6988 16.7337 71.0141 16.418 71.0141 16.0286C71.0141 15.6392 70.6988 15.3235 70.3099 15.3235C69.921 15.3235 69.6057 15.6392 69.6057 16.0286C69.6057 16.418 69.921 16.7337 70.3099 16.7337Z" fill="#222222"/>
<path id="&#229;&#189;&#162;&#231;&#138;&#182;_2" d="M32.0394 16.7652C32.3337 17.2065 32.5243 17.7233 32.6111 18.3155C32.7411 19.1989 32.7059 20.0075 32.5056 20.7414C32.2379 21.7232 31.7009 22.4043 30.8948 22.7845C30.2666 23.0806 29.5653 23.1661 28.7907 23.0411C27.4175 22.8197 26.5665 21.9342 26.2377 20.3845C26.0863 19.6686 26.0809 18.9517 26.2216 18.2336C26.3766 17.4401 26.6559 16.8219 27.0593 16.3792C27.5417 15.8495 28.1989 15.5425 29.0309 15.4584C29.692 15.3916 30.2914 15.4811 30.8291 15.7269C31.328 15.9555 31.7314 16.3016 32.0394 16.7652ZM30.6266 17.0681C30.3711 16.8266 30.0904 16.6854 29.7846 16.6444C29.0179 16.5416 28.4386 16.7379 28.0467 17.2331C27.7689 17.5831 27.5945 18.0751 27.5234 18.7091C27.4652 19.2259 27.4922 19.7596 27.6041 20.3101C27.724 20.901 27.9972 21.3369 28.4236 21.6179C28.8342 21.8882 29.295 21.9787 29.8061 21.8896C30.2534 21.8113 30.6098 21.5877 30.8754 21.219C31.0742 20.9416 31.2124 20.5682 31.2899 20.0988C31.4026 19.416 31.3714 18.7306 31.1963 18.0428C31.0993 17.6611 30.9095 17.3362 30.6266 17.0681Z" fill="#222222"/>
<g id="logo_black-(3)">
<path id="&#229;&#189;&#162;&#231;&#138;&#182;_3" d="M18.1337 16.7716C18.1705 17.6763 18.2983 19.2077 18.3598 19.9595C18.3643 20.0143 18.3572 20.0694 18.3389 20.1212C18.3207 20.173 18.2918 20.2202 18.254 20.2599C18.2163 20.2995 18.1707 20.3306 18.1201 20.3511C18.0696 20.3715 18.0153 20.3809 17.9609 20.3786C17.4095 20.3526 16.3834 20.3133 15.1559 20.3077C13.9592 20.3022 12.9693 20.3355 12.4327 20.3587C12.3785 20.3608 12.3244 20.3513 12.2741 20.3309C12.2238 20.3104 12.1783 20.2793 12.1407 20.2399C12.1031 20.2004 12.0743 20.1533 12.0561 20.1017C12.0378 20.0502 12.0306 19.9953 12.0349 19.9407C12.0958 19.1955 12.2154 17.6757 12.2544 16.7716C12.2806 16.0041 12.6021 15.2771 13.1506 14.7447C13.6992 14.2123 14.4316 13.9164 15.1927 13.9197C15.9542 13.9158 16.6873 14.2114 17.2364 14.7439C17.7855 15.2763 18.1073 16.0037 18.1337 16.7716ZM15.1888 15.3321C14.847 15.332 14.5127 15.4342 14.2285 15.6258C13.9441 15.8173 13.7225 16.0897 13.5916 16.4083C13.4607 16.727 13.4264 17.0777 13.493 17.416C13.5597 17.7543 13.7242 18.0651 13.9659 18.3091C14.2076 18.5531 14.5156 18.7192 14.8509 18.7866C15.1862 18.8539 15.5338 18.8194 15.8496 18.6874C16.1655 18.5554 16.4355 18.3319 16.6254 18.0451C16.8153 17.7583 16.9167 17.4211 16.9167 17.0761C16.9167 16.6138 16.7349 16.1705 16.411 15.8435C16.0873 15.5165 15.6481 15.3325 15.19 15.3321H15.1888Z" fill="url(#paint0_linear_2450_54)"/>
<path id="&#232;&#183;&#175;&#229;&#190;&#132;" d="M15.2197 16.0759C15.32 16.1921 15.3754 16.341 15.3755 16.4951C15.3738 16.5832 15.3548 16.6702 15.3197 16.7509C15.2845 16.8317 15.234 16.9047 15.1709 16.9657C15.1078 17.0268 15.0334 17.0746 14.952 17.1066C14.8705 17.1386 14.7836 17.1542 14.6962 17.1523C14.5954 17.1529 14.4956 17.131 14.404 17.0883C14.3125 17.0455 14.2315 16.9828 14.1667 16.9048C14.1547 16.9664 14.1484 17.029 14.1481 17.0919C14.1481 17.6533 14.6178 18.1084 15.1972 18.1084C15.7766 18.1084 16.2458 17.6533 16.2458 17.0919C16.2458 16.5305 15.7887 16.0848 15.2197 16.0759Z" fill="#222222"/>
<path id="&#232;&#183;&#175;&#229;&#190;&#132;_2" d="M16.7691 15.0218C16.7558 15.0226 16.7424 15.0207 16.7298 15.0162C16.7172 15.0118 16.7055 15.0049 16.6956 14.9959C16.6856 14.9868 16.6775 14.9759 16.6718 14.9638C16.6661 14.9516 16.6628 14.9383 16.6621 14.9248C16.6534 14.6978 16.694 14.2328 17.2767 13.7251C17.6784 13.3757 18.2375 13.2495 18.9409 13.3492C18.9544 13.351 18.9673 13.3556 18.9789 13.3627C18.9905 13.3697 19.0005 13.379 19.0085 13.3901C19.0164 13.4012 19.0221 13.4137 19.0251 13.4271C19.0281 13.4404 19.0284 13.4542 19.026 13.4676C19.0213 13.4928 19.0074 13.5151 18.987 13.5303C18.9667 13.5455 18.9414 13.5524 18.9162 13.5496C18.2759 13.4582 17.7733 13.5679 17.4199 13.8746C16.9129 14.3175 16.8679 14.7145 16.8712 14.9182C16.8718 14.9444 16.8623 14.9698 16.8447 14.989C16.8271 15.0082 16.8028 15.0198 16.7768 15.0212L16.7691 15.0218Z" fill="#222222"/>
<path id="&#232;&#183;&#175;&#229;&#190;&#132;_3" d="M18.7985 13.6547C18.9594 13.6547 19.0898 13.528 19.0898 13.3718C19.0898 13.2155 18.9594 13.0889 18.7985 13.0889C18.6375 13.0889 18.5071 13.2155 18.5071 13.3718C18.5071 13.528 18.6375 13.6547 18.7985 13.6547Z" fill="#222222"/>
<path id="&#232;&#183;&#175;&#229;&#190;&#132;_4" d="M13.7234 15.0406C13.7367 15.0415 13.7501 15.0397 13.7627 15.0354C13.7753 15.031 13.7869 15.0241 13.7969 15.0151C13.8069 15.0062 13.8149 14.9953 13.8207 14.9831C13.8264 14.9709 13.8297 14.9577 13.8304 14.9443C13.8397 14.7118 13.8013 14.1819 13.2158 13.6709C12.8147 13.3215 12.255 13.1953 11.5516 13.295C11.5382 13.2969 11.5253 13.3015 11.5137 13.3086C11.5022 13.3157 11.4921 13.325 11.4842 13.336C11.4763 13.3471 11.4706 13.3596 11.4676 13.3729C11.4646 13.3862 11.4642 13.4 11.4666 13.4134C11.4712 13.4385 11.4851 13.4609 11.5055 13.4761C11.5258 13.4913 11.5511 13.4982 11.5763 13.4954C12.2166 13.404 12.7198 13.5137 13.0726 13.8204C13.5813 14.2633 13.6251 14.7251 13.6186 14.9343C13.6178 14.9607 13.6272 14.9862 13.6448 15.0057C13.6625 15.0251 13.6869 15.0369 13.7129 15.0384L13.7234 15.0406Z" fill="#222222"/>
<path id="&#232;&#183;&#175;&#229;&#190;&#132;_5" d="M11.7365 13.6547C11.8974 13.6547 12.0279 13.528 12.0279 13.3718C12.0279 13.2155 11.8974 13.0889 11.7365 13.0889C11.5756 13.0889 11.4451 13.2155 11.4451 13.3718C11.4451 13.528 11.5756 13.6547 11.7365 13.6547Z" fill="#222222"/>
<path id="&#229;&#189;&#162;&#231;&#138;&#182;_4" d="M24.5624 23.9675C24.5624 23.0501 22.2853 21.5929 22.2853 21.5929L22.2589 21.5851C22.6343 20.0526 22.8274 19.3705 22.8521 18.374C22.907 16.0979 22.338 14.1712 20.908 12.482C19.5785 10.9113 17.4622 10 15.2015 10C12.7987 10 10.9469 10.924 9.57237 12.4549C8.19787 13.9857 7.50814 15.6461 7.54765 18.3485C7.55917 19.1048 7.72927 20.3743 8.09635 21.5126L8.07056 21.5203C8.07056 21.5203 5.83679 22.9499 5.83679 23.9404C5.83679 24.2332 7.04394 24.6047 9.53396 24.7227L8.14519 26.8221C8.09032 27.0009 8.12434 27.2468 8.27303 27.3519C8.41963 27.4493 8.58734 27.5095 8.76193 27.5275C9.02586 27.5352 9.10816 27.4582 9.20529 27.2816L10.5995 24.8323C12.0811 24.8915 13.0237 24.9231 14.7187 24.9264V27.7295C14.7285 27.8984 14.7993 28.2068 15.2487 28.2068C15.6569 28.2068 15.7272 27.9178 15.7272 27.7295V24.9281C17.4199 24.9247 18.3407 24.9474 19.8194 24.8888L21.2806 27.2545C21.3072 27.3309 21.3579 27.3963 21.4249 27.4408C21.4919 27.4853 21.5715 27.5064 21.6515 27.5009C21.7941 27.503 21.9344 27.4646 22.0565 27.3901C22.2211 27.3159 22.2211 27.043 22.1547 26.7955L20.7785 24.7769C23.1819 24.5754 24.5624 24.2028 24.5624 23.9675ZM10.1419 23.6984C9.91834 23.6949 9.70528 23.602 9.5496 23.44C9.39392 23.278 9.30836 23.0603 9.31173 22.8347C9.31173 22.3575 9.6832 22.0247 10.1419 22.0247C10.6006 22.0247 10.9721 22.3569 10.9721 22.8347C10.9753 23.0603 10.8898 23.2779 10.7341 23.4398C10.5784 23.6018 10.3655 23.6948 10.1419 23.6984ZM15.1999 23.746C15.0294 23.7513 14.8613 23.7052 14.717 23.6134C14.5727 23.5217 14.4589 23.3886 14.39 23.2312C14.3211 23.0738 14.3004 22.8992 14.3304 22.7298C14.3605 22.5605 14.44 22.404 14.5587 22.2805C14.6774 22.1569 14.83 22.072 14.9969 22.0365C15.1637 22.001 15.3373 22.0166 15.4953 22.0812C15.6534 22.1459 15.7887 22.2567 15.8839 22.3994C15.9792 22.5421 16.0301 22.7103 16.03 22.8823C16.0334 23.1079 15.9479 23.3256 15.7922 23.4876C15.6365 23.6496 15.4235 23.7425 15.1999 23.746ZM20.2573 23.7942C20.0868 23.7995 19.9187 23.7533 19.7744 23.6616C19.6301 23.5699 19.5162 23.4368 19.4473 23.2794C19.3785 23.122 19.3578 22.9474 19.3878 22.778C19.4179 22.6086 19.4974 22.4522 19.6161 22.3286C19.7348 22.2051 19.8874 22.1202 20.0542 22.0847C20.2211 22.0492 20.3947 22.0648 20.5527 22.1294C20.7107 22.194 20.8461 22.3048 20.9414 22.4475C21.0366 22.5903 21.0875 22.7584 21.0875 22.9305C21.0907 23.1561 21.0051 23.3737 20.8494 23.5356C20.6938 23.6976 20.4808 23.7906 20.2573 23.7942ZM21.5308 21.2696C19.9258 20.8571 17.5494 20.8776 15.1993 20.8776C12.8492 20.8776 10.6451 20.805 8.85905 21.2696C8.59183 20.186 8.38223 19.1048 8.35534 18.2671C8.23024 14.3738 10.8366 10.6821 15.1993 10.6821C19.5621 10.6821 22.2556 14.3766 22.0889 18.2671C22.0367 19.4918 21.6981 20.6129 21.5308 21.2696Z" fill="#222222"/>
</g>
<path id="&#232;&#183;&#175;&#229;&#190;&#132;_6" d="M65.4323 19.8043L65.4258 22.5396C65.4258 22.7035 65.3533 22.8221 65.2083 22.8954C64.9499 23.0262 64.6839 23.0402 64.4104 22.9374C64.2798 22.8886 64.1922 22.8156 64.1477 22.7186C64.1025 22.6222 64.0799 22.5022 64.0799 22.3585C64.0799 20.3193 64.0784 18.2798 64.0756 16.24C64.0749 15.9747 64.1692 15.7979 64.3588 15.7095C64.4485 15.6678 64.624 15.647 64.8853 15.647C65.9448 15.647 67.0044 15.647 68.0639 15.647C68.331 15.647 68.4946 15.7814 68.5549 16.0502C68.6274 16.3701 68.5585 16.5907 68.3482 16.7122C68.2405 16.7747 68.046 16.806 67.7646 16.806C67.0245 16.806 66.265 16.806 65.4861 16.806C65.4528 16.806 65.4258 16.833 65.4258 16.8664V18.4663C65.4258 18.4906 65.4355 18.514 65.4527 18.5311C65.4698 18.5483 65.4931 18.558 65.5174 18.558C66.2546 18.558 66.9689 18.5644 67.6601 18.5774C68.1009 18.5853 68.2983 18.8214 68.2524 19.2857C68.238 19.4338 68.182 19.5438 68.0844 19.6156C68.0205 19.6631 67.911 19.6918 67.756 19.7019C67.0008 19.7501 66.2445 19.7666 65.4872 19.7515C65.4727 19.7512 65.4588 19.7566 65.4484 19.7666C65.4381 19.7765 65.4323 19.7901 65.4323 19.8043Z" fill="#222222"/>
<path id="&#232;&#183;&#175;&#229;&#190;&#132;_7" d="M48.8262 18.5385C48.8098 18.5373 48.7936 18.543 48.7815 18.5542C48.7695 18.5655 48.7626 18.5813 48.7627 18.5978C48.7627 19.3438 48.7562 20.0763 48.7433 20.795C48.7383 21.066 48.7648 21.3327 48.823 21.595C48.851 21.7222 48.9292 21.797 49.0577 21.8193C49.426 21.8825 49.7609 21.8038 50.0624 21.5832C50.2117 21.4739 50.3452 21.4901 50.4629 21.6317C50.5864 21.7805 50.6101 21.977 50.534 22.2214C50.4765 22.4054 50.38 22.556 50.2443 22.6732C50.1388 22.7645 49.9841 22.8392 49.7802 22.8974C49.3072 23.0326 48.8535 23.0484 48.4192 22.9449C47.9878 22.8421 47.6999 22.606 47.5556 22.2365C47.486 22.0604 47.4497 21.7194 47.4469 21.2134C47.4418 20.3968 47.4408 19.5541 47.4436 18.6851C47.444 18.6426 47.4254 18.6021 47.3929 18.5748C47.3604 18.5475 47.3174 18.5361 47.2757 18.5439C47.0991 18.5769 46.9476 18.5661 46.8213 18.5115C46.6956 18.4576 46.6138 18.3484 46.5758 18.1838C46.5406 18.0321 46.5359 17.879 46.5618 17.7245C46.589 17.5591 46.6662 17.4477 46.7933 17.3902C46.9225 17.3327 47.074 17.3205 47.2477 17.3536C47.2958 17.3631 47.3457 17.3487 47.3844 17.3141C47.4231 17.2795 47.4467 17.2282 47.449 17.1735L47.4749 16.5223C47.482 16.3326 47.6055 16.2133 47.8453 16.1644C48.5603 16.0192 48.8661 16.3049 48.7627 17.0215C48.7275 17.2644 48.8061 17.3773 48.9985 17.36C49.1091 17.35 49.1679 17.345 49.1751 17.345C49.4127 17.345 49.6776 17.345 49.9698 17.345C50.155 17.345 50.2885 17.4283 50.3703 17.5951C50.432 17.7216 50.4532 17.874 50.4338 18.0522C50.4173 18.2125 50.3639 18.334 50.2734 18.4166C50.1686 18.5122 50.0329 18.5615 49.8664 18.5643C49.5139 18.5701 49.1672 18.5615 48.8262 18.5385Z" fill="#222222"/>
<path id="&#232;&#183;&#175;&#229;&#190;&#132;_8" d="M35.2201 18.3208C35.4254 17.927 35.6795 17.6129 35.9824 17.3785C36.1425 17.2549 36.346 17.183 36.593 17.1629C36.8765 17.1399 37.0495 17.2614 37.112 17.5273C37.1694 17.7703 37.141 17.9773 37.0269 18.1483C36.9551 18.2561 36.855 18.3115 36.7265 18.3144C35.9813 18.3323 35.4979 18.6741 35.2761 19.3397C35.2258 19.4892 35.1982 19.7138 35.1931 20.0135C35.1774 20.8279 35.1691 21.6419 35.1684 22.4555C35.1684 22.5993 35.1389 22.7057 35.0801 22.7747C35.0061 22.8624 34.9031 22.9235 34.7711 22.958C34.3942 23.0579 34.1078 22.9605 33.9118 22.6658C33.8929 22.6384 33.8827 22.6041 33.8827 22.5677C33.8748 20.9792 33.8727 19.3911 33.8763 17.8033C33.877 17.5949 33.9649 17.45 34.1401 17.3688C34.392 17.2517 34.6329 17.2438 34.8626 17.3451C34.999 17.4048 35.0923 17.4975 35.1425 17.6233C35.1942 17.7534 35.2028 17.8942 35.1684 18.0459C35.1454 18.1473 35.1476 18.2385 35.1748 18.3198C35.187 18.3557 35.2021 18.3561 35.2201 18.3208Z" fill="#222222"/>
<path id="&#229;&#189;&#162;&#231;&#138;&#182;_5" d="M51.8746 17.9825C52.3161 17.4592 52.8846 17.1839 53.5802 17.1566C54.2614 17.13 54.8066 17.3302 55.2158 17.7572C55.5051 18.0583 55.709 18.4562 55.8274 18.9507C55.9408 19.4272 55.9369 19.8894 55.8156 20.3372C55.7538 20.5643 55.5945 20.6682 55.3375 20.6488C55.1896 20.638 55.1128 20.6326 55.1071 20.6326C54.2643 20.6247 53.4216 20.6312 52.5788 20.652C52.5478 20.6531 52.5229 20.6771 52.5217 20.707C52.4894 21.3862 52.7888 21.793 53.4198 21.9275C53.9639 22.0432 54.438 21.908 54.8422 21.5221C54.9714 21.3984 55.088 21.3305 55.1921 21.3183C55.4283 21.291 55.607 21.3884 55.7284 21.6105C55.8389 21.8132 55.8066 22.0277 55.6314 22.2541C55.3034 22.6811 54.8723 22.9459 54.3382 23.0487C53.9556 23.122 53.5788 23.1274 53.2076 23.0649C52.8064 22.9973 52.4657 22.8554 52.1858 22.639C51.7615 22.3106 51.473 21.8398 51.3201 21.2267C51.1506 20.5489 51.1506 19.8481 51.3201 19.1243C51.4241 18.6779 51.609 18.2973 51.8746 17.9825ZM52.7446 18.7706C52.5788 19.0229 52.4984 19.2867 52.5034 19.562C52.5046 19.6175 52.5488 19.6617 52.6025 19.6612L54.4179 19.6504C54.5629 19.6497 54.6257 19.5753 54.6064 19.4272C54.5008 18.6229 54.1143 18.2603 53.4467 18.3394C53.1445 18.3746 52.9104 18.5183 52.7446 18.7706Z" fill="#222222"/>
<path id="&#232;&#183;&#175;&#229;&#190;&#132;_9" d="M58.4074 18.1421C58.5209 17.92 58.7358 17.6745 59.0524 17.4057C59.2075 17.2749 59.402 17.1951 59.636 17.1663C59.8298 17.1426 59.981 17.1872 60.0894 17.3C60.1776 17.3927 60.2272 17.5232 60.2379 17.6914C60.2487 17.8538 60.2171 17.9965 60.1432 18.1194C60.0678 18.2452 59.9569 18.3099 59.8105 18.3135C59.1544 18.3315 58.6953 18.6129 58.4333 19.1577C58.2947 19.4473 58.2312 19.8585 58.2427 20.3911C58.2578 21.0559 58.2653 21.7208 58.2653 22.3857C58.2653 22.7048 58.1339 22.8996 57.8712 22.97C57.5503 23.0556 57.2984 22.997 57.1153 22.7943C57.0256 22.6944 56.98 22.5474 56.9786 22.3533C56.9692 20.8612 56.9692 19.369 56.9786 17.8768C56.9793 17.6864 57.0238 17.5487 57.1121 17.4639C57.2226 17.3575 57.3716 17.2979 57.5589 17.2849C58.0973 17.2476 58.3306 17.5182 58.2588 18.0968C58.2222 18.3951 58.2718 18.4102 58.4074 18.1421Z" fill="#222222"/>
<path id="&#232;&#183;&#175;&#229;&#190;&#132;_10" d="M73.6674 18.1344C73.6968 18.1193 73.7223 18.0899 73.7439 18.046C73.9161 17.6988 74.1674 17.4541 74.4976 17.3118C74.7747 17.1925 75.1035 17.1558 75.4839 17.2018C76.1953 17.2874 76.6716 17.636 76.9128 18.2476C77.0255 18.5337 77.0819 19.0534 77.0819 19.8066C77.0819 20.6965 77.0819 21.6035 77.0819 22.5279C77.0819 22.6831 77.0158 22.8014 76.8837 22.8826C76.6698 23.0134 76.4293 23.0418 76.1623 22.9678C75.9634 22.9124 75.8436 22.8014 75.8026 22.6346C75.794 22.6008 75.7897 22.4524 75.7897 22.1893C75.7904 21.3563 75.793 20.5232 75.7973 19.6902C75.798 19.5091 75.784 19.3297 75.7553 19.1522C75.7208 18.9358 75.6587 18.7698 75.569 18.6541C75.3816 18.4133 75.0941 18.3073 74.7065 18.336C74.0044 18.3871 73.6513 18.7576 73.647 19.4476C73.6398 20.4812 73.6362 21.4979 73.6362 22.4977C73.6362 22.7076 73.5378 22.8495 73.3411 22.9236C72.9305 23.0774 72.6107 22.9918 72.3817 22.667C72.3615 22.639 72.3505 22.6042 72.3505 22.5678L72.3441 17.7452C72.3441 17.6137 72.3972 17.5087 72.5034 17.4304C72.6348 17.3326 72.7895 17.2805 72.9675 17.2741C73.1441 17.2683 73.2956 17.3075 73.4219 17.3916C73.6408 17.5368 73.7101 17.7714 73.6297 18.0956C73.6182 18.1416 73.6308 18.1545 73.6674 18.1344Z" fill="#222222"/>
<path id="&#229;&#189;&#162;&#231;&#138;&#182;_6" d="M81.8261 18.0082C81.7744 17.5848 81.9381 17.3473 82.3171 17.2955C82.5547 17.2639 82.7511 17.3067 82.9061 17.4238C83.0389 17.5245 83.1165 17.6646 83.1387 17.8443C83.1387 17.8457 83.1387 17.9988 83.1387 18.3036C83.1387 19.6549 83.1387 21.0065 83.1387 22.3585C83.1387 22.7876 82.9144 23.0015 82.4657 23C82.0121 22.9986 81.7874 22.7776 81.7917 22.337C81.7924 22.3204 81.7956 22.2996 81.8014 22.2744C81.8172 22.209 81.7935 22.2008 81.7303 22.2496C81.7145 22.2626 81.7023 22.2795 81.6937 22.3003C81.558 22.6209 81.3466 22.8268 81.0595 22.9181C80.2655 23.1697 79.5986 23.0795 79.0588 22.6475C78.6245 22.3003 78.3237 21.7763 78.1565 21.0755C77.9706 20.2935 78.0104 19.4957 78.276 18.682C78.5639 17.8001 79.1715 17.3063 80.099 17.2007C80.8219 17.118 81.3653 17.398 81.7292 18.0405C81.8154 18.1929 81.8477 18.1821 81.8261 18.0082ZM79.7458 18.7704C79.5764 18.9976 79.4719 19.2527 79.4325 19.5359C79.3815 19.9039 79.3783 20.2694 79.4228 20.6324C79.4694 21.0119 79.5671 21.3034 79.7157 21.5068C79.9253 21.7936 80.2228 21.9427 80.6083 21.9542C81.0713 21.9686 81.3969 21.8018 81.5849 21.454C81.7034 21.2355 81.7827 20.9156 81.8229 20.4944C81.871 19.9898 81.7981 19.5014 81.6043 19.0292C81.5196 18.8229 81.422 18.6713 81.3114 18.5742C81.1707 18.4492 80.9992 18.3722 80.7967 18.3435C80.3553 18.2802 80.0049 18.4226 79.7458 18.7704Z" fill="#222222"/>
<path id="&#232;&#183;&#175;&#229;&#190;&#132;_11" d="M85.6303 18.0966C85.7904 17.743 86.0305 17.4885 86.3507 17.3333C86.6199 17.2017 86.9454 17.1554 87.3273 17.1942C88.0739 17.2689 88.5692 17.6226 88.8133 18.2551C88.926 18.5483 88.9813 19.0982 88.9791 19.9046C88.9769 20.7672 88.9719 21.63 88.964 22.4933C88.9619 22.7571 88.8406 22.9145 88.6001 22.9655C88.44 22.9993 88.2799 22.9986 88.1198 22.9634C87.8262 22.8994 87.6802 22.7337 87.6816 22.4663C87.6859 21.6577 87.6963 20.8491 87.7128 20.0405C87.7221 19.579 87.6848 19.1949 87.6008 18.8879C87.5255 18.6148 87.365 18.4441 87.1195 18.3758C86.9472 18.3277 86.7337 18.3093 86.4788 18.3208C86.1134 18.3367 85.8457 18.5077 85.6756 18.834C85.5636 19.049 85.5105 19.3433 85.5162 19.717C85.5306 20.6083 85.5349 21.4999 85.5291 22.3919C85.5284 22.5767 85.4839 22.715 85.3956 22.807C85.219 22.9903 84.976 23.0406 84.6666 22.958C84.4434 22.8983 84.3073 22.7794 84.2585 22.6011C84.2478 22.5608 84.2424 22.3988 84.2424 22.1149C84.2424 20.8527 84.2424 19.5905 84.2424 18.3284C84.2424 17.9316 84.2438 17.7261 84.2467 17.7117C84.2984 17.4587 84.485 17.3164 84.8066 17.2847C85.3565 17.2294 85.5991 17.4741 85.5345 18.019C85.528 18.0714 85.5359 18.1077 85.5582 18.1279C85.5679 18.1365 85.582 18.1379 85.5962 18.1318C85.6104 18.1256 85.6231 18.1126 85.6303 18.0966Z" fill="#222222"/>
<path id="&#232;&#183;&#175;&#229;&#190;&#132;_12" d="M91.2866 17.5178C91.8178 17.1979 92.4333 17.1005 93.1332 17.2256C93.4864 17.2896 93.8091 17.425 94.1013 17.632C94.4544 17.8822 94.6048 18.1999 94.5524 18.5851C94.5287 18.7569 94.4121 18.8917 94.2025 18.9894C93.9606 19.1016 93.752 19.0318 93.5769 18.7803C93.4247 18.5632 93.2165 18.4234 92.9523 18.3609C92.7147 18.3048 92.4778 18.3174 92.2417 18.3986C91.8863 18.5201 91.6261 18.7702 91.461 19.149C91.1588 19.839 91.1505 20.5024 91.4363 21.1393C91.5561 21.4052 91.7442 21.6133 92.0005 21.7635C92.2503 21.9109 92.5091 21.9698 92.7768 21.9403C93.0913 21.9058 93.3849 21.7646 93.6576 21.5166C93.8393 21.3513 94.0578 21.3337 94.3134 21.4638C94.6824 21.6521 94.7577 21.9288 94.5395 22.294C94.444 22.4557 94.3173 22.5865 94.1594 22.6864C93.6325 23.0206 93.0539 23.1604 92.4237 23.1058C91.0676 22.9879 90.2608 22.2537 90.0031 20.9032C89.8624 20.1664 89.9205 19.4865 90.1775 18.8633C90.4237 18.2646 90.7934 17.8161 91.2866 17.5178Z" fill="#222222"/>
<path id="&#229;&#189;&#162;&#231;&#138;&#182;_7" d="M96.6274 20.694C96.593 21.154 96.7293 21.4936 97.0366 21.7129C97.3 21.9012 97.6195 21.982 97.9949 21.9554C98.3639 21.9296 98.6812 21.7786 98.9468 21.5026C99.1241 21.3186 99.3161 21.2755 99.5228 21.3732C99.7963 21.5033 99.9116 21.6873 99.8685 21.9253C99.8412 22.0762 99.7454 22.2354 99.581 22.4029C99.1 22.8931 98.4716 23.1231 97.6956 23.0929C96.463 23.0447 95.7025 22.4226 95.4139 21.2266C95.2366 20.492 95.2394 19.784 95.4225 19.1027C95.5883 18.4867 95.8665 18.0159 96.257 17.6903C96.7071 17.3151 97.2695 17.1451 97.9443 17.1803C98.8179 17.2263 99.4173 17.649 99.7425 18.4482C99.9995 19.08 100.064 19.6917 99.9363 20.2832C99.8825 20.5319 99.712 20.6541 99.4249 20.6498C98.5118 20.6361 97.599 20.6329 96.6866 20.6401C96.6551 20.64 96.6291 20.6637 96.6274 20.694ZM96.8341 18.7674C96.669 19.0096 96.5919 19.2877 96.6026 19.6018C96.6038 19.6331 96.6285 19.6579 96.6586 19.6579L98.6507 19.645C98.6812 19.645 98.7061 19.6205 98.7066 19.59C98.7095 19.4556 98.6887 19.2823 98.6442 19.0703C98.5473 18.6074 98.272 18.3569 97.8183 18.3188C97.3905 18.2836 97.0624 18.4331 96.8341 18.7674Z" fill="#222222"/>
<path id="&#231;&#159;&#169;&#229;&#189;&#162;" d="M44.9161 17.2729H44.8285C44.4887 17.2729 44.2133 17.5484 44.2133 17.8881V22.3849C44.2133 22.7247 44.4887 23.0001 44.8285 23.0001H44.9161C45.2559 23.0001 45.5313 22.7247 45.5313 22.3849V17.8881C45.5313 17.5484 45.2559 17.2729 44.9161 17.2729Z" fill="#222222"/>
<path id="&#231;&#159;&#169;&#229;&#189;&#162;_2" d="M70.3527 17.2739H70.2716C69.93 17.2739 69.6531 17.5508 69.6531 17.8924V22.3826C69.6531 22.7242 69.93 23.0011 70.2716 23.0011H70.3527C70.6942 23.0011 70.9711 22.7242 70.9711 22.3826V17.8924C70.9711 17.5508 70.6942 17.2739 70.3527 17.2739Z" fill="#222222"/>
</g>
</g>
</g>
<defs>
<linearGradient id="paint0_linear_2450_54" x1="77.6378" y1="151.508" x2="587.53" y2="683.479" gradientUnits="userSpaceOnUse">
<stop stop-color="#EF2F2D"/>
<stop offset="1" stop-color="#89272D"/>
</linearGradient>
</defs>
</svg>
