<svg width="1440" height="593" viewBox="0 0 1440 593" fill="none" xmlns="http://www.w3.org/2000/svg">
<path d="M-230.065 189.007C-88.8518 179.794 10.8105 150.491 76.1237 125.122C142.17 99.4669 189.737 71.3238 276.656 56.1931C372.523 39.3812 435.163 46.9129 459.938 51.1495C494.287 57.0337 492.153 61.0349 548.345 74.6862C656.287 100.913 676.793 89.2453 725.158 106.629C805.349 135.444 781.436 179.172 865.315 227.674C926.057 262.811 1026.62 290.769 1117.6 271.385C1203.27 253.128 1212.9 207.282 1303.04 200.775C1340.06 198.102 1370.85 204.037 1432.41 215.906C1511.31 231.037 1564.29 249.698 1585.51 256.255C1648.36 275.706 1749.81 287.945 1915.41 249.53M-231.014 203.835C-94.4152 195.883 7.70522 169.353 78.9481 143.06C136.822 121.406 180.961 97.6674 241.789 80.7042C255.093 77.0056 269.109 73.4247 284.203 70.3313C379.315 50.8631 441.717 54.0742 467.765 56.0412C502.696 58.6639 502.696 61.6564 557.767 74.921C596.58 84.2516 624.223 89.5809 645.635 93.0778C682.032 99.0124 700.253 99.4159 728.974 110.831C739.691 115.056 749.748 120.228 758.946 126.248C801.489 154.071 799.678 189.343 870.252 226.732C931.684 259.28 1031.58 283.893 1121 264.643C1128.09 263.115 1135.07 261.308 1141.92 259.23C1211.05 238.232 1226.57 201.296 1305.8 195.496C1314.14 194.875 1322.54 194.69 1330.92 194.941C1359.08 195.714 1388.19 201.195 1434.29 210.072C1510.66 224.866 1562.82 243.174 1586.22 250.42C1603.35 255.678 1621.02 259.806 1639.05 262.76C1701.4 273.116 1789.55 274.192 1913.56 247.764M-231.963 219.974C-99.9996 213.249 4.68682 189.712 81.7731 162.175C142.989 140.319 189.176 115.353 248.883 97.5328C262.511 93.4475 276.634 89.3118 291.793 85.7645C386.151 63.6232 448.23 60.9501 475.657 62.2278C510.998 63.909 513.349 63.5896 567.212 76.4507C604.925 85.4787 632.46 91.5814 653.462 95.8684C688.847 103.047 705.86 104.493 732.727 116.345C742.964 120.91 752.586 126.266 761.448 132.333C802.546 159.972 804.573 193.125 875.234 227.153C937.356 257.094 1036.59 278.362 1124.45 259.246C1131.89 257.565 1138.77 255.884 1145.22 253.867C1216.53 232.482 1232.31 197.261 1308.62 191.663C1316.9 191.027 1325.23 190.819 1333.55 191.041C1362.18 191.696 1391.25 197.026 1436.23 205.818C1510.1 220.209 1561.4 238.215 1586.99 245.982C1603.99 251.192 1621.5 255.33 1639.35 258.355C1701.15 268.947 1788.88 271.183 1911.66 247.377M-232.885 237.207C-105.558 231.776 1.62999 211.014 84.6245 182.467C149.097 160.275 197.397 134.166 255.939 115.472C269.912 111 284.165 106.326 299.345 102.308C392.948 77.5272 454.596 72.3323 483.511 69.5079C519.283 66.0278 523.963 66.6162 576.64 79.0739C613.296 87.7656 640.724 94.6585 661.424 99.7357C695.773 108.142 711.622 110.663 736.634 122.936C746.314 127.848 755.446 133.388 763.933 139.496C803.586 166.933 809.581 197.951 880.155 228.599C943.053 255.935 1041.53 273.873 1127.84 254.876C1135.22 253.195 1142.05 251.513 1148.46 249.546C1221.9 227.691 1238.01 194.252 1311.36 188.687C1319.59 188.036 1327.86 187.806 1336.12 187.998C1365.23 188.519 1394.34 193.731 1438.13 202.355C1509.46 216.326 1559.94 234.012 1587.71 242.435C1604.61 247.566 1621.97 251.708 1639.65 254.825C1700.89 265.652 1788.22 269.065 1909.75 247.865M-233.834 254.472C-111.121 250.302 -1.47527 232.347 87.4489 202.775C155.199 180.23 205.59 152.962 263.012 133.426C277.308 128.568 291.668 123.339 306.913 118.867C399.762 91.4973 460.848 82.1835 491.381 76.8373C527.455 70.516 534.506 69.6923 586.084 81.7464C621.77 90.1523 648.961 97.7849 669.316 103.602C702.63 113.218 717.292 116.85 740.472 129.526C749.577 134.774 758.222 140.492 766.347 146.64C804.578 173.842 814.54 202.742 885.05 230.111C948.724 254.825 1046.42 269.451 1131.21 250.588C1138.5 248.907 1145.29 247.226 1151.67 245.292C1227.27 222.983 1243.66 191.494 1314.08 185.862C1322.25 185.22 1330.46 184.967 1338.66 185.106C1368.2 185.509 1397.23 190.587 1440.01 199.043C1508.83 212.627 1558.47 230.01 1588.42 239.038C1605.2 244.12 1622.41 248.271 1639.93 251.462C1700.63 262.541 1787.55 267.098 1907.85 248.537M-234.737 265.602C-116.639 262.693 -4.51327 247.563 90.3191 216.965C161.325 194.051 213.83 165.571 270.13 145.262C284.727 140 299.239 134.284 314.527 129.308C406.578 99.3491 467.169 86.0005 499.232 78.0148C535.63 68.97 545.182 66.5995 595.509 78.267C623.302 84.7335 650.583 92.4692 677.21 101.434C709.554 112.244 722.987 117.018 744.27 130.014C753.563 135.713 760.938 141.782 768.916 147.683C805.723 174.582 819.674 201.481 890.054 225.489C954.57 247.563 1051.45 258.894 1134.68 240.166C1141.91 238.484 1148.65 236.803 1154.99 234.903C1232.77 212.191 1249.44 182.366 1316.93 176.902C1325.03 176.258 1333.17 175.988 1341.32 176.095C1371.33 176.415 1400.31 181.307 1441.93 189.545C1508.23 202.692 1557.05 219.806 1589.16 229.44C1605.83 234.467 1622.91 238.623 1640.28 241.88C1700.42 253.212 1786.91 258.944 1905.98 242.99M-235.731 273.536C-122.269 271.855 -7.66368 259.532 93.0984 227.943C167.36 204.658 221.935 174.935 277.157 153.97C292.078 148.288 306.697 142.067 322.05 136.62C413.411 104.123 473.527 86.7562 507.1 76.0975C543.757 64.4132 555.789 60.412 604.951 71.676C632.498 77.9884 659.304 86.1212 685.078 95.986C716.365 107.956 728.656 113.907 748.084 127.357C756.709 133.292 763.501 139.613 771.415 145.581C806.82 172.312 824.782 196.891 894.99 217.721C960.389 237.122 1056.43 245.192 1138.11 226.581C1145.25 224.9 1151.93 223.218 1158.27 221.352C1238.22 198.286 1255.24 170.177 1319.71 164.915C1327.75 164.253 1335.84 163.961 1343.92 164.041C1374.37 164.242 1403.35 168.983 1443.82 177.12C1507.61 189.88 1555.58 206.675 1589.89 216.948C1606.44 221.911 1623.37 226.071 1640.58 229.405C1700.18 240.989 1786.26 247.898 1904.1 234.533M-236.662 281.589C-127.836 281.203 -10.7937 271.62 95.9412 239.038C173.437 215.367 230.061 184.366 284.204 162.645C299.449 156.509 314.219 149.784 329.615 143.9C420.243 108.898 479.928 87.5801 514.946 74.1306C552.098 59.8741 566.394 54.1917 614.371 65.0522C641.718 71.2985 668.081 79.9151 692.966 90.7407C723.154 103.837 734.324 111.033 751.919 124.818C759.811 131.005 766.064 137.528 773.891 143.614C807.917 170.059 829.954 192.453 899.946 210.072C966.251 226.766 1061.39 231.591 1141.45 213.131C1148.52 211.45 1155.16 209.769 1161.46 207.92C1243.59 184.383 1260.8 158.039 1322.42 152.81C1330.4 152.148 1338.42 151.834 1346.44 151.869C1377.36 151.869 1406.3 156.542 1445.63 164.545C1506.91 176.868 1554.03 193.394 1590.53 204.255C1606.97 209.176 1623.76 213.352 1640.82 216.763C1699.85 228.531 1785.52 236.618 1902.11 225.908M-237.61 289.676C-133.398 290.55 -13.8984 283.741 98.7662 250.168C179.518 226.11 238.19 193.814 291.277 171.438C306.802 164.898 321.745 157.719 337.162 151.264C427.078 113.756 486.375 88.4879 522.816 72.2476C560.421 55.4357 577.003 48.0385 623.816 58.4955C650.955 64.6696 676.878 73.7205 700.859 85.3945C730.119 99.6342 739.973 108.074 755.736 122.196C762.916 128.651 768.673 135.343 776.393 141.546C809.038 167.722 835.108 187.88 904.884 202.338C972.138 216.275 1066.34 217.923 1144.92 199.581C1151.93 197.9 1158.53 196.219 1164.78 194.42C1249.11 170.53 1266.55 145.867 1325.27 140.739C1333.19 140.076 1341.15 139.739 1349.12 139.731C1380.49 139.579 1409.49 144.152 1447.64 151.986C1506.37 163.906 1552.67 180.146 1591.35 191.612C1607.67 196.5 1624.31 200.703 1641.2 204.204C1699.7 216.275 1784.96 225.471 1900.32 217.385M-238.559 297.729C-138.962 299.814 -16.9606 295.762 101.634 261.214C185.728 236.752 246.319 203.145 298.393 180.147C314.219 173.153 329.313 165.52 344.774 158.594C433.957 118.632 492.887 89.4296 530.729 70.3145C568.874 51.0313 587.676 41.852 633.303 51.9055C660.254 58.0583 685.742 67.586 708.772 80.1159C737.019 95.4483 745.644 105.199 759.573 119.641C766.042 126.365 771.239 133.208 778.98 139.546C810.289 165.436 840.433 183.257 909.951 194.655C978.154 205.802 1071.41 204.305 1148.45 186.098C1155.38 184.417 1161.93 182.736 1168.16 181.054C1254.67 156.795 1272.38 133.813 1328.14 128.82C1336.01 128.121 1343.93 127.762 1351.85 127.744C1383.68 127.576 1412.58 131.896 1449.68 139.512C1505.9 151.028 1551.35 166.983 1592.23 179.054C1607.01 183.425 1623.37 187.746 1641.68 191.612C1699.62 203.919 1784.47 214.292 1898.57 208.811M-239.508 305.547C-144.632 308.909 -20.1514 307.631 104.416 272.124C191.658 247.26 254.34 212.308 305.422 188.704C321.53 181.256 336.796 173.186 352.299 165.756C440.835 123.339 499.443 90.2198 538.536 68.2466C577.219 46.3912 598.221 35.5307 642.683 45.1807C669.476 51.3177 694.56 61.3076 716.643 74.6351C743.919 91.0772 751.143 102.156 763.369 116.883C769.126 123.877 773.805 130.888 781.374 137.344C811.346 162.914 845.544 178.499 914.781 186.77C984.019 195.042 1076.26 190.469 1151.75 172.396C1158.61 170.715 1165.12 169.034 1171.31 167.353C1260.02 142.723 1277.98 121.423 1330.87 116.547C1338.67 115.837 1346.51 115.461 1354.36 115.421C1386.7 115.101 1415.51 119.304 1451.39 126.819C1505.1 137.915 1549.69 153.601 1592.77 166.26C1607.48 170.597 1623.72 174.901 1641.81 178.852C1699.19 191.394 1783.62 202.927 1896.51 200.086M-240.43 313.263C-150.104 317.92 -23.2726 319.349 107.267 282.901C197.83 257.683 262.389 221.302 312.479 197.16C328.888 189.242 344.327 180.752 359.916 172.816C447.762 127.929 506.068 90.9425 546.39 66.0105C585.699 41.7677 608.921 29.0243 652.047 38.2877C680.682 44.4408 706.686 57.1674 724.475 68.9862C750.803 86.5042 756.819 98.945 767.148 113.958C772.15 121.221 776.333 128.399 783.794 134.99C812.451 160.207 850.638 173.472 919.639 178.701C989.782 184.064 1081.14 176.465 1155.08 158.526C1161.85 156.845 1168.32 155.164 1174.49 153.483C1265.37 128.467 1283.57 108.847 1333.49 104.106C1341.23 103.386 1349.01 102.987 1356.8 102.913C1389.55 102.425 1418.36 106.527 1453.23 113.891C1504.42 124.583 1548.1 139.983 1593.38 153.247C1608.02 157.534 1624.13 161.855 1641.99 165.856C1698.82 178.65 1782.85 191.343 1894.48 191.074M-241.388 320.879C-155.676 326.814 -26.4947 330.764 110.083 293.56C203.729 267.737 270.401 230.179 319.542 205.448C336.21 197.043 351.886 188.149 367.432 179.709C454.675 132.451 512.7 91.4638 554.251 63.7074C594.206 37.0101 619.413 22.4846 661.546 31.3277C689.168 37.1782 715.043 50.5773 732.423 63.2703C757.802 81.8642 762.373 95.65 771.02 110.966C775.332 118.497 778.976 125.811 786.351 132.535C813.692 157.484 855.933 168.311 924.675 170.648C995.832 173.052 1086.2 162.477 1158.59 144.657C1165.3 142.987 1171.72 141.305 1177.84 139.613C1270.95 114.261 1289.38 96.2888 1336.37 91.6824C1344.04 90.9424 1351.76 90.5215 1359.48 90.4215C1392.69 89.7995 1421.5 93.7839 1455.24 100.979C1503.89 111.251 1546.78 126.449 1594.28 140.252C1608.86 144.522 1624.81 148.809 1642.47 152.878C1698.75 165.924 1782.37 179.777 1892.77 182.164M-242.327 328.377C-161.252 335.555 -29.5903 342.28 112.917 304.1C209.819 277.891 278.453 238.887 326.624 213.669C343.55 204.809 359.399 195.479 375.01 186.535C461.627 136.872 519.48 91.9511 562.109 61.2694C602.754 32.1008 630.031 15.726 670.892 24.1824C697.522 29.7135 723.289 43.8018 740.216 57.4027C764.69 77.0726 767.816 92.2369 774.716 107.838C778.209 115.656 781.465 123.12 788.71 129.963C814.909 154.575 861.182 164.663 929.644 162.393C1001.62 160.006 1091.19 148.288 1162.05 130.602C1168.69 128.932 1175.05 127.25 1181.15 125.558C1276.5 99.9704 1295.13 83.5284 1339.18 79.0564C1346.8 78.3103 1354.45 77.8726 1362.12 77.7451C1395.78 77.0053 1424.66 80.8385 1457.17 87.8322C1503.21 97.7848 1545.34 112.798 1595.02 127.105C1609.53 131.341 1625.36 135.628 1642.78 139.764C1698.52 153.062 1781.73 168.075 1890.88 173.085M-243.365 335.791C-166.904 344.197 -32.7848 353.729 115.652 314.557C215.81 287.961 286.277 247.528 333.585 221.739C350.835 212.392 366.856 202.674 382.468 193.159C468.503 141.042 526.032 92.2873 569.89 58.6636C611.312 27.0572 640.702 8.93397 680.42 16.9701C706.036 22.1817 731.696 36.9426 748.191 51.4513C771.759 72.1635 773.376 88.7064 778.659 104.577C781.376 112.68 784.201 120.279 791.338 127.273C816.135 151.549 866.246 157.534 934.578 154.037C1007.5 150.356 1096.13 133.998 1165.43 116.446C1171.9 114.765 1178.37 113.084 1184.38 111.402C1281.91 85.4281 1300.82 70.6504 1341.94 66.3298C1349.49 65.5634 1357.08 65.1032 1364.69 64.9512C1398.8 64.077 1427.56 67.7924 1459.05 74.6517C1502.67 84.1168 1543.87 98.7599 1595.73 113.756C1610.2 117.959 1625.92 122.162 1643.17 126.449C1698.35 139.899 1781.17 156.156 1888.98 163.788M-244.207 343.121C-172.382 352.821 -35.8259 365.094 118.584 324.947C222.084 297.964 294.319 256.018 340.679 229.775C358.101 219.923 374.446 209.836 390.057 199.85C475.639 145.514 532.802 92.5899 577.652 56.0745C619.742 21.9295 651.072 2.05786 689.777 9.72409C714.38 14.6163 739.975 30.0497 756.018 45.4494C778.701 67.3048 778.766 85.1254 782.432 101.298C784.308 109.704 786.744 117.421 793.752 124.549C817.299 148.489 871.377 151.919 939.451 145.648C1013.26 138.924 1101.04 119.674 1168.77 102.24C1175.24 100.559 1181.56 98.8776 1187.57 97.3309C1287.3 70.9698 1306.42 57.8061 1344.63 53.6199C1352.17 52.8645 1359.76 52.4155 1367.36 52.275C1398.99 51.3462 1430.61 54.4698 1460.94 61.5215C1502.04 70.5831 1542.41 84.9405 1596.46 100.542C1610.87 104.694 1626.44 108.948 1643.4 113.252C1722.74 133.045 1804.31 146.899 1887.02 154.626M-245.155 350.401C-177.945 361.362 -38.9304 376.409 121.409 335.27C228.079 307.9 302.233 264.542 347.816 237.761C550.138 118.783 614.179 -14.098 699.287 2.3945C722.876 6.96734 748.406 23.0731 763.975 39.3807C797.224 74.1813 776.265 100.576 796.318 121.759C845.481 173.708 1066.63 115.69 1190.91 83.0916C1312.1 51.3003 1316.58 41.0619 1369.88 39.3807C1462.93 36.405 1511.29 65.54 1643.73 99.9035C1722.47 120.237 1803.25 135.42 1885.23 145.296M-245.155 355.209C-176.155 367.196 -41.4532 380.931 111.835 341.558C217.643 314.306 288.649 270.528 337.574 242.368C533.018 130.014 593.975 8.32928 680.678 19.1898C714.553 23.4264 748.946 31.9164 771.651 44.9288C816.264 70.5165 799.682 93.3975 825.557 113.858C882.202 158.678 1088.47 108.36 1206.81 78.4517C1322.08 49.2158 1326.74 40.9444 1383.08 42.6255C1476.7 45.4163 1522.87 71.2058 1647.63 104.191C1725.47 124.759 1805.62 139.568 1887.02 148.423M-245.155 360.219C-130.084 380.872 -9.96584 376.658 102.262 348.03C207.207 320.913 274.935 276.68 327.332 247.159C515.638 141.143 574.59 28.8395 662.091 36.1695C706.489 39.9017 748.234 40.8432 779.327 50.6781C832.673 67.49 822.28 86.1512 854.796 106.157C916.918 144.337 1110.31 101.215 1222.72 73.9962C1331.89 47.3158 1336.74 40.8432 1396.3 46.0549C1490.27 54.2591 1534.45 77.2241 1651.53 108.679C1728.45 129.468 1807.94 143.905 1888.72 151.751M-245.155 369.129C-133.434 390.03 -16.4623 386.316 92.7092 358.403C196.77 331.403 261.243 286.717 317.09 255.85C497.87 155.954 555.831 64.9009 643.483 57.0497C698.316 52.1406 746.811 54.1581 787.025 60.3112C847.788 69.5914 844.252 82.8223 884.057 102.341C949.952 134.653 1132.2 98.138 1238.61 73.4413C1341.85 49.4844 1346.66 44.4912 1409.49 53.3679C1503.77 66.6829 1546.01 87.1094 1655.46 117.051C1731.45 138.086 1810.33 152.157 1890.49 158.98M-245.155 382.696C-136.794 403.834 -22.9691 400.604 83.1354 373.382C186.334 346.483 247.529 301.343 306.847 269.149C479.974 175.187 537.33 92.8255 624.896 82.5366C689.95 74.904 747.393 63.2365 794.701 74.5509C859.799 90.1188 862.235 91.1947 913.296 103.131C974.727 139.462 1154.06 99.6175 1254.52 77.493C1351.77 56.1419 1356.56 52.6114 1422.71 65.3044C1517.22 83.4444 1557.54 101.669 1659.36 130.03C1734.44 151.303 1812.7 165.004 1892.24 170.799M-245.155 396.583C-140.158 417.97 -29.4746 415.273 73.6048 388.816C175.941 362.051 233.837 316.407 296.648 282.901C461.947 194.706 518.657 120.279 606.201 108.478C681.67 98.3231 744.461 82.2174 802.421 89.2615C877.157 98.34 883.777 94.7758 942.578 104.392C1007.03 136.722 1175.91 101.417 1270.33 81.9988C1361.58 63.2535 1366.37 61.0176 1435.82 77.695C1530.7 100.425 1568.97 116.715 1663.18 143.463C1737.34 164.977 1815 178.308 1893.9 183.072M-245.155 410.739C-143.546 432.334 -36.034 430.141 63.9879 404.434C165.461 377.788 220.015 331.639 286.363 296.838C443.77 214.275 499.833 147.381 587.7 134.604C673.369 122.146 742.649 111.924 810.054 104.14C893.286 94.524 905.231 98.5084 971.773 105.822C1039.35 134.25 1197.75 103.468 1286.33 86.6896C1371.59 70.5502 1376.37 69.5079 1449.13 90.2706C1544.17 117.405 1580.55 132.014 1667.08 157.098C1740.34 178.843 1817.4 191.807 1895.64 195.547M-245.155 425.079C-164.878 443.185 -56.4824 449.288 54.4356 420.254C155.111 393.892 206.236 347.038 276.121 310.976C425.485 233.911 480.965 174.296 569.092 160.93C665.175 146.371 741.592 132.131 817.752 119.22C908.961 103.736 928.799 92.9259 1001.03 107.451C1075.88 122.498 1219.59 105.77 1302.22 91.581C1381.48 78.0306 1386.31 78.1315 1462.32 103.03C1557.84 134.418 1592.04 147.548 1671.09 170.916C1720.23 185.442 1794.36 204.439 1897.5 208.205M-245.155 439.672C-163.002 458.77 -59.0052 463.595 44.8618 436.31C144.675 410.083 192.415 362.623 265.878 325.351C407.092 253.682 461.775 201.178 550.505 187.494C657.024 171.052 740.73 152.676 825.428 134.536C924.853 113.235 949.672 97.0287 1030.27 109.318C1107.1 121.087 1241.41 108.175 1318.13 96.7093C1391.45 85.748 1396.45 86.7567 1475.54 116.043C1571.54 151.567 1603.49 163.385 1674.99 184.972C1723.42 199.598 1796.46 218.596 1899.25 221.117M-245.155 454.433C-161.061 474.607 -61.5281 478.07 35.288 452.55C134.239 426.458 178.55 378.376 255.636 339.91C388.634 273.537 442.584 228.077 531.896 214.241C648.96 196.101 739.975 173.456 833.104 150.037C940.917 122.936 970.566 101.702 1059.51 111.369C1138.43 119.943 1263.24 110.848 1334.03 102.022C1401.26 93.6158 1406.58 95.5492 1488.74 129.24C1585.34 168.832 1614.92 179.457 1678.9 199.211C1726.64 213.955 1798.53 233.02 1900.99 234.197M-245.155 469.412C-159.271 490.545 -64.0293 492.747 25.7142 468.992C123.803 443.017 164.642 394.263 245.394 354.671C370.091 293.509 421.841 246.89 513.309 241.191C642.987 233.104 739.285 194.454 840.781 165.739C957.068 132.855 996.031 90.0853 1088.75 113.622C1166.2 133.342 1284.97 113.622 1349.94 107.536C1411.13 101.736 1416.78 104.476 1501.95 142.623C1599.22 186.216 1626.31 195.799 1682.8 213.653C1729.83 228.531 1800.62 247.613 1902.74 247.495M-245.155 484.879C-157.395 507.038 -66.5521 507.878 16.162 486.023C113.366 460.166 150.691 410.672 235.152 370.021C351.59 313.987 402.629 275.588 494.701 268.729C634.858 258.255 738.682 216.057 848.478 182.03C973.326 143.363 1015.31 97.7856 1118.01 116.464C1199.47 131.292 1306.86 117.102 1365.83 113.639C1421.01 110.394 1427.15 113.925 1515.15 156.61C1613.2 204.154 1637.69 212.779 1686.72 228.683C1733.02 243.713 1802.71 262.778 1904.51 261.365M-245.155 501.32C-155.541 524.504 -69.0965 524.05 6.58823 503.842C102.93 478.103 136.675 427.802 224.91 386.159C332.852 335.202 383.395 305.075 476.114 297.056C626.793 284.027 738.121 238.466 856.155 199.127C989.67 154.625 1035.12 107.199 1147.25 120.111C1232.51 129.929 1328.63 121.287 1381.74 120.531C1430.86 119.825 1437.57 124.129 1528.37 171.387C1627.23 222.848 1649.12 230.615 1690.63 244.519C1736.19 259.75 1804.91 278.748 1906.25 276.041M-245.155 518.049C-153.665 542.258 -71.6193 540.476 -2.98555 522.05C92.4937 496.412 122.595 445.203 214.667 402.685C314.179 356.722 364.096 334.917 457.505 325.771C618.621 310.001 737.604 261.247 863.831 216.595C1006.14 166.277 1055.44 117.69 1176.49 124.129C1265.33 128.853 1350.43 125.81 1397.63 127.811C1440.67 129.61 1448.05 134.653 1541.57 186.552C1641.38 241.913 1660.33 248.974 1694.53 260.743C1739.32 276.226 1806.87 295.123 1908 291.105M-245.155 536.256C-151.789 561.474 -74.2068 558.28 -12.5594 541.72C81.9926 516.032 108.407 463.932 204.425 420.674C295.462 379.653 344.776 366.204 438.918 355.949C610.384 337.271 737.129 285.507 871.421 235.525C1022.36 179.39 1076.68 137.276 1205.64 129.61C1297.54 124.163 1372.13 131.796 1413.46 136.553C1450.48 140.824 1458.53 146.641 1554.7 203.162C1655.48 262.441 1671.52 268.729 1698.35 278.395C1742.29 294.249 1808.88 312.927 1909.66 307.615M-245.155 554.278C-149.935 580.522 -76.7297 576.016 -22.1116 561.222C71.5564 535.651 94.0893 482.307 194.183 438.495C276.725 402.366 325.413 397.306 420.31 385.958C602.104 364.22 736.676 309.581 879.205 254.304C1038.96 192.318 1098.39 146.707 1234.99 134.939C1329.86 126.802 1394.06 137.511 1429.44 145.127C1460.47 151.852 1469.24 158.409 1567.98 219.621C1669.84 282.766 1682.82 288.432 1702.36 295.913C1745.31 312.355 1811.05 330.562 1911.51 323.955M-245.155 572.317C-148.123 599.569 -79.1231 593.769 -31.6854 580.723C61.0338 555.27 79.6208 500.413 183.941 456.315C257.987 425.011 306.028 428.407 401.723 415.967C593.738 391.001 736.245 333.588 886.881 273.065C1055.46 205.246 1120.17 156.071 1264.23 140.251C1362.44 129.475 1415.96 143.143 1445.35 153.701C1470.43 162.712 1479.85 170.16 1581.2 236.079C1684.16 303.108 1693.97 308.202 1706.26 313.414C1747.81 331.05 1813.12 348.215 1913.26 340.313" stroke="url(#paint0_linear_66_653)" stroke-miterlimit="10"/>
<defs>
<linearGradient id="paint0_linear_66_653" x1="2.0001" y1="296.324" x2="1431" y2="296.324" gradientUnits="userSpaceOnUse">
<stop stop-color="#DEE8E8"/>
<stop offset="0.46" stop-color="#8C9494" stop-opacity="0.08"/>
<stop offset="1" stop-color="#DEE8E8"/>
</linearGradient>
</defs>
</svg>
