<svg width="122" height="34" viewBox="0 0 122 34" fill="none" xmlns="http://www.w3.org/2000/svg">
<path d="M23.1502 10.7303C16.616 4.19607 9.04967 1.16836 5.06221 5.15584C1.07473 9.14332 4.10244 16.7096 10.6366 23.2438C17.1708 29.778 24.6834 32.8593 28.7245 28.8182C32.7657 24.7771 29.6843 17.2644 23.1502 10.7303Z" fill="white"/>
<path d="M25.8612 15.7322C26.6095 16.7841 27.2492 17.8302 27.768 18.8557C28.157 19.6255 28.4768 20.3816 28.7218 21.1279C29.0518 22.1434 29.2499 23.1368 29.236 24.1379C27.702 24.5008 26.235 24.4985 24.8666 24.2519C24.8813 24.1269 24.8862 23.9531 24.8653 23.733C24.8261 23.3036 24.6861 22.7138 24.4263 22.0353C24.0394 21.0156 23.3884 19.7983 22.5077 18.526C21.6284 17.2524 20.5207 15.9198 19.2311 14.6302C18.0341 13.4332 16.8009 12.3937 15.6116 11.5472C14.7202 10.912 13.8523 10.3855 13.0526 9.98137C12.4528 9.67833 11.8912 9.44464 11.3937 9.28041C10.6473 9.03268 10.0413 8.95914 9.70181 8.98409C9.6665 8.98673 9.63661 8.98937 9.60807 8.99337C9.36285 7.62494 9.35919 6.15791 9.72343 4.62392C9.74376 4.62396 9.76416 4.6213 9.78314 4.62135C10.7842 4.61979 11.7791 4.82333 12.7946 5.16004C14.3158 5.66916 15.8949 6.4895 17.5045 7.56801C19.1101 8.64784 20.7394 9.98855 22.3068 11.5546C23.6699 12.9177 24.8634 14.3306 25.8612 15.7322Z" fill="#F79342"/>
<path fill-rule="evenodd" clip-rule="evenodd" d="M7.96548 13.1724L9.71733 10.9311C10.2928 10.1948 10.9281 9.47537 11.6207 8.78275C14.4088 5.99463 17.6555 4.11228 20.7007 3.3605C23.7187 2.61547 26.7485 2.94748 28.7788 4.93598C28.797 4.95344 28.8151 4.97108 28.8329 4.98893C28.8575 5.0135 28.8816 5.03839 28.9054 5.06359C30.8797 7.09725 31.205 10.1227 30.4579 13.1354C29.7039 16.1766 27.8231 19.4177 25.0391 22.2016C24.3466 22.8942 23.627 23.5296 22.8909 24.105L20.6495 25.8569L20.982 23.2341C20.4592 23.7313 19.9243 24.2149 19.3805 24.6819C16.9292 26.7866 14.3776 28.4797 12.0353 29.5259L9.23869 30.7752L10.5784 27.7761C9.38292 28.4933 8.32972 29.0337 7.4604 29.4345C6.64564 29.8102 5.99271 30.0632 5.53594 30.2243C5.30755 30.3047 5.1282 30.3622 5.00216 30.4006C4.93914 30.4198 4.88945 30.4342 4.85362 30.4443C4.8357 30.4494 4.82125 30.4533 4.81033 30.4563C4.80487 30.4578 4.80029 30.459 4.7966 30.46L4.79175 30.4613L4.78898 30.462C4.7886 30.4621 4.78823 30.4622 4.49344 29.3284C4.49344 29.3284 4.99662 29.1976 5.8925 28.8368C7.10951 28.3468 9.05121 27.4325 11.4407 25.8455C12.0386 25.4485 12.6644 25.0094 13.314 24.5242L11.5576 28.4563C12.0961 28.2158 12.6491 27.9377 13.212 27.625C14.9625 26.6526 16.8092 25.3456 18.6174 23.793C19.5145 23.0228 20.387 22.2051 21.2202 21.3558C21.6889 20.878 22.1451 20.3904 22.5862 19.8955L22.1695 23.182C22.6173 22.8319 23.0592 22.4581 23.4924 22.0611C23.7347 21.839 23.9743 21.6097 24.2108 21.3733C29.5276 16.0565 31.2385 9.13743 28.0586 5.8731C28.0409 5.8542 28.0229 5.8356 28.0046 5.81728C27.9912 5.80392 27.9777 5.79072 27.964 5.77768C24.7058 2.57827 17.7739 4.28634 12.4491 9.61106C12.2126 9.84754 11.9833 10.0872 11.7612 10.3295C11.3643 10.7627 10.9904 11.2046 10.6403 11.6525L13.9262 11.2358C13.4314 11.6769 12.9436 12.1331 12.4659 12.6018C11.6167 13.4349 10.7991 14.3074 10.0288 15.2044C8.47625 17.0127 7.16929 18.8593 6.19687 20.6099C5.88417 21.1728 5.60607 21.7258 5.3655 22.2643L9.30355 20.5053C8.81941 21.1542 8.38089 21.7798 7.98419 22.3776C6.39902 24.7664 5.48114 26.712 4.98814 27.9309C4.62643 28.8253 4.49344 29.3284 4.49344 29.3284C3.36086 29.0291 3.36096 29.0287 3.36106 29.0283L3.36178 29.0256L3.36308 29.0208C3.36406 29.0171 3.36529 29.0126 3.36679 29.0072C3.36978 28.9963 3.3738 28.9819 3.37892 28.964C3.38915 28.9282 3.40374 28.8785 3.42316 28.8154C3.46202 28.6893 3.52021 28.5097 3.60149 28.2809C3.76404 27.8235 4.01893 27.1696 4.39609 26.3541C4.79805 25.4851 5.33879 24.4328 6.0544 23.2396L3.04665 24.5832L4.2959 21.7865C5.34218 19.4443 7.0353 16.8926 9.14 14.4413C9.60685 13.8976 10.0905 13.3628 10.5877 12.84L7.96548 13.1724ZM4.49344 29.3284L4.78823 30.4622L2.8488 30.9665L3.36087 29.0291L4.49344 29.3284Z" fill="white"/>
<path d="M4.49358 29.3285C4.49358 29.3285 4.99675 29.1977 5.89263 28.8369C7.10965 28.3469 9.05135 27.4326 11.4409 25.8456C12.0387 25.4486 12.6646 25.0094 13.3142 24.5243L11.5577 28.4564C12.0962 28.2159 12.6492 27.9378 13.2121 27.6251C14.9627 26.6527 16.8093 25.3457 18.6176 23.7931C19.5147 23.0229 20.3872 22.2051 21.2203 21.3559C21.689 20.8781 22.1452 20.3905 22.5863 19.8956L22.1696 23.1821C22.6175 22.832 23.0593 22.4582 23.4926 22.0612C23.7349 21.8391 23.9745 21.6098 24.2109 21.3734C29.5277 16.0566 31.2386 9.13752 28.0587 5.87319C28.0411 5.85429 28.023 5.83569 28.0047 5.81737C27.9914 5.80401 27.9778 5.79081 27.9641 5.77777C24.7059 2.57836 17.774 4.28643 12.4492 9.61115C12.2128 9.84763 11.9835 10.0873 11.7614 10.3296C11.3644 10.7628 10.9905 11.2047 10.6405 11.6526L13.9263 11.2359C13.4315 11.677 12.9438 12.1332 12.466 12.6019C11.6169 13.435 10.7992 14.3075 10.029 15.2045C8.47639 17.0128 7.16943 18.8594 6.197 20.61C5.88431 21.1729 5.6062 21.7259 5.36563 22.2644L9.30368 20.5053C8.81955 21.1542 8.38102 21.7798 7.98432 22.3777C6.39916 24.7665 5.48127 26.7121 4.98828 27.931C4.62656 28.8253 4.49358 29.3285 4.49358 29.3285Z" fill="white"/>
<path fill-rule="evenodd" clip-rule="evenodd" d="M10.6398 11.6523C11.1857 10.9539 11.7894 10.2701 12.4486 9.61092C17.7733 4.28618 24.7053 2.57811 27.9635 5.77753C27.9772 5.79057 27.9907 5.80376 28.004 5.81713C28.0224 5.83544 28.0404 5.85405 28.0581 5.87295C31.2379 9.13729 29.527 16.0564 24.2102 21.3731C23.5511 22.0323 22.8674 22.636 22.1689 23.1819L22.5857 19.8953C21.3605 21.2698 20.0187 22.5893 18.6169 23.7929C16.2272 25.8447 13.7704 27.4675 11.557 28.4562L13.3135 24.5241C8.15653 28.3757 4.49292 29.3283 4.49292 29.3283C4.49292 29.3283 5.46529 25.6493 9.30299 20.505L5.36498 22.2642C6.35368 20.0508 7.97651 17.5939 10.0283 15.2043C11.2319 13.8025 12.5513 12.4608 13.9256 11.2357L10.6398 11.6523Z" fill="#0000FF"/>
<path d="M8.93272 10.026C8.98538 10.4527 9.12399 11.01 9.36738 11.6463C9.60121 12.2622 9.93162 12.9503 10.3478 13.6781C11.4122 15.6286 12.7486 17.175 13.6679 18.1527C13.988 18.5025 14.3203 18.8525 14.6662 19.1983C14.9944 19.5265 15.3252 19.8411 15.6574 20.1449C16.6364 21.0683 18.2142 22.4429 20.215 23.5305C20.4707 23.6764 20.7224 23.8143 20.9672 23.9385C21.5779 24.2484 22.1517 24.4862 22.6587 24.6532C23.1101 24.8037 23.5097 24.889 23.8344 24.9305C25.5034 25.3123 27.3291 25.359 29.2512 24.826C29.2159 25.3869 29.1073 25.9544 28.89 26.5067C28.6727 27.0589 28.3372 27.5933 27.8928 28.035C27.367 28.562 26.716 28.9326 26.055 29.1428C25.4742 29.3288 24.8848 29.4034 24.3021 29.406C23.2807 29.4089 22.2668 29.1998 21.2309 28.8563C19.6783 28.3376 18.068 27.5009 16.4284 26.4006C14.7902 25.2989 13.1282 23.9323 11.5309 22.335C10.1406 20.9446 8.92397 19.5045 7.90568 18.0743C7.1423 17.0006 6.49034 15.9341 5.96067 14.8882C5.56478 14.1034 5.23684 13.3311 4.98771 12.5712C4.61673 11.4292 4.40746 10.3148 4.47118 9.18756C4.50508 8.62534 4.61367 8.05513 4.83368 7.50145C5.05098 6.94913 5.3865 6.41619 5.83092 5.97313C6.35663 5.44606 7.00769 5.07552 7.66866 4.86529C8.12331 4.71973 8.58224 4.64346 9.03994 4.61609C8.50687 6.53543 8.55357 8.35843 8.93407 10.026H8.93272Z" fill="#FBB042"/>
<path d="M41.8153 24.0612C41.3061 24.0612 40.837 23.9339 40.4082 23.6792C39.9928 23.4247 39.6578 23.0896 39.4031 22.6742C39.1486 22.2454 39.0212 21.7764 39.0212 21.2672V20.1616H41.6746V21.1465C41.6746 21.2135 41.6946 21.2738 41.7348 21.3274C41.7884 21.3676 41.8488 21.3877 41.9158 21.3877H50.5793C50.6463 21.3877 50.6999 21.3676 50.7401 21.3274C50.7937 21.2738 50.8205 21.2135 50.8205 21.1465V18.3927C50.8205 18.3257 50.7937 18.2721 50.7401 18.2319C50.6999 18.1917 50.6463 18.1716 50.5793 18.1716H41.8153C41.3061 18.1716 40.837 18.0443 40.4082 17.7897C39.9928 17.535 39.6578 17.2 39.4031 16.7846C39.1486 16.3558 39.0212 15.8801 39.0212 15.3575V12.3825C39.0212 11.8733 39.1486 11.411 39.4031 10.9956C39.6578 10.5667 39.9928 10.225 40.4082 9.97043C40.837 9.71579 41.3061 9.5885 41.8153 9.5885H50.6999C51.2091 9.5885 51.6714 9.71579 52.0869 9.97043C52.5156 10.225 52.8574 10.5667 53.112 10.9956C53.3666 11.411 53.4939 11.8733 53.4939 12.3825V13.4881H50.8205V12.5031C50.8205 12.4361 50.7937 12.3825 50.7401 12.3423C50.6999 12.2887 50.6463 12.2619 50.5793 12.2619H41.9158C41.8488 12.2619 41.7884 12.2887 41.7348 12.3423C41.6946 12.3825 41.6746 12.4361 41.6746 12.5031V15.257C41.6746 15.3239 41.6946 15.3775 41.7348 15.4177C41.7884 15.458 41.8488 15.4781 41.9158 15.4781H50.6999C51.2091 15.4781 51.6714 15.6053 52.0869 15.86C52.5156 16.1146 52.8574 16.4563 53.112 16.8851C53.3666 17.3005 53.4939 17.7695 53.4939 18.2922V21.2672C53.4939 21.7764 53.3666 22.2454 53.112 22.6742C52.8574 23.0896 52.5156 23.4247 52.0869 23.6792C51.6714 23.9339 51.2091 24.0612 50.6999 24.0612H41.8153ZM61.6583 24.0612C61.1491 24.0612 60.6801 23.9339 60.2512 23.6792C59.8358 23.4247 59.5008 23.0896 59.2462 22.6742C58.9916 22.2454 58.8643 21.7764 58.8643 21.2672V12.3825C58.8643 11.8733 58.9916 11.411 59.2462 10.9956C59.5008 10.5667 59.8358 10.225 60.2512 9.97043C60.6801 9.71579 61.1491 9.5885 61.6583 9.5885H70.5428C71.0524 9.5885 71.5147 9.71579 71.9302 9.97043C72.3585 10.225 72.7001 10.5667 72.955 10.9956C73.2098 11.411 73.3372 11.8733 73.3372 12.3825V21.2672C73.3372 21.7764 73.2098 22.2454 72.955 22.6742C72.7001 23.0896 72.3585 23.4247 71.9302 23.6792C71.5147 23.9339 71.0524 24.0612 70.5428 24.0612H61.6583ZM61.7588 21.3877H70.4025C70.4696 21.3877 70.5299 21.3676 70.5834 21.3274C70.637 21.2738 70.6634 21.2135 70.6634 21.1465V12.5031C70.6634 12.4361 70.637 12.3825 70.5834 12.3423C70.5299 12.2887 70.4696 12.2619 70.4025 12.2619H61.7588C61.6919 12.2619 61.6315 12.2887 61.5779 12.3423C61.5377 12.3825 61.5176 12.4361 61.5176 12.5031V21.1465C61.5176 21.2135 61.5377 21.2738 61.5779 21.3274C61.6315 21.3676 61.6919 21.3877 61.7588 21.3877ZM78.7669 24.0612V9.5885H81.6814L90.5657 20.1616V9.5885H93.2395V24.0612H90.3251L81.4197 13.468V24.0612H78.7669ZM98.4259 24.0612V9.5885H101.059V24.0612H98.4259ZM109.017 24.0612C108.507 24.0612 108.038 23.9339 107.61 23.6792C107.194 23.4247 106.859 23.0896 106.605 22.6742C106.35 22.2454 106.222 21.7764 106.222 21.2672V12.3825C106.222 11.8733 106.35 11.411 106.605 10.9956C106.859 10.5667 107.194 10.225 107.61 9.97043C108.038 9.71579 108.507 9.5885 109.017 9.5885H120.655V12.2619H109.579C109.365 12.2619 109.191 12.3222 109.057 12.4428C108.936 12.5634 108.876 12.7377 108.876 12.9655V20.6842C108.876 20.8986 108.936 21.0728 109.057 21.2068C109.191 21.3274 109.365 21.3877 109.579 21.3877H120.655V24.0612H109.017Z" fill="black"/>
</svg>
