<svg width="176" height="45" viewBox="0 0 176 45" fill="none" xmlns="http://www.w3.org/2000/svg">
<g clip-path="url(#clip0_1264_33518)">
<path d="M28.5397 14.2996C31.1192 14.2996 33.2102 12.2085 33.2102 9.62904C33.2102 7.04957 31.1192 4.9585 28.5397 4.9585C25.9602 4.9585 23.8691 7.04957 23.8691 9.62904C23.8691 12.2085 25.9602 14.2996 28.5397 14.2996Z" fill="#598BFF"/>
<path d="M28.5397 35.8792C31.1192 35.8792 33.2102 33.7881 33.2102 31.2086C33.2102 28.6292 31.1192 26.5381 28.5397 26.5381C25.9602 26.5381 23.8691 28.6292 23.8691 31.2086C23.8691 33.7881 25.9602 35.8792 28.5397 35.8792Z" fill="#598BFF"/>
<path d="M9.53969 25.3181C12.1192 25.3181 14.2102 23.2271 14.2102 20.6476C14.2102 18.0681 12.1192 15.9771 9.53969 15.9771C6.96022 15.9771 4.86914 18.0681 4.86914 20.6476C4.86914 23.2271 6.96022 25.3181 9.53969 25.3181Z" fill="white"/>
<path d="M9.54031 11.3062C4.38163 11.3062 0.199219 15.4886 0.199219 20.6472C0.199219 25.8059 4.38163 29.9883 9.54031 29.9883C14.699 29.9883 18.8814 25.8059 18.8814 20.6472C18.8814 15.4886 14.699 11.3062 9.54031 11.3062ZM9.54031 25.3178C6.96097 25.3178 4.86977 23.2266 4.86977 20.6472C4.86977 18.0679 6.96097 15.9767 9.54031 15.9767C12.1197 15.9767 14.2109 18.0679 14.2109 20.6472C14.2109 23.2266 12.1197 25.3178 9.54031 25.3178Z" fill="#050303"/>
<path d="M28.5325 0.288086C23.3738 0.288086 19.1914 4.47049 19.1914 9.62918C19.1914 14.7879 23.3738 18.9703 28.5325 18.9703C33.6912 18.9703 37.8736 14.7879 37.8736 9.62918C37.8736 4.47049 33.6912 0.288086 28.5325 0.288086ZM28.5325 14.2997C25.9532 14.2997 23.862 12.2085 23.862 9.62918C23.862 7.04984 25.9532 4.95863 28.5325 4.95863C31.1118 4.95863 33.203 7.04984 33.203 9.62918C33.203 12.2085 31.1118 14.2997 28.5325 14.2997Z" fill="#050303"/>
<path d="M37.6894 31.2085C37.6894 26.1509 33.5898 22.0513 28.5322 22.0513C23.4746 22.0513 19.375 26.1509 19.375 31.2085C19.375 35.7182 22.635 39.4664 26.9272 40.2251L23.5584 44.2583H29.4623L34.6787 37.9962C36.5283 36.3209 37.6904 33.8995 37.6904 31.2075L37.6894 31.2085ZM28.5322 35.7875C26.0039 35.7875 23.9531 33.7377 23.9531 31.2085C23.9531 28.6792 26.0029 26.6294 28.5322 26.6294C31.0615 26.6294 33.1113 28.6792 33.1113 31.2085C33.1113 32.2127 32.7878 33.1398 32.2399 33.8947L32.2255 33.8822L31.6931 34.5195C30.8708 35.3042 29.7588 35.7866 28.5332 35.7866L28.5322 35.7875Z" fill="#050303"/>
<path d="M144.798 34.8659C143.508 34.8659 142.463 33.8203 142.463 32.5311C142.463 31.2419 143.508 30.1963 144.798 30.1963C146.087 30.1963 147.132 31.2419 147.132 32.5311C147.132 33.8203 146.087 34.8659 144.798 34.8659Z" fill="#050303"/>
<path d="M63.4351 14.37V9.69945H49.2174V9.68115H44.5469V9.69945V14.37V20.7505V25.421V34.8661H49.2174V25.421H60.2877V20.7505H49.2174V14.37H63.4351Z" fill="#050303"/>
<path d="M81.0705 30.1956H70.7916V9.68115H66.1211V30.1956V34.8661H70.7916H81.0705V30.1956Z" fill="#050303"/>
<path d="M154.151 15.7046H149.48V34.8663H154.151V15.7046Z" fill="#050303"/>
<path d="M149.48 9.68115V14.3517H154.151V12.4704V9.68115H149.48Z" fill="#050303"/>
<path d="M135.762 34.8659L141.721 34.8543L132.76 23.7292L140.77 15.7976H134.028L129.008 20.8167V9.69922H124.338V25.4872V28.5643V34.8659H129.008V27.4456L129.44 27.0181L135.762 34.8659Z" fill="#050303"/>
<path d="M91.657 15.9771C86.4405 15.9771 82.2129 20.2057 82.2129 25.4212C82.2129 30.6367 86.4415 34.8653 91.657 34.8653C96.8725 34.8653 101.101 30.6367 101.101 25.4212C101.101 20.2057 96.8725 15.9771 91.657 15.9771ZM91.657 30.1437C89.0488 30.1437 86.9345 28.0294 86.9345 25.4212C86.9345 22.8129 89.0488 20.6986 91.657 20.6986C94.2652 20.6986 96.3795 22.8129 96.3795 25.4212C96.3795 28.0294 94.2652 30.1437 91.657 30.1437Z" fill="#050303"/>
<path d="M116.955 27.3102C116.226 28.9778 114.564 30.1437 112.628 30.1437C110.019 30.1437 107.905 28.0294 107.905 25.4212C107.905 22.8129 110.019 20.6986 112.628 20.6986C114.564 20.6986 116.226 21.8646 116.955 23.5321H121.883C121.008 19.2217 117.197 15.9771 112.628 15.9771C107.411 15.9771 103.184 20.2057 103.184 25.4212C103.184 30.6367 107.412 34.8653 112.628 34.8653C117.197 34.8653 121.008 31.6206 121.883 27.3102H116.955Z" fill="#050303"/>
<path d="M165.847 16.0811C160.688 16.0811 156.506 20.2635 156.506 25.4221C156.506 30.5808 160.688 34.7632 165.847 34.7632C171.006 34.7632 175.188 30.5808 175.188 25.4221C175.188 20.2635 171.006 16.0811 165.847 16.0811ZM165.847 30.0927C163.268 30.0927 161.176 28.0015 161.176 25.4221C161.176 22.8428 163.268 20.7516 165.847 20.7516C168.426 20.7516 170.518 22.8428 170.518 25.4221C170.518 28.0015 168.426 30.0927 165.847 30.0927Z" fill="#050303"/>
</g>
<defs>
<clipPath id="clip0_1264_33518">
<rect width="175.037" height="44" fill="white" transform="translate(0.199219 0.288086)"/>
</clipPath>
</defs>
</svg>
