<svg width="136" height="54" viewBox="0 0 136 54" fill="none" xmlns="http://www.w3.org/2000/svg">
<g clip-path="url(#clip0_1802_9554)">
<path fill-rule="evenodd" clip-rule="evenodd" d="M40.9125 16.7139L36.9993 18.7076L18.1026 28.3326C18.0387 27.8453 18.0066 27.3543 18.0064 26.8627C18.009 24.9016 18.5239 22.9751 19.5001 21.2741C20.4763 19.5732 21.8799 18.1568 23.572 17.1652C25.264 16.1737 27.1858 15.6414 29.1468 15.621C31.1079 15.6007 33.0403 16.0931 34.7525 17.0494L36.9924 15.9081L37.3265 15.7376C35.2026 14.196 32.6819 13.2944 30.0621 13.1394C27.4422 12.9843 24.8328 13.5822 22.5418 14.8625C20.2509 16.1428 18.3742 18.052 17.1335 20.3646C15.8927 22.6771 15.3396 25.2965 15.5396 27.9132C15.5767 28.4052 15.4675 28.8971 15.2258 29.3272C14.9841 29.7573 14.6206 30.1063 14.1811 30.3305L13 30.9327V33.7419L16.4774 31.9695L17.6035 31.3947L18.7131 30.8296L38.6341 20.6794L40.8726 19.5395L45.4995 17.1814V14.3736L40.9125 16.7139ZM45.4995 19.9932L19.8448 33.0557L17.6062 34.1984L13 36.5455V39.3519L17.5746 37.0212L21.4879 35.0275L40.4038 25.3887C40.4679 25.8796 40.5 26.3728 40.5 26.8682C40.4988 28.8317 39.984 30.7607 39.0069 32.4637C38.0297 34.1667 36.6241 35.5845 34.9296 36.5764C33.2351 37.5683 31.3107 38.0997 29.3473 38.1179C27.384 38.1361 25.45 37.6405 23.7374 36.6802L23.5999 36.7531L21.1716 37.9906C23.2957 39.5328 25.8169 40.4348 28.4372 40.59C31.0575 40.7452 33.6675 40.1471 35.9588 38.8664C38.2501 37.5857 40.1269 35.676 41.3675 33.3627C42.6081 31.0495 43.1607 28.4295 42.9599 25.8122C42.9227 25.3204 43.0317 24.8286 43.2731 24.3985C43.5146 23.9685 43.8778 23.6193 44.317 23.395L45.4995 22.7927V19.9932ZM77.174 29.3914C77.174 24.8305 80.2183 21.943 84.1425 21.943C88.5466 21.943 91.1371 25.6005 90.8429 30.1655H79.7906C79.8704 33.262 82.113 34.7566 84.2223 34.7566C86.359 34.7566 87.5332 33.7955 88.1465 32.3806H90.6559C90.0151 34.8377 87.7203 36.8934 84.2223 36.8934C79.6834 36.8934 77.174 33.636 77.174 29.3914ZM84.1425 24.0247C82.0058 24.0247 80.0312 25.1949 79.8167 28.0824H88.2799C88.2001 26.0542 86.7316 24.0247 84.1425 24.0247ZM62.3969 25.4369L60.1604 24.9295C58.3386 24.528 56.9979 23.6755 56.9979 21.9664C56.9979 19.8035 59.6104 19.1366 61.1092 19.1366C63.0342 19.1366 65.2741 19.9107 65.9148 22.1259H68.5589C67.7834 18.4134 64.7089 16.8404 61.2164 16.8404C58.0924 16.8404 54.2218 18.4161 54.2218 22.1259C54.2218 25.3296 56.8646 26.8256 59.5348 27.4127L61.9479 27.9201C64.3776 28.4811 66.1128 29.2814 66.1128 31.337C66.1128 33.262 64.4848 34.5944 61.6014 34.5944C58.5847 34.5944 56.7697 33.2056 56.2623 30.5367H53.5866C54.0939 34.3867 56.9773 36.8906 61.5423 36.8906C65.3923 36.8906 68.9109 34.8611 68.9109 31.0964C68.9109 27.1996 65.3614 26.0776 62.3969 25.4369ZM71.6981 18.5756H74.1277V22.1795H76.8502V24.1285H74.1277V32.646C74.1277 34.1406 74.2336 34.5146 75.6223 34.5146H76.8502V36.5427H75.0888C72.3388 36.5427 71.6981 35.9288 71.6981 32.9382V24.1292H69.4279V22.1795H71.6981V18.5756ZM122.269 22.1025C120.373 22.1822 118.932 23.065 118.212 24.6916V22.1822H115.834V36.5448H118.264V29.0167C118.264 25.8129 119.386 24.6167 121.628 24.6167C122.085 24.6167 122.539 24.6524 122.99 24.7239V22.1279C122.75 22.1073 122.51 22.0988 122.269 22.1025ZM113.522 27.8184L113.496 31.1294C113.468 33.5549 113.576 35.1829 113.869 36.5482H111.413C111.309 35.8942 111.246 35.236 111.226 34.5737C110.346 36.0711 108.877 36.8961 106.314 36.8961C103.618 36.8961 101.375 35.4001 101.375 32.7574C101.375 29.3611 105.22 28.3532 111.092 27.7111V27.3646C111.092 24.7219 109.652 23.868 107.835 23.868C105.807 23.868 104.659 24.9364 104.552 26.7239H102.042C102.255 23.6274 105.033 21.8921 107.809 21.8921C111.841 21.8921 113.55 23.7332 113.522 27.8184ZM106.848 34.9739C109.118 34.9739 111.279 33.9316 111.279 30.5422V29.6334C106.874 30.061 104.072 30.7279 104.072 32.7037C104.072 34.0664 105.113 34.9739 106.848 34.9739ZM94.906 17.1786H92.4764V36.5441H94.906V17.1786ZM97.3343 17.1786H99.7639V36.5441H97.3343V17.1786Z" fill="#1B1A1A"/>
</g>
<defs>
<clipPath id="clip0_1802_9554">
<rect width="110" height="27.5" fill="white" transform="translate(13 13)"/>
</clipPath>
</defs>
</svg>
