<svg width="136" height="54" viewBox="0 0 136 54" fill="none" xmlns="http://www.w3.org/2000/svg">
<g clip-path="url(#clip0_672_2698)">
<mask id="mask0_672_2698" style="mask-type:luminance" maskUnits="userSpaceOnUse" x="5" y="18" width="125" height="19">
<path d="M5 18H130V36.5758H5V18Z" fill="white"/>
</mask>
<g mask="url(#mask0_672_2698)">
<path d="M26.0004 32.6459L22.5716 36.3223C22.4975 36.4022 22.4076 36.4659 22.3078 36.5095C22.2079 36.5531 22.1001 36.5757 21.9911 36.5758H5.73725C5.65973 36.5758 5.5839 36.5531 5.51905 36.5106C5.4542 36.4682 5.40315 36.4077 5.37214 36.3366C5.34113 36.2656 5.33152 36.187 5.34447 36.1106C5.35742 36.0342 5.39238 35.9632 5.44507 35.9063L8.86999 32.2298C8.94415 32.15 9.03397 32.0863 9.13384 32.0426C9.23372 31.999 9.3415 31.9765 9.45049 31.9764H25.7044C25.7826 31.9747 25.8596 31.9963 25.9256 32.0383C25.9916 32.0803 26.0437 32.141 26.0753 32.2125C26.107 32.2841 26.1168 32.3634 26.1034 32.4405C26.0901 32.5176 26.0542 32.5891 26.0004 32.6459ZM22.5716 25.2407C22.4972 25.1612 22.4073 25.0977 22.3075 25.0541C22.2077 25.0105 22.1 24.9878 21.9911 24.9872H5.73725C5.65973 24.9872 5.5839 25.0099 5.51905 25.0524C5.4542 25.0948 5.40315 25.1553 5.37214 25.2264C5.34113 25.2974 5.33152 25.376 5.34447 25.4524C5.35742 25.5288 5.39238 25.5998 5.44507 25.6567L8.86999 29.3351C8.94444 29.4146 9.03431 29.4781 9.13412 29.5217C9.23393 29.5652 9.34158 29.588 9.45049 29.5886H25.7044C25.7817 29.5882 25.8573 29.5652 25.9218 29.5226C25.9864 29.48 26.0371 29.4195 26.0679 29.3485C26.0987 29.2776 26.1081 29.1992 26.0951 29.1229C26.0821 29.0466 26.0472 28.9758 25.9946 28.9191L22.5716 25.2407ZM5.73725 22.5994H21.9911C22.1001 22.5993 22.2079 22.5768 22.3078 22.5332C22.4077 22.4895 22.4975 22.4258 22.5716 22.3459L26.0004 18.6695C26.0406 18.627 26.0709 18.5761 26.0892 18.5206C26.1074 18.465 26.1132 18.4061 26.106 18.348C26.0989 18.29 26.079 18.2342 26.0478 18.1848C26.0166 18.1353 25.9748 18.0933 25.9255 18.0619C25.8595 18.0199 25.7826 17.9983 25.7044 18H9.45049C9.3415 18.0001 9.23372 18.0226 9.13384 18.0663C9.03397 18.1099 8.94415 18.1736 8.86999 18.2534L5.44507 21.9299C5.39238 21.9868 5.35742 22.0578 5.34447 22.1342C5.33152 22.2106 5.34113 22.2892 5.37214 22.3603C5.40315 22.4313 5.4542 22.4918 5.51905 22.5342C5.5839 22.5767 5.65973 22.5994 5.73725 22.5994Z" fill="url(#paint0_linear_672_2698)"/>
<path d="M45.8166 25.8559H37.1207V22.9922H48.0766V20.1284H37.0917C36.7164 20.1263 36.3443 20.1982 35.9968 20.3399C35.6492 20.4816 35.333 20.6904 35.0662 20.9544C34.7993 21.2184 34.5871 21.5323 34.4416 21.8783C34.2961 22.2243 34.2202 22.5956 34.2183 22.9709V25.8734C34.2197 26.249 34.2953 26.6207 34.4405 26.9671C34.5858 27.3136 34.7979 27.628 35.0648 27.8924C35.3317 28.1567 35.6481 28.3659 35.9959 28.5078C36.3437 28.6498 36.7161 28.7218 37.0917 28.7197H45.7991V31.5835H34.4253V34.4473H45.8166C46.3818 34.4504 46.9353 34.2859 47.4071 33.9743C47.8788 33.6628 48.2475 33.2184 48.4665 32.6973C48.6121 32.3513 48.688 31.9801 48.69 31.6048V28.7023C48.6885 28.3267 48.613 27.955 48.4677 27.6086C48.3224 27.2621 48.1103 26.9477 47.8434 26.6834C47.5765 26.419 47.2602 26.2099 46.9124 26.0679C46.5646 25.9259 46.1922 25.8539 45.8166 25.8559ZM62.6625 20.1284H53.9338C53.3676 20.1239 52.8128 20.2876 52.3398 20.5989C51.8667 20.9101 51.4968 21.3549 51.2769 21.8767C51.1308 22.2231 51.0546 22.5949 51.0526 22.9709V31.6048C51.0546 31.9808 51.1308 32.3527 51.2769 32.6992C51.4968 33.221 51.8667 33.6657 52.3397 33.977C52.8128 34.2882 53.3676 34.4519 53.9338 34.4473H62.6625C63.0379 34.4494 63.4099 34.3775 63.7575 34.2358C64.105 34.094 64.4213 33.8852 64.6881 33.6213C64.9549 33.3573 65.1671 33.0434 65.3126 32.6974C65.4581 32.3514 65.534 31.9801 65.536 31.6048V22.9709C65.534 22.5956 65.4581 22.2243 65.3126 21.8784C65.1671 21.5324 64.9548 21.2185 64.6879 20.9546C64.4211 20.6906 64.105 20.4817 63.7574 20.3399C63.4099 20.1982 63.0379 20.1263 62.6625 20.1284ZM62.6413 31.5835H53.9551V22.9922H62.6374L62.6413 31.5835ZM93.2353 20.1284H84.7214C84.346 20.1263 83.974 20.1982 83.6264 20.3399C83.2789 20.4816 82.9626 20.6904 82.6958 20.9544C82.429 21.2184 82.2168 21.5323 82.0713 21.8783C81.9258 22.2243 81.8499 22.5956 81.8479 22.9709V34.4473H84.7504V29.7433H93.2256V34.4473H96.1281V22.9709C96.1262 22.5939 96.0497 22.221 95.903 21.8737C95.7563 21.5264 95.5424 21.2116 95.2735 20.9474C95.0046 20.6832 94.686 20.4748 94.3362 20.3342C93.9864 20.1936 93.6123 20.1237 93.2353 20.1284ZM93.214 26.8796H84.7388V22.9922H93.214V26.8796ZM127.127 20.1284H118.613C118.237 20.1263 117.865 20.1982 117.518 20.3399C117.17 20.4816 116.854 20.6904 116.587 20.9544C116.32 21.2184 116.108 21.5323 115.963 21.8783C115.817 22.2243 115.741 22.5956 115.739 22.9709V34.4473H118.642V29.7433H127.098V34.4473H130V22.9709C129.998 22.5956 129.922 22.2243 129.777 21.8784C129.631 21.5324 129.419 21.2185 129.152 20.9546C128.613 20.4216 127.885 20.1244 127.127 20.1284ZM127.098 26.8796H118.622V22.9922H127.098V26.8796ZM110.263 31.5835H109.102L104.952 21.3281C104.809 20.9742 104.565 20.671 104.249 20.4572C103.933 20.2434 103.561 20.1289 103.179 20.1284H100.604C100.227 20.1264 99.8576 20.2362 99.5431 20.4441C99.2285 20.652 98.9828 20.9485 98.8369 21.2962C98.74 21.5269 98.6894 21.7744 98.6881 22.0247V34.4473H101.591V22.9922H102.752L106.9 33.2476C107.045 33.6008 107.291 33.9029 107.608 34.1152C107.925 34.3275 108.299 34.4404 108.68 34.4395H111.256C111.506 34.4409 111.754 34.3929 111.986 34.2982C112.218 34.2036 112.429 34.0642 112.606 33.8881C112.966 33.5324 113.169 33.0487 113.171 32.5433V20.1284H110.263V31.5835ZM71.0023 20.1284H68.0998V31.6048C68.1018 31.9809 68.178 32.353 68.3241 32.6996C68.4702 33.0462 68.6833 33.3605 68.9512 33.6245C69.2191 33.8886 69.5365 34.0972 69.8851 34.2384C70.2338 34.3795 70.6068 34.4505 70.983 34.4473H79.6904V31.5835H71.0023V20.1284Z" fill="black"/>
</g>
</g>
<defs>
<linearGradient id="paint0_linear_672_2698" x1="7.09174" y1="37.0189" x2="24.1351" y2="17.8045" gradientUnits="userSpaceOnUse">
<stop offset="0.08" stop-color="#9945FF"/>
<stop offset="0.3" stop-color="#8752F3"/>
<stop offset="0.5" stop-color="#5497D5"/>
<stop offset="0.6" stop-color="#43B4CA"/>
<stop offset="0.72" stop-color="#28E0B9"/>
<stop offset="0.97" stop-color="#19FB9B"/>
</linearGradient>
<clipPath id="clip0_672_2698">
<rect width="125" height="18.5758" fill="white" transform="translate(5 18)"/>
</clipPath>
</defs>
</svg>
