<svg width="136" height="54" viewBox="0 0 136 54" fill="none" xmlns="http://www.w3.org/2000/svg">
<path fill-rule="evenodd" clip-rule="evenodd" d="M34.9364 14.7077C35.1603 15.0066 35.2351 15.3055 35.2351 15.6791C35.2351 17.3231 35.1603 18.9671 34.9364 20.611C34.9364 20.7605 34.8617 20.9846 34.7869 21.2088L19.5429 16.8747L4.37363 21.2088C4.37363 20.9846 4.2989 20.8352 4.2989 20.611C4.07473 18.9671 4 17.3231 4 15.6791C4 15.3055 4.07473 15.0066 4.2989 14.7077C4.52308 14.4088 4.82198 14.2593 5.19561 14.1099C6.83956 13.6615 19.5429 10 19.6176 10C19.6923 10 32.4704 13.6615 34.0396 14.1099C34.4132 14.1846 34.7122 14.3341 34.9364 14.7077ZM4.74725 23.3011C5.19561 25.4681 5.86813 27.5605 6.76484 29.6528L19.6176 25.9912L32.4704 29.6528C33.3671 27.5605 34.0396 25.4681 34.4879 23.3011L19.6176 19.0418L4.74725 23.3011ZM7.73626 31.5956C7.811 31.7451 7.811 31.8198 7.88571 31.8945C8.85714 33.6879 9.97803 35.4066 11.3231 36.9759C11.622 37.3495 11.622 37.3495 11.622 37.3495L19.6923 35.1077L27.7627 37.3495C27.7627 37.3495 27.7627 37.3495 28.0616 36.9759C29.3319 35.4066 30.5275 33.6879 31.4989 31.8945C31.5737 31.8198 31.5737 31.6703 31.6484 31.5956L19.7671 28.1583L7.73626 31.5956ZM115.117 26.0659H107.046V22.255H114.145V20.0132H107.046V16.3517H115.042V14.1099H104.58V28.233H115.117V26.0659ZM120.497 28.3077H118.031V14.1846H124.308C127.521 14.1846 129.539 15.9033 129.539 18.6681C129.539 20.9846 128.119 22.4044 126.176 22.9275L129.987 28.233H127.073L123.635 23.3011H120.571V28.3077H120.497ZM120.497 21.2088H124.084C125.877 21.2088 126.998 20.3121 126.998 18.8176C126.998 17.2484 125.877 16.4264 124.084 16.4264H120.497V21.2088ZM76.4837 28.3077H73.943L80.1453 14.1099H82.4617L88.664 28.3077H86.0485L84.6287 24.8703H77.978L76.4837 28.3077ZM78.8749 22.7033H83.7321L81.2661 17.0242L78.8749 22.7033ZM13.1165 39.0682C13.1912 39.2176 13.2659 39.2923 13.3407 39.3671C13.5649 39.5913 13.7143 39.7407 13.9385 39.9649C15.433 41.3846 17.0769 42.6549 18.8703 43.7758C19.0945 43.9253 19.3934 44 19.6176 44C19.8418 44 20.1407 43.9253 20.3649 43.7758C22.1583 42.6549 23.8022 41.4593 25.2967 39.9649C25.5209 39.7407 25.6703 39.5913 25.8945 39.3671C25.9693 39.2923 26.044 39.2176 26.1187 39.0682C26.1187 39.0682 19.7671 37.2748 19.6176 37.2748C19.4681 37.2 13.1165 39.0682 13.1165 39.0682ZM50.1802 28.3077H44.9494V14.1846H50.1802C54.5892 14.1846 57.6528 17.2484 57.6528 21.2088C57.6528 25.1693 54.5892 28.3077 50.1802 28.3077ZM47.3406 26.0659H50.1055C53.0946 26.0659 54.9626 24.0484 54.9626 21.2835C54.9626 18.5187 53.0199 16.5011 50.1055 16.5011H47.3406V26.0659ZM100.994 33.6132L105.253 42.9539H104.132L103.011 40.4879H97.9298L96.8089 42.9539H95.7628L100.022 33.6132H100.994ZM102.637 39.5913L100.545 34.8088L98.453 39.5913H102.637ZM92.8484 42.9539H93.8945V33.6879H92.8484V42.9539ZM105.253 34.6594H108.391V43.0286H109.438V34.6594H112.576V33.6879H105.253V34.6594ZM48.8351 33.6132L53.0946 42.9539H51.9738L50.8529 40.4879H45.7715L44.6507 42.9539H43.6046L47.8638 33.6132H48.8351ZM50.4045 39.5913L48.3122 34.8088L46.2197 39.5913H50.4045ZM93.5958 28.3077H91.1299V14.1846H96.6594C99.9473 14.1846 102.04 16.0527 102.04 18.8923C102.04 22.1055 99.4991 23.7495 96.4352 23.7495H93.6706V28.3077H93.5958ZM93.5958 21.5077H96.5099C98.3782 21.5077 99.5738 20.4615 99.5738 18.9671C99.5738 17.3231 98.3782 16.4264 96.5099 16.4264H93.5958V21.5077ZM115.565 38.7693H120.646V37.7978H115.565V34.5847H121.244V33.6132H114.519V42.9539H121.319V41.9825H115.565V38.7693ZM126.774 37.7978C124.756 37.3495 124.233 36.9011 124.233 36.0044C124.233 35.1825 124.98 34.5099 126.251 34.5099C127.222 34.5099 128.044 34.8088 128.941 35.5561L129.539 34.7341C128.567 33.9869 127.596 33.6132 126.251 33.6132C124.457 33.6132 123.187 34.6594 123.187 36.1539C123.187 37.7231 124.159 38.3956 126.325 38.844C128.268 39.2923 128.717 39.7407 128.717 40.6374C128.717 41.6088 127.895 42.2067 126.624 42.2067C125.354 42.2067 124.382 41.7583 123.411 40.8617L122.739 41.6088C123.86 42.5802 125.055 43.1034 126.55 43.1034C128.418 43.1034 129.763 42.0573 129.763 40.4879C129.763 39.0682 128.866 38.2462 126.774 37.7978ZM66.3957 37.7978C64.3782 37.3495 63.855 36.9011 63.855 36.0044C63.855 35.1825 64.6022 34.5099 65.8725 34.5099C66.8442 34.5099 67.6661 34.8088 68.5627 35.5561L69.1606 34.7341C68.189 33.9869 67.2176 33.6132 65.8725 33.6132C64.0793 33.6132 62.8089 34.6594 62.8089 36.1539C62.8089 37.7231 63.7803 38.3956 65.9473 38.844C67.8903 39.2923 68.3385 39.7407 68.3385 40.6374C68.3385 41.6088 67.5166 42.2067 66.2462 42.2067C64.9759 42.2067 64.0045 41.7583 63.0331 40.8617L62.3605 41.6088C63.4813 42.5802 64.6769 43.1034 66.1715 43.1034C68.0398 43.1034 69.3846 42.0573 69.3846 40.4879C69.4593 39.0682 68.4879 38.2462 66.3957 37.7978ZM87.1694 42.2067C85.1519 42.2067 83.5826 40.4879 83.5826 38.3209C83.5826 36.1539 85.1519 34.5099 87.1694 34.5099C88.4397 34.5099 89.3363 35.033 90.0835 35.7803L90.8309 35.033C89.9343 34.1363 88.8879 33.5385 87.1694 33.5385C84.4045 33.5385 82.4617 35.7055 82.4617 38.3956C82.4617 41.0859 84.4792 43.1781 87.0946 43.1781C88.8134 43.1781 89.8595 42.5054 90.8309 41.5341L90.1582 40.8617C89.3363 41.6835 88.4397 42.2067 87.1694 42.2067ZM58.0265 37.7978C56.0087 37.3495 55.4858 36.9011 55.4858 36.0044C55.4858 35.1825 56.233 34.5099 57.5033 34.5099C58.4747 34.5099 59.2969 34.8088 60.1935 35.5561L60.7911 34.7341C59.8198 33.9869 58.8484 33.6132 57.5033 33.6132C55.7101 33.6132 54.4397 34.6594 54.4397 36.1539C54.4397 37.7231 55.4111 38.3956 57.5781 38.844C59.5211 39.2923 59.9693 39.7407 59.9693 40.6374C59.9693 41.6088 59.1474 42.2067 57.877 42.2067C56.6067 42.2067 55.6353 41.7583 54.6636 40.8617L53.9913 41.6088C55.1121 42.5802 56.3077 43.1034 57.8023 43.1034C59.6703 43.1034 61.0154 42.0573 61.0154 40.4879C61.0901 39.0682 60.1187 38.2462 58.0265 37.7978ZM80.6682 38.3209C80.6682 40.9364 78.7254 43.1781 75.8858 43.1781C73.0461 43.1781 71.1781 40.9364 71.1781 38.3956C71.1781 35.7803 73.1209 33.5385 75.9605 33.5385C78.8002 33.5385 80.6682 35.7055 80.6682 38.3209ZM79.6221 38.3209C79.6221 36.2286 78.0527 34.4352 75.9605 34.4352C73.8683 34.4352 72.299 36.1539 72.299 38.3209C72.299 40.4879 73.8683 42.2067 75.9605 42.2067C78.0527 42.2067 79.6221 40.4879 79.6221 38.3209ZM72.5979 28.3077H69.6835L66.2462 23.3758H63.1826V28.3077H60.7167V14.1846H66.9934C70.2067 14.1846 72.2242 15.9033 72.2242 18.6681C72.2242 20.9846 70.8044 22.4044 68.8617 22.9275L72.5979 28.3077ZM66.7694 21.2088C68.5627 21.2088 69.6835 20.3121 69.6835 18.8176C69.6835 17.2484 68.5627 16.4264 66.7694 16.4264H63.1826V21.1341H66.7694V21.2088Z" fill="#081C3A"/>
</svg>
