<svg width="136" height="54" viewBox="0 0 136 54" fill="none" xmlns="http://www.w3.org/2000/svg">
<g clip-path="url(#clip0_672_2712)">
<path d="M40.2915 20.3043H34.6842C34.6067 20.3043 34.4376 20.3043 34.3179 20.1846C34.2052 20.0718 34.1981 19.931 34.1981 19.8253C34.2122 19.2124 34.2052 18.6066 34.1981 17.9938C34.1981 17.9022 34.2052 17.7613 34.3108 17.6556C34.4306 17.5359 34.5856 17.5359 34.656 17.5359H43.0951C44.032 17.5359 44.9618 17.5359 45.8987 17.5359C46.0185 17.5359 46.1664 17.55 46.2791 17.6627C46.4059 17.7895 46.3989 17.9656 46.3989 18.0431C46.3848 18.6348 46.3848 19.2265 46.3989 19.8112C46.3989 19.9098 46.3918 20.0578 46.2791 20.1775C46.1523 20.3043 45.9833 20.3043 45.9058 20.3043H40.2985H40.2915Z" fill="#6C94EC"/>
<path d="M45.8987 17.8177C46.0748 17.8177 46.1171 17.867 46.1171 18.0361C46.103 18.6278 46.103 19.2266 46.1171 19.8183C46.1171 19.9944 46.0608 20.0226 45.9058 20.0226C44.039 20.0226 42.1652 20.0226 40.2985 20.0226C38.4318 20.0226 36.558 20.0226 34.6912 20.0226C34.5433 20.0226 34.4869 19.9944 34.4869 19.8324C34.501 19.2196 34.494 18.6067 34.4869 17.9938C34.4869 17.853 34.5292 17.8248 34.663 17.8248C35.5999 17.8248 36.5439 17.8248 37.4808 17.8248C38.4177 17.8248 39.3546 17.8248 40.2915 17.8248C41.2283 17.8248 42.1582 17.8248 43.0951 17.8248C44.032 17.8248 44.9689 17.8248 45.8987 17.8248M45.8987 17.2612C44.9618 17.2612 44.032 17.2612 43.0951 17.2612H41.6933H40.2915H38.8826H37.4737C36.5368 17.2612 35.5929 17.2612 34.656 17.2612C34.5715 17.2612 34.3108 17.2612 34.1065 17.4655C33.9727 17.5994 33.9093 17.7825 33.9093 18.0009C33.9163 18.7053 33.9163 19.283 33.9093 19.8254C33.9093 20.0578 33.9727 20.241 34.1065 20.3819C34.3108 20.5932 34.5715 20.5932 34.6771 20.5932C36.5509 20.5932 38.4177 20.5932 40.2844 20.5932C42.1512 20.5932 44.0249 20.5932 45.8917 20.5932C45.9903 20.5932 46.258 20.5932 46.4693 20.3819C46.6102 20.241 46.6736 20.0508 46.6666 19.8113C46.6525 19.2266 46.6525 18.6349 46.6666 18.0502C46.6666 17.9586 46.6736 17.6839 46.4623 17.4726C46.251 17.2612 45.9762 17.2612 45.8846 17.2612H45.8987Z" fill="#212121"/>
<path d="M36.4523 35.0129C36.1635 35.0129 35.8817 35.0058 35.5929 35.0058C35.29 35.0058 34.9871 35.0058 34.6842 35.0129C34.4517 35.0129 34.2052 34.9283 34.2052 34.5339C34.2052 33.0968 34.2052 31.6527 34.2052 30.2157V29.0886V28.046C34.2052 26.5879 34.2052 25.1226 34.2052 23.6645C34.2052 23.277 34.4588 23.1925 34.6701 23.1925C36.6566 23.1925 38.636 23.1925 40.6225 23.1925H43.9475C44.039 23.1925 44.1729 23.2066 44.2785 23.3123C44.3913 23.432 44.3913 23.587 44.3913 23.6433C44.3842 24.2421 44.3772 24.8409 44.3913 25.4326C44.3913 25.5383 44.3842 25.6932 44.2715 25.8059C44.1588 25.9187 44.0179 25.9327 43.8911 25.9327C42.7077 25.9327 36.9525 25.9257 36.9525 25.9257C36.9525 27.5036 36.9525 34.4986 36.9525 34.4986C36.9525 34.9143 36.6989 34.9988 36.4805 34.9988H36.4523V35.0129Z" fill="#6C94EC"/>
<path d="M34.6631 23.4672C36.6214 23.4672 38.5797 23.4672 40.5451 23.4672C41.6792 23.4672 42.8063 23.4672 43.9404 23.4672C44.0743 23.4672 44.1024 23.5025 44.1024 23.6293C44.0954 24.228 44.0884 24.8338 44.1024 25.4326C44.1024 25.6158 44.0531 25.651 43.8841 25.651C41.5594 25.651 39.2348 25.651 36.9102 25.6439C36.713 25.6439 36.6636 25.6862 36.6636 25.8905C36.6707 28.7646 36.6636 31.6316 36.6707 34.5057C36.6707 34.6607 36.6496 34.7241 36.4805 34.7241C36.4734 34.7241 36.4664 34.7241 36.4594 34.7241C36.1705 34.717 35.8817 34.71 35.5999 34.71C35.29 34.71 34.9871 34.71 34.6771 34.7241C34.6771 34.7241 34.6701 34.7241 34.6631 34.7241C34.5081 34.7241 34.4869 34.6677 34.4869 34.5268C34.4869 32.7094 34.4869 30.899 34.4869 29.0816C34.4869 27.2712 34.4869 25.4678 34.4869 23.6574C34.4869 23.5095 34.5222 23.4743 34.6701 23.4743M34.6701 22.9107C34.2122 22.9107 33.9234 23.1995 33.9234 23.6574C33.9234 25.1086 33.9234 26.5526 33.9234 27.9967V29.0816V29.6451V30.1734C33.9234 31.6246 33.9234 33.0757 33.9234 34.5268C33.9234 35.0904 34.3038 35.2946 34.6631 35.2946C34.9941 35.2876 35.297 35.2806 35.5999 35.2806C35.8817 35.2806 36.1635 35.2806 36.4453 35.2876H36.4523H36.4805C36.8468 35.2876 37.2342 35.0833 37.2342 34.5057C37.2342 33.2025 37.2342 31.8922 37.2342 30.589C37.2342 29.1309 37.2342 27.6727 37.2342 26.2145C38.305 26.2145 39.3546 26.2145 40.4042 26.2145C41.5665 26.2145 42.7288 26.2145 43.8911 26.2145C43.9968 26.2145 44.2645 26.2145 44.4758 26.0032C44.6871 25.7919 44.6801 25.5171 44.6801 25.4256C44.666 24.8127 44.673 24.2069 44.6801 23.6433C44.6801 23.5588 44.6801 23.3123 44.4828 23.108C44.349 22.9741 44.1729 22.9037 43.9545 22.9037H40.5591C38.6008 22.9037 36.6425 22.9037 34.6771 22.9037L34.6701 22.9107Z" fill="#212121"/>
<path d="M52.3865 35.0128C52.1118 35.0058 51.8371 34.9988 51.5624 34.9988C51.2665 34.9988 50.9706 34.9988 50.6748 35.0058C50.548 35.0058 50.4071 34.9917 50.2944 34.872C50.1958 34.7663 50.1817 34.6254 50.1817 34.5197C50.1817 30.6031 50.1817 26.6794 50.1817 22.7628V19.5506C50.1817 19.0504 50.1817 18.5573 50.1817 18.0572C50.1817 17.9445 50.1887 17.7895 50.3085 17.6697C50.4212 17.55 50.5691 17.5359 50.6889 17.5359C51.0129 17.5429 51.3158 17.55 51.6117 17.55C51.8934 17.55 52.1682 17.55 52.4499 17.5429C52.6401 17.5429 52.929 17.6063 52.929 18.0219C52.929 20.0578 52.929 26.2779 52.929 26.2779V27.9756C52.929 30.1452 52.929 32.3078 52.929 34.4775C52.929 34.8367 52.7599 35.0199 52.4288 35.0199H52.3936L52.3865 35.0128Z" fill="#6C94EC"/>
<path d="M50.6818 17.8177C50.6818 17.8177 50.6959 17.8177 50.703 17.8177C51.0059 17.8177 51.3088 17.8247 51.6047 17.8247C51.8864 17.8247 52.1612 17.8247 52.4429 17.8177H52.457C52.6049 17.8177 52.6331 17.874 52.6331 18.0149C52.6331 20.7692 52.6331 23.5165 52.6331 26.2708C52.6331 29.0252 52.6331 31.7372 52.6331 34.4704C52.6331 34.6536 52.6049 34.7311 52.4147 34.7311C52.4077 34.7311 52.3936 34.7311 52.3866 34.7311C52.1118 34.724 51.8301 34.717 51.5553 34.717C51.2595 34.717 50.9636 34.717 50.6678 34.724C50.6678 34.724 50.6537 34.724 50.6466 34.724C50.4987 34.724 50.4635 34.6818 50.4635 34.5197C50.4635 29.7085 50.4635 24.8972 50.4635 20.0859C50.4635 19.4097 50.4705 18.7264 50.4635 18.0431C50.4635 17.8529 50.5128 17.8106 50.6818 17.8106M50.6818 17.2471C50.5903 17.2471 50.3155 17.2471 50.1042 17.4654C49.8929 17.6838 49.8929 17.9656 49.8999 18.0572C49.907 18.5503 49.907 19.0434 49.8999 19.5435V20.0859V22.9741C49.8999 26.8203 49.8999 30.6665 49.8999 34.5197C49.8999 34.9917 50.1887 35.2876 50.6466 35.2876C50.9707 35.2876 51.2665 35.2805 51.5553 35.2805C51.8301 35.2805 52.0978 35.2805 52.3725 35.2946H52.3795H52.4147C52.5979 35.2946 53.1967 35.2383 53.1967 34.4704C53.1967 32.2867 53.1967 30.103 53.1967 27.9122V26.2708V24.2069C53.1967 22.1429 53.1967 20.0789 53.1967 18.0149C53.1967 17.4514 52.8163 17.2541 52.457 17.2541C52.1541 17.2541 51.8794 17.2612 51.6047 17.2612C51.3088 17.2612 51.0129 17.2612 50.71 17.2541H50.6818V17.2471Z" fill="#212121"/>
<path d="M60.5932 35.0129C60.086 35.0129 59.5858 35.0129 59.0787 35.0129H56.2187C55.8171 35.0129 55.4156 35.0129 55.007 35.0129C54.8943 35.0129 54.7534 34.9988 54.6407 34.8861C54.5139 34.7593 54.521 34.5902 54.521 34.5198C54.528 33.921 54.528 33.3222 54.521 32.7235C54.521 32.653 54.521 32.491 54.6337 32.3783C54.7534 32.2585 54.9155 32.2585 54.9648 32.2585C56.0073 32.2585 57.0499 32.2585 58.0924 32.2585H60.565C60.6425 32.2585 60.7975 32.2585 60.9172 32.3783C61.037 32.4981 61.0299 32.6601 61.0299 32.7164C61.0229 33.3293 61.0229 33.9492 61.0299 34.5691C61.0299 34.6184 61.0299 34.7804 60.9172 34.9002C60.7975 35.0199 60.6425 35.0199 60.5861 35.0199L60.5932 35.0129Z" fill="#6C94EC"/>
<path d="M54.9718 32.5333C56.0003 32.5333 57.0288 32.5333 58.0573 32.5333C58.8955 32.5333 59.7338 32.5333 60.5791 32.5333C60.7059 32.5333 60.7623 32.5544 60.7623 32.7023C60.7552 33.3222 60.7552 33.9421 60.7623 34.562C60.7623 34.6959 60.72 34.7241 60.6003 34.7241C60.079 34.7241 59.5577 34.7241 59.0364 34.7241C58.6208 34.7241 58.2052 34.7241 57.7896 34.7241C57.2824 34.7241 56.7822 34.7241 56.275 34.7241C55.8594 34.7241 55.4368 34.7241 55.0212 34.7241C55.0212 34.7241 55.0212 34.7241 55.0141 34.7241C54.8521 34.7241 54.8169 34.6677 54.8239 34.5198C54.831 33.921 54.831 33.3222 54.8239 32.7164C54.8239 32.5896 54.838 32.5333 54.9859 32.5333M54.9859 31.9697C54.7676 31.9697 54.5844 32.0402 54.4506 32.174C54.2533 32.3783 54.2533 32.6319 54.2533 32.7235C54.2533 33.3152 54.2604 33.914 54.2533 34.5057C54.2533 34.5973 54.2533 34.8649 54.4576 35.0763C54.5915 35.2172 54.7817 35.2876 55.0141 35.2876C55.4438 35.2876 55.8594 35.2876 56.2821 35.2876H57.0358H57.7966H58.4236H59.0505C59.5718 35.2876 60.086 35.2876 60.6073 35.2876C60.6989 35.2876 60.9454 35.2876 61.1427 35.0833C61.2765 34.9495 61.3399 34.7734 61.3399 34.555C61.3329 33.8646 61.3329 33.2588 61.3399 32.7094C61.3399 32.491 61.2836 32.3149 61.1497 32.174C60.9454 31.9697 60.6918 31.9697 60.6003 31.9697C59.762 31.9697 58.9237 31.9697 58.0784 31.9697C57.0499 31.9697 56.0214 31.9697 54.993 31.9697H54.9859Z" fill="#212121"/>
<path d="M79.0141 28.4195H78.056C77.9786 28.4195 77.8447 28.4195 77.7391 28.3068C77.6897 28.2575 77.6334 28.1659 77.6404 28.018C77.6404 27.8348 77.6404 27.6517 77.6404 27.4615C77.6404 26.9895 77.6404 26.4964 77.7602 26.0033C78.1406 24.4888 79.479 23.2842 81.0147 23.0869C81.2612 23.0588 81.5007 23.0447 81.7473 23.0447H82.3672C82.4869 23.0447 82.6137 23.0447 82.7335 23.0447C82.8744 23.0447 82.9871 23.0517 83.0998 23.0517H83.7549C83.9733 23.0517 84.2621 23.0517 84.5509 23.094C85.5371 23.249 86.3683 23.735 87.0235 24.5451C87.0516 24.5803 87.1432 24.693 87.115 24.841C87.101 24.9396 87.0446 25.0241 86.9389 25.0875C86.3965 25.4538 85.8541 25.8272 85.3117 26.1935C85.2342 26.2498 85.1567 26.271 85.0722 26.271C84.9665 26.271 84.8679 26.2287 84.7834 26.1371C84.5439 25.8906 84.248 25.7779 83.8535 25.7779C83.5647 25.7779 83.3111 25.7779 83.0505 25.7779H81.5852C80.8879 25.7779 80.3807 26.2851 80.3807 26.9825C80.3807 27.3065 80.3807 27.6376 80.3807 27.9687C80.3807 28.018 80.3807 28.1659 80.275 28.2857C80.1623 28.3984 80.0144 28.3984 79.9651 28.3984C79.9651 28.3984 79.324 28.3984 79.007 28.3984L79.0141 28.4195Z" fill="#6C94EC"/>
<path d="M82.7546 23.3334C82.8744 23.3334 82.9871 23.3405 83.1068 23.3405C83.3252 23.3405 83.5436 23.3405 83.762 23.3405C84.0156 23.3405 84.2621 23.3475 84.5157 23.3898C85.4596 23.5377 86.2134 23.9956 86.8122 24.7352C86.8615 24.7916 86.8685 24.8268 86.7981 24.8691C86.2486 25.2354 85.7062 25.6087 85.1638 25.9821C85.1356 26.0032 85.1074 26.0102 85.0863 26.0102C85.0581 26.0102 85.0299 25.9962 84.9947 25.9609C84.6848 25.6439 84.2973 25.5171 83.8606 25.5171C83.8535 25.5171 83.8394 25.5171 83.8324 25.5171C83.5718 25.5171 83.3182 25.5171 83.0575 25.5171C82.6419 25.5171 82.2263 25.5171 81.8036 25.5171C81.7332 25.5171 81.6628 25.5171 81.5923 25.5171C80.7399 25.5171 80.113 26.1511 80.106 27.0035C80.106 27.3346 80.106 27.6657 80.106 27.9897C80.106 28.0954 80.0778 28.1306 79.9721 28.1306C79.9721 28.1306 79.9721 28.1306 79.9651 28.1306C79.6481 28.1306 79.3311 28.1306 79.0141 28.1306C78.6971 28.1306 78.3801 28.1306 78.0631 28.1306C78.0631 28.1306 78.049 28.1306 78.042 28.1306C77.9715 28.1306 77.9222 28.1306 77.9222 28.0249C77.9434 27.3768 77.8729 26.7217 78.0349 26.0736C78.3871 24.6648 79.6129 23.5518 81.0569 23.3686C81.2894 23.3405 81.5219 23.3334 81.7543 23.3334C81.9586 23.3334 82.1699 23.3334 82.3742 23.3334C82.501 23.3334 82.6278 23.3334 82.7617 23.3264M82.7617 22.7628H82.7335C82.6137 22.7699 82.501 22.7699 82.3813 22.7699C82.2827 22.7699 82.177 22.7699 82.0784 22.7699C81.9727 22.7699 81.867 22.7699 81.7614 22.7699C81.5571 22.7699 81.2824 22.7699 80.9935 22.8121C79.317 23.0305 77.9081 24.2844 77.4996 25.9398C77.3657 26.4681 77.3728 26.9753 77.3728 27.4684C77.3728 27.6516 77.3728 27.8277 77.3728 28.0108C77.3657 28.2574 77.4643 28.4194 77.5559 28.5039C77.7461 28.7012 77.9786 28.7012 78.0561 28.7012H79.0282C79.3452 28.7012 79.6622 28.7012 79.9721 28.7012C80.1975 28.7012 80.3666 28.6378 80.4934 28.5039C80.6202 28.3701 80.6836 28.194 80.6836 27.9827C80.6836 27.6586 80.6836 27.3346 80.6836 27.0105C80.6836 26.4681 81.071 26.0807 81.6134 26.0807H81.8248H82.4517H83.0787C83.3393 26.0807 83.5999 26.0807 83.8606 26.0807C84.2058 26.0807 84.4312 26.1652 84.6073 26.3554C84.7834 26.5386 84.9736 26.5738 85.1004 26.5738C85.2413 26.5738 85.3681 26.5315 85.4949 26.447C86.0373 26.0736 86.5797 25.7073 87.1221 25.341C87.3334 25.2002 87.3968 25.024 87.418 24.8972C87.4461 24.7141 87.3898 24.545 87.263 24.383C86.5656 23.5236 85.678 23.0023 84.6143 22.8333C84.3044 22.7839 84.0015 22.7769 83.776 22.7769C83.6633 22.7769 83.5506 22.7769 83.4379 22.7769C83.3323 22.7769 83.2266 22.7769 83.1209 22.7769C83.0153 22.7769 82.9026 22.7769 82.7969 22.7699H82.7687L82.7617 22.7628Z" fill="#212121"/>
<path d="M113.524 20.8468H112.573C112.524 20.8468 112.376 20.8468 112.263 20.7341C112.151 20.6214 112.151 20.4734 112.151 20.4241C112.151 20.1917 112.151 19.9662 112.151 19.7338V19.1914C112.151 18.973 112.151 18.7546 112.151 18.5362C112.151 18.4799 112.151 18.3249 112.263 18.2122C112.376 18.0995 112.524 18.0995 112.573 18.0995C112.897 18.0995 113.214 18.0995 113.531 18.0995C113.848 18.0995 114.489 18.0995 114.489 18.0995C114.539 18.0995 114.687 18.0995 114.792 18.2122C114.905 18.3249 114.898 18.4728 114.898 18.5221C114.898 19.1491 114.898 19.7831 114.898 20.4171C114.898 20.6848 114.736 20.8468 114.468 20.8468H113.517H113.524Z" fill="#6C94EC"/>
<path d="M114.503 18.3883C114.616 18.3883 114.63 18.4306 114.63 18.5221C114.63 19.1561 114.63 19.7901 114.63 20.4241C114.63 20.5368 114.588 20.572 114.482 20.572C114.165 20.572 113.848 20.572 113.531 20.572C113.214 20.572 112.897 20.572 112.58 20.572C112.475 20.572 112.446 20.5368 112.446 20.4382C112.446 20.1141 112.446 19.7901 112.446 19.4731C112.446 19.1561 112.446 18.8532 112.446 18.5433C112.446 18.4376 112.468 18.3953 112.587 18.3953C112.904 18.3953 113.228 18.3953 113.545 18.3953C113.862 18.3953 114.186 18.3953 114.503 18.3953M114.503 17.8318C114.186 17.8318 113.869 17.8318 113.545 17.8318C113.221 17.8318 112.911 17.8318 112.587 17.8318C112.376 17.8318 112.2 17.8952 112.073 18.029C111.876 18.2263 111.883 18.4728 111.883 18.5503C111.883 18.7687 111.883 18.9871 111.883 19.2054V19.4731V19.7549C111.883 19.9803 111.883 20.2057 111.883 20.4311C111.883 20.6425 111.946 20.8115 112.073 20.9454C112.2 21.0792 112.376 21.1426 112.58 21.1426C112.897 21.1426 113.214 21.1426 113.531 21.1426C113.848 21.1426 114.165 21.1426 114.475 21.1426C114.905 21.1426 115.194 20.8608 115.194 20.4311C115.194 19.7972 115.194 19.1702 115.194 18.5362C115.194 18.3319 115.137 18.1629 115.011 18.029C114.884 17.8952 114.715 17.8318 114.503 17.8318Z" fill="#212121"/>
<path d="M92.2715 35.0059C91.9686 35.0059 91.6657 34.9988 91.3557 34.9988C91.0669 34.9988 90.7852 34.9988 90.4963 35.0059H90.4822C90.3907 35.0059 90.2216 35.0059 90.1019 34.858C90.0173 34.7523 90.0032 34.6255 90.0032 34.5128C90.0032 31.2794 90.0032 28.0461 90.0032 24.8128V22.2627C90.0032 20.8398 90.0032 19.4168 90.0032 17.9939C90.0032 17.691 90.1653 17.5289 90.4611 17.5289C90.7711 17.5289 91.074 17.536 91.3698 17.536C91.6657 17.536 91.9686 17.536 92.2645 17.5289C92.4899 17.5289 92.7435 17.6135 92.7435 18.0079C92.7435 20.6496 92.7435 23.2912 92.7435 25.9258V27.6516L93.0534 27.3487C94.3637 26.0666 95.6739 24.7846 96.9771 23.4955C97.1532 23.3264 97.3293 23.2489 97.5618 23.2489C97.9704 23.2489 98.3719 23.2489 98.7664 23.2489H100.365L100.591 23.5589L100.45 23.7772L100.112 24.1013C99.9075 24.3056 99.6962 24.5028 99.4919 24.7071C97.9563 26.2498 93.5606 30.6525 93.5606 30.6525C93.307 30.9061 93.0605 31.1597 92.7998 31.4062C92.7435 31.4556 92.7294 31.4908 92.7294 31.5753V32.7658C92.7294 33.3434 92.7294 33.9281 92.7294 34.5057C92.7294 34.6044 92.7223 34.7453 92.6096 34.858C92.504 34.9636 92.3631 34.9777 92.2715 34.9777H92.2433L92.2715 35.0059Z" fill="#6C94EC"/>
<path d="M90.4682 17.8177C90.4682 17.8177 90.4752 17.8177 90.4823 17.8177C90.7852 17.8177 91.081 17.8247 91.3839 17.8247C91.6868 17.8247 91.9827 17.8247 92.2856 17.8177C92.2856 17.8177 92.2856 17.8177 92.2927 17.8177C92.4476 17.8177 92.4758 17.867 92.4758 18.0149C92.4758 21.375 92.4758 24.7352 92.4758 28.0953V28.2926C92.6096 28.2433 92.666 28.1446 92.7435 28.0742C94.2298 26.6231 95.7092 25.1649 97.1885 23.7067C97.3012 23.594 97.4139 23.5447 97.5759 23.5447C97.5759 23.5447 97.5759 23.5447 97.5829 23.5447C97.9845 23.5447 98.386 23.5447 98.7875 23.5447C99.2665 23.5447 99.7526 23.5447 100.239 23.5447C100.253 23.5658 100.26 23.5799 100.274 23.594C99.9569 23.904 99.6328 24.2139 99.3158 24.5309C97.4139 26.4329 95.5119 28.3419 93.617 30.2509C93.2929 30.5749 92.9689 30.9131 92.6308 31.23C92.511 31.3428 92.4688 31.4555 92.4758 31.6104C92.4758 32.5896 92.4758 33.5617 92.4758 34.5409C92.4758 34.6888 92.4335 34.7311 92.2997 34.7311C92.2997 34.7311 92.2856 34.7311 92.2786 34.7311C91.9686 34.7311 91.6587 34.724 91.3487 34.724C91.0669 34.724 90.7781 34.724 90.4964 34.7311H90.4823C90.3273 34.7311 90.2991 34.6747 90.2991 34.5197C90.2991 30.6947 90.2991 26.8767 90.2991 23.0516C90.2991 21.368 90.2991 19.6844 90.2991 18.0008C90.2991 17.8529 90.3343 17.8177 90.4752 17.8177M90.4752 17.2541C90.0244 17.2541 89.7356 17.55 89.7356 18.0008C89.7356 19.4026 89.7356 20.8115 89.7356 22.2133V23.0516V24.9536C89.7356 28.1376 89.7356 31.3287 89.7356 34.5127C89.7356 35.0833 90.123 35.2876 90.4823 35.2876C90.7922 35.2876 91.0669 35.2805 91.3487 35.2805C91.6587 35.2805 91.9616 35.2805 92.2715 35.2876C92.5251 35.2876 92.7012 35.2171 92.8351 35.0833C93.0394 34.879 93.0394 34.6113 93.0323 34.5268C93.0323 33.9492 93.0323 33.3715 93.0323 32.7939C93.0323 32.3994 93.0323 32.012 93.0323 31.6175C93.2929 31.3709 93.5465 31.1173 93.7931 30.8637L94.0115 30.6454L95.5119 29.1379C96.9137 27.7361 98.3085 26.3272 99.7103 24.9254C99.9217 24.714 100.133 24.5098 100.344 24.3055L100.661 23.9955L101.021 23.6433L100.704 23.2418L100.535 23.0023L100.225 22.9741H99.499H98.7734C98.3719 22.9741 97.9704 22.9741 97.5759 22.9741C97.2519 22.9741 97.0053 23.0798 96.7799 23.2981C95.533 24.5309 94.2792 25.7566 93.0253 26.9823V25.9257C93.0253 23.2841 93.0253 20.6495 93.0253 18.0079C93.0253 17.4443 92.6378 17.2471 92.2786 17.2471C91.9616 17.2471 91.6657 17.2541 91.3698 17.2541C91.074 17.2541 90.7711 17.2541 90.4752 17.2471H90.4611L90.4752 17.2541Z" fill="#212121"/>
<path d="M68.039 35.013C66.6583 35.013 65.5524 34.4705 64.7423 33.4069C64.2351 32.7447 63.9815 31.9769 63.9745 31.1245C63.9745 30.7089 63.9745 30.2933 63.9745 29.8706V27.2149C63.9815 25.2284 65.4185 23.5941 67.3769 23.3264C67.5107 23.3053 67.6516 23.3053 67.7925 23.3053C67.7925 23.3053 68.0954 23.3053 68.1588 23.3053C68.356 23.3053 68.5603 23.411 68.5603 23.6998V23.8054C68.5603 24.4183 68.5603 25.0241 68.5603 25.637C68.5603 25.8906 68.4053 26.0455 68.1658 26.0455H67.9686C67.8559 26.0455 67.7291 26.0455 67.6164 26.0737C67.0881 26.2076 66.7358 26.6584 66.7288 27.2008V31.04C66.7288 31.7233 67.2289 32.2375 67.9193 32.2445C68.4335 32.2586 68.5603 32.3854 68.5603 32.8926V33.3012C68.5603 33.7098 68.5603 34.1183 68.5603 34.5269C68.5603 34.5973 68.5603 34.7523 68.4476 34.8721C68.3419 34.9777 68.2081 34.9918 68.1165 34.9918H68.0461L68.039 35.013Z" fill="#6C94EC"/>
<path d="M68.1729 23.5869C68.2574 23.5869 68.2715 23.6291 68.2715 23.7066C68.2715 24.3547 68.2715 25.0028 68.2715 25.6438C68.2715 25.7354 68.2433 25.7706 68.1588 25.7706C68.1588 25.7706 68.1588 25.7706 68.1517 25.7706C68.0883 25.7706 68.0249 25.7706 67.9615 25.7706C67.8207 25.7706 67.6798 25.7706 67.5389 25.8129C66.8908 25.9749 66.44 26.5455 66.44 27.2147C66.44 28.4968 66.44 29.7788 66.44 31.0538C66.44 31.8992 67.0599 32.5261 67.9052 32.5402C68.1494 32.5449 68.2715 32.667 68.2715 32.9065C68.2715 33.456 68.2715 34.0054 68.2715 34.5478C68.2715 34.6817 68.2504 34.7239 68.1024 34.731C68.0813 34.731 68.0602 34.731 68.032 34.731C66.7711 34.731 65.7355 34.259 64.9607 33.2376C64.4887 32.6177 64.2562 31.9062 64.2492 31.1243C64.2421 30.4621 64.2492 29.8 64.2492 29.1448C64.2492 28.5038 64.2492 27.8628 64.2492 27.2217C64.2562 25.3973 65.5947 23.8616 67.405 23.615C67.5318 23.6009 67.6516 23.5939 67.7784 23.5939C67.8418 23.5939 67.9052 23.5939 67.9686 23.5939C68.032 23.5939 68.0954 23.5939 68.1588 23.5939C68.1588 23.5939 68.1658 23.5939 68.1729 23.5939M68.1729 23.0304H68.1377C68.0813 23.0304 68.0249 23.0304 67.9756 23.0304H67.8841H67.7854C67.6446 23.0304 67.4966 23.0304 67.3346 23.0585C65.2354 23.3474 63.6997 25.1014 63.6927 27.2217C63.6927 27.6514 63.6927 28.0811 63.6927 28.5038V29.1448V29.8634C63.6927 30.286 63.6927 30.7087 63.6927 31.1313C63.6927 32.04 63.9745 32.8642 64.5169 33.5757C65.3833 34.7169 66.5668 35.2875 68.039 35.2875H68.1165C68.3349 35.2875 68.518 35.217 68.6448 35.0761C68.8421 34.8719 68.835 34.6253 68.835 34.5337C68.835 34.1252 68.835 33.7166 68.835 33.308V32.8995C68.835 32.2373 68.5885 31.9837 67.9193 31.9696C67.3769 31.9555 67.0035 31.5751 67.0035 31.0468V29.7647C67.0035 28.9124 67.0035 28.06 67.0035 27.2076C67.0035 26.7991 67.2782 26.4539 67.6798 26.3553C67.7643 26.3341 67.8629 26.3341 67.9615 26.3341H68.0743H68.1447C68.5603 26.3341 68.835 26.0524 68.835 25.6438C68.835 24.9957 68.835 24.3476 68.835 23.7066C68.835 23.2346 68.4899 23.0233 68.1729 23.0233V23.0304Z" fill="#212121"/>
<path d="M70.5891 35.013C70.42 35.013 70.1382 34.9496 70.1453 34.5481C70.1453 34.1395 70.1453 33.7309 70.1453 33.3153V32.9067C70.1453 32.3996 70.2721 32.2728 70.7863 32.2587C71.4767 32.2446 71.9768 31.7374 71.9768 31.0541V27.2149C71.9768 26.6796 71.6176 26.2217 71.0892 26.0878C70.9765 26.0597 70.8497 26.0526 70.737 26.0526H70.5468C70.413 26.0526 70.3144 26.0174 70.2369 25.9399C70.1382 25.8342 70.1382 25.6934 70.1382 25.6511C70.1382 25.003 70.1382 24.3549 70.1382 23.7139C70.1382 23.418 70.3425 23.3124 70.5186 23.3124C70.6032 23.3124 70.8145 23.3124 70.8145 23.3124H70.9061C71.047 23.3124 71.1808 23.3124 71.3217 23.3335C73.28 23.6012 74.71 25.2355 74.7241 27.222V29.8847C74.7241 30.3003 74.7241 30.716 74.7241 31.1316C74.7241 31.9839 74.4564 32.7447 73.9563 33.4139C73.1462 34.4776 72.0402 35.02 70.6595 35.02H70.5891V35.013Z" fill="#6C94EC"/>
<path d="M70.5257 23.5871C70.5257 23.5871 70.5327 23.5871 70.5398 23.5871C70.6032 23.5871 70.6666 23.5871 70.73 23.5871C70.7934 23.5871 70.8568 23.5871 70.9202 23.5871C71.047 23.5871 71.1738 23.5871 71.2935 23.6082C73.1039 23.8548 74.4423 25.3904 74.4494 27.2149C74.4494 27.8559 74.4494 28.497 74.4494 29.138C74.4494 29.8002 74.4494 30.4553 74.4494 31.1174C74.4494 31.8994 74.2099 32.6108 73.7379 33.2307C72.963 34.2451 71.9275 34.7241 70.6666 34.7241C70.6454 34.7241 70.6243 34.7241 70.5961 34.7241C70.4482 34.7241 70.4271 34.6748 70.4271 34.541C70.4341 33.9915 70.4271 33.4421 70.4271 32.8997C70.4271 32.6602 70.5492 32.5381 70.7934 32.5334C71.6387 32.5193 72.2586 31.8853 72.2586 31.047C72.2586 29.7649 72.2586 28.4829 72.2586 27.2078C72.2586 26.5386 71.8078 25.9751 71.1597 25.806C71.0188 25.7708 70.8779 25.7638 70.737 25.7638C70.6736 25.7638 70.6102 25.7638 70.5468 25.7638C70.5468 25.7638 70.5468 25.7638 70.5398 25.7638C70.4552 25.7638 70.4271 25.7356 70.4271 25.637C70.4271 24.9889 70.4271 24.3408 70.4271 23.6998C70.4271 23.6223 70.4412 23.58 70.5257 23.58M70.5257 23.0165C70.2087 23.0165 69.8635 23.2278 69.8635 23.6998C69.8635 24.3479 69.8635 24.9889 69.8635 25.637C69.8635 26.0455 70.1453 26.3273 70.5398 26.3273H70.6243H70.737C70.8356 26.3273 70.9343 26.3273 71.0188 26.3555C71.4203 26.4612 71.688 26.7993 71.688 27.2078C71.688 28.0602 71.688 28.9126 71.688 29.7649V31.047C71.688 31.5824 71.3146 31.9628 70.7722 31.9698C70.103 31.9839 69.8565 32.2375 69.8565 32.8997V33.3082C69.8565 33.7168 69.8565 34.1254 69.8565 34.5339C69.8565 34.6255 69.8565 34.8791 70.0467 35.0764C70.1805 35.2102 70.3566 35.2806 70.575 35.2806H70.6525C72.1247 35.2806 73.3082 34.703 74.1746 33.5689C74.7171 32.8574 74.9918 32.0332 74.9988 31.1174C74.9988 30.6948 74.9988 30.2721 74.9988 29.8495V29.1309V28.4899C74.9988 28.0602 74.9988 27.6376 74.9988 27.2078C74.9847 25.0805 73.4561 23.3335 71.3569 23.0447C71.1949 23.0235 71.047 23.0165 70.9061 23.0165H70.8075H70.7159C70.6595 23.0165 70.6102 23.0165 70.5539 23.0165H70.5398H70.5186H70.5257Z" fill="#212121"/>
<path d="M122.28 35.013C120.9 35.013 119.794 34.4705 118.984 33.4069C118.476 32.7447 118.223 31.9769 118.216 31.1245C118.216 30.7018 118.216 30.2862 118.216 29.8636V27.2149C118.223 25.2354 119.653 23.5941 121.618 23.3264C121.752 23.3053 121.893 23.3053 122.034 23.3053C122.034 23.3053 122.337 23.3053 122.4 23.3053C122.597 23.3053 122.802 23.411 122.802 23.6998V23.9111C122.802 24.4887 122.802 25.0593 122.802 25.637C122.802 25.8906 122.647 26.0455 122.407 26.0455H122.21C122.097 26.0455 121.97 26.0455 121.858 26.0737C121.329 26.2076 120.977 26.6584 120.97 27.2008V31.04C120.97 31.7233 121.47 32.2375 122.161 32.2445C122.675 32.2586 122.802 32.3854 122.802 32.8926V33.2871C122.802 33.7027 122.802 34.1183 122.802 34.5339C122.802 34.6044 122.802 34.7594 122.689 34.8791C122.583 34.9848 122.449 34.9989 122.358 34.9989H122.287L122.28 35.013Z" fill="#6C94EC"/>
<path d="M122.414 23.5871C122.499 23.5871 122.513 23.6293 122.513 23.7068C122.513 24.3549 122.513 25.003 122.513 25.644C122.513 25.7356 122.485 25.7708 122.4 25.7708C122.4 25.7708 122.4 25.7708 122.393 25.7708C122.33 25.7708 122.266 25.7708 122.203 25.7708C122.062 25.7708 121.921 25.7708 121.78 25.8131C121.132 25.9751 120.681 26.5457 120.681 27.2149C120.681 28.497 120.681 29.779 120.681 31.0541C120.681 31.8994 121.301 32.5263 122.146 32.5404C122.391 32.5451 122.513 32.6672 122.513 32.9067C122.513 33.4562 122.513 34.0056 122.513 34.548C122.513 34.6819 122.492 34.7241 122.344 34.7312C122.323 34.7312 122.301 34.7312 122.273 34.7312C121.012 34.7312 119.977 34.2592 119.202 33.2378C118.73 32.6179 118.498 31.9064 118.49 31.1245C118.483 30.4623 118.49 29.8002 118.49 29.145C118.49 28.504 118.49 27.863 118.49 27.2219C118.498 25.3975 119.836 23.8618 121.646 23.6152C121.773 23.6012 121.893 23.5941 122.02 23.5941C122.083 23.5941 122.146 23.5941 122.21 23.5941C122.273 23.5941 122.337 23.5941 122.4 23.5941C122.4 23.5941 122.407 23.5941 122.414 23.5941M122.414 23.0306H122.379C122.323 23.0306 122.266 23.0306 122.217 23.0306H122.125H122.027C121.886 23.0306 121.738 23.0306 121.576 23.0587C119.477 23.3476 117.941 25.1016 117.934 27.2219C117.934 27.6516 117.934 28.0813 117.934 28.504V29.145V29.8636C117.934 30.2862 117.934 30.7089 117.934 31.1315C117.934 32.0403 118.216 32.8644 118.758 33.5759C119.625 34.7171 120.808 35.2877 122.28 35.2877H122.358C122.576 35.2877 122.759 35.2172 122.886 35.0764C123.083 34.8721 123.076 34.6255 123.076 34.5339C123.076 34.1254 123.076 33.7168 123.076 33.3082V32.8926C123.076 32.2305 122.83 31.9769 122.161 31.9628C121.618 31.9487 121.245 31.5683 121.245 31.04V29.7579C121.245 28.9055 121.245 28.0532 121.245 27.2008C121.245 26.7922 121.52 26.4471 121.921 26.3484C122.006 26.3273 122.104 26.3273 122.203 26.3273H122.316H122.386C122.802 26.3273 123.076 26.0455 123.076 25.637C123.076 24.9889 123.076 24.3408 123.076 23.6998C123.076 23.2278 122.731 23.0165 122.414 23.0165V23.0306Z" fill="#212121"/>
<path d="M124.83 35.013C124.739 35.013 124.598 34.9989 124.499 34.8932C124.387 34.7735 124.387 34.6185 124.387 34.5481C124.387 34.1465 124.387 33.738 124.387 33.3364V32.9067C124.387 32.3996 124.513 32.2728 125.028 32.2587C125.718 32.2446 126.218 31.7374 126.218 31.0541V27.2149C126.218 26.6796 125.859 26.2217 125.33 26.0878C125.218 26.0597 125.091 26.0526 124.978 26.0526H124.788C124.654 26.0526 124.556 26.0174 124.478 25.9399C124.38 25.8342 124.38 25.6934 124.38 25.6511C124.38 25.003 124.38 24.3549 124.38 23.7139C124.38 23.418 124.584 23.3124 124.76 23.3124C124.844 23.3124 125.056 23.3124 125.056 23.3124H125.147C125.288 23.3124 125.422 23.3124 125.563 23.3335C127.521 23.6012 128.951 25.2355 128.965 27.222V29.8847C128.965 30.3003 128.965 30.716 128.965 31.1316C128.965 31.9839 128.698 32.7447 128.198 33.4139C127.387 34.4776 126.281 35.02 124.901 35.02H124.83V35.013Z" fill="#6C94EC"/>
<path d="M124.767 23.5871C124.767 23.5871 124.774 23.5871 124.781 23.5871C124.844 23.5871 124.908 23.5871 124.971 23.5871C125.035 23.5871 125.098 23.5871 125.161 23.5871C125.288 23.5871 125.415 23.5871 125.535 23.6082C127.345 23.8548 128.684 25.3904 128.691 27.2149C128.691 27.8559 128.691 28.497 128.691 29.138C128.691 29.8002 128.691 30.4553 128.691 31.1174C128.691 31.8994 128.451 32.6108 127.979 33.2307C127.204 34.2451 126.169 34.7241 124.908 34.7241C124.887 34.7241 124.866 34.7241 124.837 34.7241C124.689 34.7241 124.668 34.6748 124.668 34.541C124.675 33.9915 124.668 33.4421 124.668 32.8997C124.668 32.6602 124.79 32.5381 125.035 32.5334C125.88 32.5193 126.5 31.8853 126.5 31.047C126.5 29.7649 126.5 28.4829 126.5 27.2078C126.5 26.5386 126.049 25.9751 125.401 25.806C125.26 25.7708 125.119 25.7638 124.978 25.7638C124.915 25.7638 124.851 25.7638 124.788 25.7638C124.788 25.7638 124.788 25.7638 124.781 25.7638C124.696 25.7638 124.668 25.7356 124.668 25.637C124.668 24.9889 124.668 24.3408 124.668 23.6998C124.668 23.6223 124.682 23.58 124.767 23.58M124.767 23.0165C124.45 23.0165 124.105 23.2278 124.105 23.6998C124.105 24.3479 124.105 24.9889 124.105 25.637C124.105 26.0455 124.387 26.3273 124.781 26.3273H124.866H124.978C125.077 26.3273 125.176 26.3273 125.26 26.3555C125.662 26.4612 125.929 26.7993 125.929 27.2078C125.929 28.0602 125.929 28.9126 125.929 29.7649V31.047C125.929 31.5824 125.556 31.9628 125.013 31.9698C124.344 31.9839 124.098 32.2375 124.098 32.8997V33.3153C124.098 33.7238 124.098 34.1324 124.098 34.541C124.098 34.6326 124.098 34.8862 124.288 35.0834C124.422 35.2172 124.598 35.2877 124.816 35.2877H124.894C126.366 35.2877 127.549 34.7101 128.416 33.5759C128.958 32.8644 129.233 32.0403 129.24 31.1245C129.24 30.7018 129.24 30.2792 129.24 29.8565V29.138V28.497C129.24 28.0673 129.24 27.6446 129.24 27.2149C129.226 25.0875 127.697 23.3405 125.598 23.0517C125.436 23.0306 125.288 23.0235 125.147 23.0235H125.049H124.957C124.901 23.0235 124.851 23.0235 124.795 23.0235H124.781H124.76L124.767 23.0165Z" fill="#212121"/>
<path d="M114.426 35.0129C114.144 35.0129 113.855 35.0058 113.574 35.0058C113.249 35.0058 112.608 35.0058 112.608 35.0058C112.538 35.0058 112.39 35.0058 112.277 34.8861C112.179 34.7804 112.165 34.6536 112.165 34.562C112.165 30.9483 112.165 27.3275 112.165 23.7138C112.165 23.5447 112.228 23.2629 112.63 23.2629C112.933 23.2629 113.235 23.2629 113.538 23.2629C113.841 23.2629 114.454 23.2629 114.454 23.2629C114.532 23.2629 114.687 23.2629 114.799 23.3827C114.919 23.5024 114.919 23.6645 114.919 23.7279C114.912 25.1367 114.912 26.5385 114.919 27.9474V30.2298C114.919 31.6598 114.919 33.0898 114.919 34.5198C114.919 34.9283 114.665 35.0129 114.454 35.0129H114.433H114.426Z" fill="#6C94EC"/>
<path d="M114.454 23.5518C114.588 23.5518 114.63 23.58 114.623 23.735C114.616 25.5454 114.623 27.3487 114.623 29.1591C114.623 30.9695 114.623 32.7376 114.623 34.5269C114.623 34.6748 114.602 34.7382 114.44 34.7382C114.44 34.7382 114.433 34.7382 114.426 34.7382C114.137 34.7382 113.848 34.7312 113.566 34.7312C113.25 34.7312 112.925 34.7312 112.608 34.7312C112.608 34.7312 112.608 34.7312 112.601 34.7312C112.482 34.7312 112.446 34.6959 112.446 34.5691C112.446 30.9554 112.446 27.3346 112.446 23.7209C112.446 23.573 112.496 23.5518 112.63 23.5518C112.933 23.5518 113.235 23.5518 113.538 23.5518C113.841 23.5518 114.144 23.5518 114.447 23.5518C114.447 23.5518 114.454 23.5518 114.461 23.5518M114.461 22.9883H114.44C114.137 22.9883 113.834 22.9883 113.538 22.9883C113.242 22.9883 112.933 22.9883 112.637 22.9883C112.08 22.9883 111.883 23.3828 111.883 23.7209C111.883 27.3346 111.883 30.9554 111.883 34.5691C111.883 35.0059 112.172 35.2947 112.601 35.2947C112.933 35.2947 113.257 35.2947 113.574 35.2947C113.855 35.2947 114.144 35.2947 114.426 35.3018C114.813 35.3018 115.194 35.0975 115.194 34.5269C115.194 33.118 115.194 31.7162 115.194 30.3073V29.1591V27.9052C115.194 26.5175 115.194 25.1298 115.194 23.735C115.194 23.6504 115.194 23.3898 114.996 23.1926C114.799 22.9883 114.546 22.9883 114.461 22.9883Z" fill="#212121"/>
<path d="M82.6842 35.0059C82.5855 35.0059 82.501 35.0059 82.4094 35.0059H81.8107C81.5782 35.0059 81.3457 35.0059 81.1062 34.9777C79.2043 34.7453 77.7109 33.0758 77.6968 31.1668V30.7934C77.6968 30.5609 77.6968 30.3285 77.6968 30.1031C77.6968 30.0397 77.6968 29.8847 77.8095 29.772C77.9222 29.6522 78.0772 29.6522 78.1335 29.6522C78.4646 29.6522 78.7957 29.6522 79.1197 29.6522C79.4156 29.6522 80.0144 29.6522 80.0144 29.6522C80.0778 29.6522 80.2327 29.6522 80.3384 29.772C80.4511 29.8917 80.4511 30.0467 80.4441 30.096C80.4441 30.3144 80.4441 30.5398 80.4441 30.7582V31.0188C80.4441 31.7444 80.9583 32.2586 81.6839 32.2586H83.924C84.3325 32.2586 84.6495 32.1248 84.889 31.8571C84.9806 31.7514 85.0792 31.7021 85.199 31.7021C85.3046 31.7021 85.3892 31.7514 85.4526 31.7937C85.9739 32.1389 86.5022 32.484 87.0375 32.8292C87.0869 32.8644 87.2207 32.949 87.2489 33.111C87.2771 33.273 87.1784 33.3998 87.1432 33.4491C86.3754 34.4353 85.354 34.9636 84.093 35.0129C83.938 35.0129 83.7831 35.02 83.621 35.02H82.6982L82.6842 35.0059Z" fill="#6C94EC"/>
<path d="M78.1265 29.934C78.4646 29.934 78.7957 29.934 79.1339 29.934C79.4227 29.934 79.7185 29.934 80.0073 29.934C80.0073 29.934 80.0073 29.934 80.0144 29.934C80.1271 29.934 80.1623 29.9692 80.1623 30.089C80.1553 30.3989 80.1623 30.7089 80.1623 31.0188C80.1623 31.9064 80.7963 32.5404 81.6839 32.5404C81.853 32.5404 82.022 32.5404 82.1911 32.5404C82.494 32.5404 82.7969 32.5404 83.0928 32.5404C83.3675 32.5404 83.6422 32.5404 83.9169 32.5404C83.9169 32.5404 83.9169 32.5404 83.924 32.5404C84.3889 32.5404 84.7834 32.3925 85.0933 32.0402C85.1286 31.998 85.1567 31.9839 85.1849 31.9839C85.2131 31.9839 85.2413 31.998 85.2835 32.0262C85.8119 32.3784 86.3402 32.7235 86.8756 33.0617C86.9812 33.1321 86.9812 33.1744 86.9108 33.273C86.1923 34.2029 85.2413 34.6819 84.0719 34.7241C83.9169 34.7241 83.762 34.7312 83.5999 34.7312C83.3182 34.7312 83.0223 34.7312 82.6842 34.7312C82.5997 34.7312 82.5081 34.7312 82.4095 34.7312C82.2193 34.7312 82.022 34.7312 81.8107 34.7312C81.5923 34.7312 81.3669 34.7312 81.1344 34.696C79.3945 34.4846 77.9856 32.9208 77.9715 31.1668C77.9715 30.8075 77.9715 30.4553 77.9715 30.096C77.9715 29.9833 77.9856 29.934 78.1195 29.934M78.1195 29.3704C77.9011 29.3704 77.725 29.4409 77.5982 29.5747C77.4009 29.772 77.408 30.0256 77.408 30.1101C77.408 30.3426 77.408 30.568 77.408 30.8004V31.1738C77.4221 33.2166 79.0282 35.0129 81.064 35.2595C81.2824 35.2877 81.5078 35.2947 81.8037 35.2947C81.9093 35.2947 82.022 35.2947 82.1277 35.2947C82.2193 35.2947 82.3179 35.2947 82.4024 35.2947C82.4869 35.2947 82.5715 35.2947 82.649 35.2947C82.8533 35.2947 83.0153 35.2947 83.1702 35.2947C83.3182 35.2947 83.4591 35.2947 83.5929 35.2947C83.762 35.2947 83.924 35.2947 84.086 35.2877C85.4315 35.2384 86.5304 34.6748 87.3475 33.6182C87.4039 33.5477 87.5589 33.3434 87.5095 33.0546C87.4743 32.8644 87.3616 32.7095 87.1785 32.5827C86.6431 32.2445 86.1218 31.8994 85.5935 31.5471C85.509 31.4908 85.3751 31.4133 85.1849 31.4133C85.0511 31.4133 84.8468 31.4556 84.6707 31.6599C84.4805 31.8782 84.2551 31.9698 83.924 31.9698C83.6422 31.9698 83.3675 31.9698 83.0857 31.9698H82.6349H82.184H81.6769C81.1063 31.9698 80.7188 31.5824 80.7188 31.0118V30.7511C80.7188 30.5328 80.7188 30.3144 80.7188 30.096C80.7188 29.8776 80.6625 29.7015 80.5286 29.5677C80.3948 29.4338 80.2257 29.3634 80.0073 29.3634C79.7044 29.3634 79.4156 29.3634 79.1268 29.3634C78.7957 29.3634 78.4576 29.3634 78.1265 29.3634L78.1195 29.3704Z" fill="#212121"/>
<path d="M97.8013 35.0058C97.6252 35.0058 97.4913 34.9283 97.3927 34.7734C96.6178 33.5758 95.8359 32.3853 95.047 31.1878C94.899 30.9624 94.9202 30.7651 95.1033 30.589C95.5541 30.1523 96.005 29.7085 96.4417 29.2577C96.5192 29.1731 96.6319 29.0815 96.7799 29.0815C96.9912 29.0815 97.1039 29.2577 97.1462 29.3281C98.0267 30.7088 98.9143 32.0824 99.8089 33.4561L100.809 34.9988H97.8083L97.8013 35.0058Z" fill="#6C94EC"/>
<path d="M96.7799 29.3704C96.8221 29.3704 96.8644 29.4126 96.9137 29.4901C97.8436 30.9413 98.7805 32.3924 99.7173 33.8435C99.9005 34.1253 100.084 34.4141 100.288 34.7311C99.8582 34.7311 99.4426 34.7311 99.027 34.7311C98.6114 34.7311 98.2099 34.7311 97.8013 34.7311C97.7168 34.7311 97.6745 34.6959 97.6322 34.6325C96.8503 33.435 96.0684 32.2374 95.2865 31.0469C95.2231 30.9554 95.209 30.899 95.3076 30.8074C95.7584 30.3707 96.2093 29.9198 96.6531 29.469C96.7094 29.4126 96.7517 29.3845 96.7869 29.3845M96.7869 28.8209C96.4981 28.8209 96.3079 29.0111 96.2445 29.0745C95.8289 29.5042 95.3992 29.9339 94.9131 30.4059C94.7793 30.5327 94.5046 30.8849 94.8145 31.3569C95.6035 32.5544 96.3854 33.7449 97.1603 34.9424C97.3505 35.2383 97.6111 35.3017 97.8013 35.3017C98.2099 35.3017 98.6184 35.3017 99.027 35.3017H99.6469H100.288H101.323L100.76 34.4352L100.633 34.238C100.478 33.9985 100.33 33.7731 100.182 33.5477C99.2454 32.1036 98.3085 30.6524 97.3786 29.2013C97.2166 28.9477 97.0123 28.828 96.7728 28.828L96.7869 28.8209Z" fill="#212121"/>
<path d="M106.501 35.0129C105.74 35.0129 105.141 34.4001 105.127 33.6323C105.127 33.2871 105.261 32.949 105.522 32.6883C105.783 32.4206 106.142 32.2727 106.501 32.2727C107.269 32.2727 107.875 32.8785 107.875 33.6463C107.875 34.4142 107.276 35.02 106.508 35.02L106.501 35.0129Z" fill="#6C94EC"/>
<path d="M106.501 32.5474C107.114 32.5474 107.586 33.0264 107.586 33.6393C107.586 34.2522 107.107 34.7312 106.501 34.7312C105.902 34.7312 105.416 34.2451 105.409 33.6252C105.402 33.0476 105.909 32.5474 106.501 32.5474ZM106.501 31.9839C106.064 31.9839 105.635 32.167 105.318 32.484C105.008 32.801 104.839 33.2096 104.846 33.6323C104.86 34.5621 105.585 35.2877 106.494 35.2947C107.424 35.2947 108.149 34.5692 108.149 33.6393C108.149 32.7095 107.424 31.9839 106.501 31.9839Z" fill="#212121"/>
<path d="M11.2266 30.0748C13.3275 30.0748 15.0305 28.3717 15.0305 26.2709C15.0305 24.17 13.3275 22.4669 11.2266 22.4669C9.12575 22.4669 7.42267 24.17 7.42267 26.2709C7.42267 28.3717 9.12575 30.0748 11.2266 30.0748Z" fill="white" stroke="black" stroke-width="0.845318"/>
<path d="M23.2019 23.0305C25.3028 23.0305 27.0059 21.3274 27.0059 19.2265C27.0059 17.1257 25.3028 15.4226 23.2019 15.4226C21.1011 15.4226 19.398 17.1257 19.398 19.2265C19.398 21.3274 21.1011 23.0305 23.2019 23.0305Z" fill="#6C94EC" stroke="black" stroke-width="0.845318"/>
<path d="M18.5879 38.6971C19.1374 38.4857 19.6093 38.3096 20.0672 38.1194C20.4828 37.9504 20.8703 37.7249 21.2366 37.4573C21.4761 37.2811 21.469 37.1755 21.2014 37.0346C20.2856 36.5556 19.6446 35.823 19.2571 34.8579C18.602 33.2166 19.0599 31.2723 20.3913 30.1312C21.786 28.9266 23.688 28.7223 25.2589 29.6169C27.6821 30.9906 28.2105 33.9562 26.4001 36.1541C24.5192 38.4294 22.1101 39.3522 19.1796 38.8802C19.0599 38.8591 18.9401 38.8309 18.8204 38.7957C18.7711 38.7816 18.7288 38.7534 18.595 38.69L18.5879 38.6971Z" fill="#6C94EC"/>
<path fill-rule="evenodd" clip-rule="evenodd" d="M25.2519 29.617C23.681 28.7295 21.779 28.9337 20.3842 30.1313C19.0599 31.2795 18.595 33.2167 19.2501 34.858C19.5671 35.654 20.0602 36.2951 20.7435 36.76C20.8844 36.8586 21.0394 36.9502 21.1943 37.0347C21.462 37.1756 21.4691 37.2813 21.2295 37.4574C21.1028 37.556 20.9689 37.6405 20.8351 37.7251C20.8139 37.7391 20.7998 37.7462 20.7787 37.7603C20.7787 37.7603 20.7787 37.7603 20.7717 37.7603C20.5462 37.8941 20.3138 38.0139 20.0672 38.1125C20.0602 38.1125 20.0461 38.1195 20.0391 38.1266C19.7784 38.2322 19.5178 38.3309 19.243 38.4365C19.1937 38.4577 19.1374 38.4788 19.0881 38.4999C19.0176 38.5281 18.9472 38.5563 18.8767 38.5774C18.7852 38.6126 18.6936 38.6479 18.595 38.6831C18.6443 38.7042 18.6865 38.7254 18.7147 38.7394C18.764 38.7606 18.7922 38.7747 18.8204 38.7817C18.9401 38.8169 19.0599 38.8451 19.1797 38.8662C19.5248 38.9226 19.8559 38.9578 20.187 38.9719C22.6666 39.0987 24.7447 38.1407 26.4001 36.133C28.2175 33.9352 27.6892 30.9696 25.2589 29.5959L25.2519 29.617ZM25.7379 35.6118C24.632 36.9502 23.3428 37.7532 21.8494 38.035C21.9058 37.9857 21.9692 37.9223 22.0256 37.8519C22.1242 37.7321 22.2651 37.4926 22.2439 37.1686C22.2228 36.8445 22.0396 36.6261 21.9269 36.5134C21.8072 36.4078 21.6804 36.3303 21.5888 36.281C20.8562 35.9006 20.3561 35.33 20.0391 34.541C19.5178 33.2237 19.8911 31.674 20.9407 30.7653C22.0749 29.7861 23.5894 29.6382 24.8362 30.3426C26.7875 31.4486 27.2313 33.8014 25.7379 35.6047M21.7367 38.1266L21.6874 38.0632L21.7367 38.1266Z" fill="#212121"/>
</g>
<defs>
<clipPath id="clip0_672_2712">
<rect width="122.254" height="24" fill="white" transform="translate(7 15)"/>
</clipPath>
</defs>
</svg>
