<svg width="110" height="54" viewBox="0 0 110 54" fill="none" xmlns="http://www.w3.org/2000/svg">
<g clip-path="url(#clip0_1734_3097)">
<path d="M43.5729 22.8633L43.3679 25.0786C42.4891 23.3588 40.4677 22.426 38.3 22.426C34.2282 22.426 31.5038 25.3701 31.5038 29.8883C31.5038 34.3773 33.9646 37.6421 38.2708 37.6421C40.6142 37.6421 42.3426 36.5053 43.2507 35.0187L43.485 37.2632H46.8245V22.8633H43.5729ZM43.192 30.0632C43.192 32.6576 41.581 34.4357 39.091 34.4357C36.6009 34.4357 35.0777 32.6284 35.0777 30.0632C35.0777 27.498 36.6303 25.6616 39.1202 25.6616C41.6102 25.6616 43.192 27.4689 43.192 30.0632Z" fill="#232323"/>
<path d="M52.9052 37.2632V33.3863L55.0144 31.2001L58.7933 37.2632H62.8944L57.5044 28.5766L63.0116 22.8633H58.5297L52.9052 28.8973V16H49.3607V37.2632H52.9052Z" fill="#232323"/>
<path d="M74.8961 22.8633L74.691 25.0786C73.8122 23.3588 71.791 22.426 69.6232 22.426C65.5514 22.426 62.8271 25.3701 62.8271 29.8883C62.8271 34.3773 65.2877 37.6421 69.5939 37.6421C71.9374 37.6421 73.6657 36.5053 74.5739 35.0187L74.8082 37.2632H78.1477V22.8633H74.8961ZM74.5153 30.0632C74.5153 32.6576 72.9041 34.4357 70.4142 34.4357C67.9242 34.4357 66.4009 32.6284 66.4009 30.0632C66.4009 27.498 67.9534 25.6616 70.4435 25.6616C72.9335 25.6616 74.5153 27.4689 74.5153 30.0632Z" fill="#232323"/>
<path d="M79.9562 32.8907C79.9562 35.7183 82.2412 37.6421 85.8443 37.6421C89.4181 37.6421 91.9081 35.8348 91.9081 32.9199C91.9081 30.7045 90.6777 29.5968 88.2464 29.043L85.6392 28.4309C84.4089 28.1394 83.7644 27.6146 83.7644 26.7984C83.7644 25.7199 84.5846 25.0786 85.9908 25.0786C87.3676 25.0786 88.1877 25.8657 88.2171 27.0899H91.6151C91.5858 24.2916 89.3888 22.426 86.1372 22.426C82.7977 22.426 80.3956 24.1167 80.3956 26.9442C80.3956 29.2471 81.6553 30.4713 84.2624 31.0543L86.8696 31.6665C88.1585 31.9579 88.5393 32.4827 88.5393 33.2114C88.5393 34.2607 87.6312 34.9312 85.9615 34.9312C84.321 34.9312 83.3836 34.1442 83.3543 32.8907H79.9562Z" fill="#232323"/>
<path d="M97.4728 37.2632V29.3928C97.4728 27.2358 98.7916 25.6617 101.047 25.6617C102.863 25.6617 104.064 26.8277 104.064 29.2471V37.2632H107.638V28.4017C107.638 24.6706 105.764 22.4261 102.19 22.4261C100.11 22.4261 98.41 23.3297 97.5018 24.7289V16H93.8992V37.2632H97.4728Z" fill="#232323"/>
<path d="M16.5345 30.3636L20.6171 37.5444H12.3702L8.2445 30.3636H16.5345Z" fill="url(#paint0_linear_1734_3097)"/>
<path d="M20.6149 37.5455L24.7339 30.3649L16.4892 16H8.2445L20.6149 37.5455Z" fill="#FF414C"/>
<path d="M4.12231 23.1788H12.367L4.12574 37.5437L0 30.363L4.12231 23.1788Z" fill="#FF414C"/>
</g>
<defs>
<linearGradient id="paint0_linear_1734_3097" x1="13.3161" y1="32.8115" x2="17.1726" y2="28.7426" gradientUnits="userSpaceOnUse">
<stop stop-color="#FF414C"/>
<stop offset="1" stop-color="#FF414C" stop-opacity="0"/>
</linearGradient>
<clipPath id="clip0_1734_3097">
<rect width="109.08" height="21.6422" fill="white" transform="translate(0 16)"/>
</clipPath>
</defs>
</svg>
