<svg width="191" height="38" viewBox="0 0 191 38" fill="none" xmlns="http://www.w3.org/2000/svg">
<path d="M67.9248 16.9547C67.9292 17.0377 67.9524 17.0442 67.9946 16.9744C68.6078 15.9718 69.3992 15.3591 70.3685 15.1365C71.1606 14.9546 71.9475 15.0281 72.7294 15.357C73.5156 15.6887 74.1318 16.2562 74.578 17.0595C74.9718 17.7667 75.2298 18.5226 75.3518 19.3273C75.4696 20.0971 75.511 20.8865 75.4761 21.6956C75.431 22.6953 75.1847 23.6302 74.7371 24.5004C74.1805 25.5845 73.4248 26.3128 72.47 26.6853C71.38 27.1117 70.2297 27.0134 69.0191 26.3906C68.6209 26.1855 68.3215 25.8595 68.121 25.4128C68.0849 25.3312 68.0313 25.275 67.9815 25.2665C67.8972 25.2505 67.8638 25.3393 67.8812 25.5328C67.9408 26.1862 67.6676 26.5951 67.0615 26.7595C66.3422 26.9545 65.8168 26.8315 65.4855 26.3906C65.2893 26.1287 65.1912 25.6776 65.1912 25.0373C65.1912 20.864 65.1912 16.6906 65.1912 12.5172C65.1912 11.989 65.2856 11.5932 65.4746 11.3298C65.7943 10.8875 66.2426 10.7281 66.8196 10.8518C67.2076 10.9348 67.4917 11.1167 67.6719 11.3975C67.8405 11.6551 67.9117 11.9556 67.8856 12.299C67.8667 12.5362 67.8572 12.6635 67.8572 12.6809C67.8296 14.139 67.8521 15.5636 67.9248 16.9547ZM68.23 18.9934C67.8027 20.1255 67.7104 21.2882 67.9531 22.4814C68.0956 23.1769 68.3114 23.6972 68.6006 24.042C69.0133 24.5339 69.5845 24.7572 70.314 24.7121C71.5333 24.6365 72.2898 23.9765 72.5833 22.7324C72.8638 21.5508 72.8529 20.3736 72.5506 19.2007C72.3065 18.2578 71.7288 17.6714 70.8176 17.4415C70.1592 17.2741 69.5932 17.3571 69.1194 17.6903C68.759 17.9435 68.4625 18.3779 68.23 18.9934Z" fill="#222222"/>
<path d="M79.0582 14.1394C79.8456 14.1394 80.4839 13.5003 80.4839 12.7119C80.4839 11.9235 79.8456 11.2844 79.0582 11.2844C78.2709 11.2844 77.6326 11.9235 77.6326 12.7119C77.6326 13.5003 78.2709 14.1394 79.0582 14.1394Z" fill="#222222"/>
<path d="M130.558 14.1431C131.346 14.1431 131.984 13.504 131.984 12.7156C131.984 11.9272 131.346 11.2881 130.558 11.2881C129.771 11.2881 129.132 11.9272 129.132 12.7156C129.132 13.504 129.771 14.1431 130.558 14.1431Z" fill="#222222"/>
<path d="M53.0789 14.2067C53.6748 15.1001 54.0606 16.1464 54.2365 17.3454C54.4995 19.1338 54.4283 20.7709 54.0228 22.2566C53.4808 24.2443 52.3937 25.6231 50.7616 26.3928C49.49 26.9924 48.0702 27.1655 46.5021 26.9123C43.7219 26.4641 41.999 24.6714 41.3334 21.5341C41.0268 20.0848 41.0159 18.6332 41.3007 17.1796C41.6146 15.5731 42.18 14.3216 42.9967 13.4253C43.9733 12.3528 45.3038 11.7315 46.9882 11.5612C48.3267 11.4259 49.5402 11.6071 50.6287 12.1047C51.6387 12.5675 52.4555 13.2681 53.0789 14.2067ZM50.2188 14.82C49.7015 14.3311 49.1332 14.0452 48.5141 13.9622C46.962 13.7541 45.7892 14.1514 44.9957 15.154C44.4333 15.8626 44.0801 16.8587 43.9363 18.1421C43.8186 19.1884 43.8731 20.2688 44.0998 21.3835C44.3425 22.5796 44.8954 23.4622 45.7587 24.0311C46.59 24.5783 47.523 24.7616 48.5577 24.5812C49.4631 24.4226 50.1847 23.97 50.7224 23.2235C51.125 22.6618 51.4047 21.9059 51.5617 20.9557C51.7898 19.5733 51.7266 18.1858 51.372 16.7932C51.1758 16.0205 50.7914 15.3628 50.2188 14.82Z" fill="#222222"/>
<path d="M24.9281 14.22C25.0025 16.0516 25.2613 19.1518 25.3858 20.674C25.3948 20.7849 25.3804 20.8964 25.3435 21.0013C25.3066 21.1061 25.248 21.2018 25.1716 21.282C25.0953 21.3623 25.0029 21.4252 24.9006 21.4667C24.7982 21.5081 24.6883 21.5272 24.5782 21.5225C23.4618 21.4698 21.3845 21.3902 18.8994 21.379C16.4767 21.3678 14.4727 21.4351 13.3863 21.4821C13.2765 21.4864 13.1671 21.4673 13.0652 21.4258C12.9633 21.3843 12.8713 21.3215 12.7952 21.2416C12.7191 21.1616 12.6607 21.0663 12.6238 20.9619C12.5868 20.8575 12.5723 20.7464 12.5809 20.6359C12.7042 19.1272 12.9464 16.0504 13.0252 14.22C13.0784 12.6662 13.7292 11.1943 14.8397 10.1165C15.9502 9.0387 17.4331 8.43969 18.9739 8.44637C20.5156 8.43851 21.9998 9.03695 23.1113 10.1149C24.223 11.1928 24.8746 12.6653 24.9281 14.22ZM18.9661 11.3057C18.274 11.3055 17.5974 11.5124 17.0218 11.9003C16.4462 12.2881 15.9975 12.8394 15.7325 13.4846C15.4675 14.1297 15.3981 14.8397 15.533 15.5246C15.6678 16.2096 16.001 16.8388 16.4904 17.3328C16.9796 17.8266 17.6031 18.163 18.282 18.2993C18.9607 18.4356 19.6644 18.3658 20.3039 18.0985C20.9433 17.8314 21.4899 17.3788 21.8744 16.7982C22.259 16.2175 22.4642 15.5349 22.4642 14.8365C22.4642 13.9006 22.096 13.0032 21.4405 12.3411C20.785 11.679 19.8958 11.3067 18.9684 11.3057H18.9661Z" fill="url(#paint0_linear_3025_5875)"/>
<path d="M19.0278 12.8118C19.2309 13.0469 19.343 13.3484 19.3432 13.6603C19.3397 13.8388 19.3012 14.0148 19.2302 14.1783C19.159 14.3419 19.0567 14.4896 18.929 14.6132C18.8013 14.7367 18.6507 14.8337 18.4858 14.8985C18.3209 14.9632 18.1449 14.9947 17.968 14.9908C17.7638 14.9921 17.5619 14.9479 17.3765 14.8612C17.1912 14.7746 17.0271 14.6477 16.8961 14.4898C16.8716 14.6145 16.859 14.7413 16.8583 14.8686C16.8583 16.0051 17.8092 16.9265 18.9822 16.9265C20.1553 16.9265 21.1051 16.0051 21.1051 14.8686C21.1051 13.732 20.1797 12.8297 19.0278 12.8118Z" fill="#222222"/>
<path d="M22.1659 10.6771C22.1389 10.6788 22.1119 10.675 22.0863 10.666C22.0607 10.657 22.0372 10.6429 22.017 10.6247C21.9968 10.6064 21.9804 10.5843 21.9688 10.5597C21.9572 10.535 21.9506 10.5082 21.9493 10.4809C21.9316 10.0214 22.0138 9.07984 23.1935 8.05201C24.0067 7.34474 25.1386 7.08918 26.5627 7.29094C26.5899 7.29473 26.616 7.30402 26.6395 7.31826C26.6631 7.3325 26.6834 7.35139 26.6995 7.3738C26.7156 7.39621 26.7271 7.42168 26.7331 7.44866C26.7392 7.47564 26.7398 7.50358 26.7349 7.5308C26.7254 7.58162 26.6972 7.62695 26.656 7.65771C26.6148 7.68847 26.5637 7.70239 26.5127 7.6967C25.2163 7.51175 24.1988 7.73369 23.4834 8.35464C22.457 9.25133 22.3659 10.055 22.3726 10.4675C22.3738 10.5205 22.3545 10.5719 22.3189 10.6108C22.2832 10.6496 22.234 10.6731 22.1815 10.6759L22.1659 10.6771Z" fill="#222222"/>
<path d="M26.2732 7.90993C26.599 7.90993 26.8631 7.6535 26.8631 7.33717C26.8631 7.02084 26.599 6.7644 26.2732 6.7644C25.9475 6.7644 25.6833 7.02084 25.6833 7.33717C25.6833 7.6535 25.9475 7.90993 26.2732 7.90993Z" fill="#222222"/>
<path d="M15.998 10.7154C16.025 10.7173 16.0521 10.7136 16.0777 10.7047C16.1032 10.6959 16.1267 10.682 16.1469 10.6638C16.1671 10.6457 16.1834 10.6236 16.1951 10.599C16.2067 10.5743 16.2134 10.5476 16.2147 10.5203C16.2336 10.0496 16.1558 8.97698 14.9705 7.94239C14.1585 7.23512 13.0254 6.97956 11.6013 7.18132C11.5742 7.18526 11.5481 7.19465 11.5247 7.20893C11.5013 7.22321 11.4809 7.2421 11.4648 7.26448C11.4488 7.28684 11.4373 7.31225 11.4312 7.33917C11.4251 7.36609 11.4244 7.39398 11.4291 7.42118C11.4385 7.472 11.4667 7.51733 11.5079 7.54809C11.5491 7.57885 11.6003 7.59277 11.6512 7.58708C12.9476 7.40213 13.9662 7.62406 14.6805 8.24502C15.7103 9.14175 15.7992 10.0765 15.7859 10.5003C15.7843 10.5535 15.8034 10.6053 15.839 10.6447C15.8747 10.684 15.9241 10.7078 15.9769 10.7109L15.998 10.7154Z" fill="#222222"/>
<path d="M11.9764 7.90993C12.3021 7.90993 12.5663 7.6535 12.5663 7.33717C12.5663 7.02084 12.3021 6.7644 11.9764 6.7644C11.6506 6.7644 11.3865 7.02084 11.3865 7.33717C11.3865 7.6535 11.6506 7.90993 11.9764 7.90993Z" fill="#222222"/>
<path d="M37.9423 28.7883C37.9423 26.9309 33.3322 23.9809 33.3322 23.9809L33.2789 23.9652C34.0387 20.8626 34.4297 19.4817 34.4798 17.4641C34.5908 12.8563 33.4389 8.95564 30.5439 5.53584C27.8524 2.35593 23.5678 0.510986 18.9911 0.510986C14.1266 0.510986 10.3775 2.38172 7.59481 5.48092C4.81212 8.58012 3.41577 11.9416 3.49576 17.4125C3.51908 18.9436 3.86345 21.5139 4.60661 23.8183L4.5544 23.834C4.5544 23.834 0.0321045 26.7281 0.0321045 28.7333C0.0321045 29.3262 2.47599 30.0784 7.51704 30.3172L4.70547 34.5675C4.59439 34.9295 4.66326 35.4272 4.9643 35.6401C5.26108 35.8373 5.60062 35.9591 5.95408 35.9955C6.4884 36.0112 6.65503 35.8553 6.85165 35.4978L9.67434 30.5391C12.6737 30.659 14.5821 30.7229 18.0135 30.7296V36.4045C18.0335 36.7464 18.1768 37.3708 19.0866 37.3708C19.9131 37.3708 20.0553 36.7857 20.0553 36.4045V30.733C23.4823 30.7262 25.3463 30.7722 28.3401 30.6534L31.2982 35.4428C31.3521 35.5975 31.4547 35.73 31.5903 35.82C31.726 35.9102 31.8872 35.9529 32.0492 35.9417C32.3379 35.9459 32.6219 35.8682 32.869 35.7175C33.2022 35.5673 33.2022 35.0147 33.0678 34.5137L30.2818 30.427C35.1474 30.019 37.9423 29.2646 37.9423 28.7883ZM8.74788 28.2436C8.29523 28.2365 7.86389 28.0483 7.54872 27.7204C7.23354 27.3924 7.06033 26.9517 7.06715 26.495C7.06715 25.5287 7.8192 24.8551 8.74788 24.8551C9.67654 24.8551 10.4286 25.5276 10.4286 26.495C10.4351 26.9516 10.2619 27.3922 9.94669 27.72C9.6316 28.0479 9.20044 28.2362 8.74788 28.2436ZM18.9877 28.3399C18.6427 28.3506 18.3023 28.2572 18.0101 28.0715C17.7181 27.8858 17.4875 27.6164 17.3481 27.2977C17.2086 26.9789 17.1667 26.6255 17.2275 26.2826C17.2883 25.9397 17.4493 25.623 17.6896 25.3729C17.93 25.1228 18.2389 24.9509 18.5767 24.879C18.9146 24.8072 19.2659 24.8387 19.5859 24.9696C19.9058 25.1004 20.1798 25.3247 20.3726 25.6136C20.5655 25.9025 20.6685 26.243 20.6684 26.5914C20.6753 27.0481 20.502 27.4888 20.1869 27.8168C19.8717 28.1447 19.4404 28.3328 18.9877 28.3399ZM29.2265 28.4374C28.8814 28.4481 28.541 28.3547 28.2489 28.169C27.9568 27.9833 27.7262 27.7139 27.5868 27.3952C27.4474 27.0765 27.4054 26.723 27.4663 26.3801C27.5271 26.0372 27.6881 25.7205 27.9284 25.4704C28.1687 25.2204 28.4776 25.0484 28.8154 24.9766C29.1533 24.9047 29.5047 24.9362 29.8246 25.0671C30.1445 25.1979 30.4185 25.4222 30.6114 25.7111C30.8043 26.0001 30.9072 26.3405 30.9072 26.6889C30.9137 27.1456 30.7405 27.5861 30.4253 27.9139C30.1102 28.2418 29.679 28.4301 29.2265 28.4374ZM31.8048 23.3263C28.5555 22.4912 23.7444 22.5327 18.9866 22.5327C14.2288 22.5327 9.76649 22.3859 6.1507 23.3263C5.60971 21.1327 5.18536 18.9436 5.13093 17.2478C4.87765 9.3658 10.1542 1.89189 18.9866 1.89189C27.819 1.89189 33.2722 9.37143 32.9346 17.2478C32.829 19.7271 32.1436 21.9969 31.8048 23.3263Z" fill="#222222"/>
<path d="M120.684 20.3597L120.671 25.8973C120.671 26.229 120.524 26.4691 120.23 26.6176C119.707 26.8824 119.169 26.9108 118.615 26.7027C118.351 26.6037 118.173 26.4561 118.083 26.2596C117.992 26.0646 117.946 25.8216 117.946 25.5306C117.946 21.4023 117.943 17.2733 117.937 13.1436C117.936 12.6067 118.127 12.2487 118.51 12.0697C118.692 11.9853 119.047 11.9431 119.576 11.9431C121.722 11.9431 123.867 11.9431 126.012 11.9431C126.552 11.9431 126.884 12.2152 127.006 12.7595C127.152 13.407 127.013 13.8537 126.587 14.0996C126.369 14.2262 125.975 14.2895 125.406 14.2895C123.907 14.2895 122.37 14.2895 120.793 14.2895C120.725 14.2895 120.671 14.3443 120.671 14.4118V17.6509C120.671 17.7001 120.69 17.7473 120.725 17.7821C120.76 17.8169 120.807 17.8365 120.856 17.8365C122.349 17.8365 123.795 17.8496 125.194 17.8758C126.086 17.8918 126.486 18.3698 126.393 19.3098C126.364 19.6096 126.251 19.8322 126.053 19.9777C125.924 20.0738 125.702 20.132 125.388 20.1523C123.859 20.2498 122.328 20.2833 120.795 20.2527C120.766 20.2522 120.737 20.2632 120.717 20.2833C120.696 20.3034 120.684 20.331 120.684 20.3597Z" fill="#222222"/>
<path d="M87.0647 17.7974C87.0314 17.795 86.9986 17.8065 86.9742 17.8293C86.9498 17.8521 86.936 17.884 86.936 17.9174C86.936 19.4279 86.923 20.9107 86.8968 22.3658C86.8866 22.9144 86.9404 23.4543 87.0581 23.9854C87.1148 24.243 87.2732 24.3943 87.5333 24.4394C88.2789 24.5675 88.9568 24.4081 89.5672 23.9614C89.8695 23.7402 90.1398 23.773 90.3782 24.0596C90.6281 24.3608 90.6761 24.7588 90.522 25.2536C90.4058 25.6261 90.2103 25.931 89.9356 26.1681C89.722 26.3529 89.4088 26.5043 88.9961 26.6221C88.0384 26.8957 87.1199 26.9277 86.2406 26.7182C85.3672 26.5101 84.7844 26.0321 84.4923 25.2841C84.3514 24.9276 84.278 24.2372 84.2722 23.2127C84.262 21.5597 84.2598 19.8535 84.2656 18.0942C84.2664 18.0082 84.2287 17.9263 84.1629 17.871C84.0971 17.8156 84.0101 17.7927 83.9256 17.8083C83.568 17.8752 83.2614 17.8534 83.0056 17.7428C82.7513 17.6337 82.5856 17.4125 82.5086 17.0793C82.4374 16.7722 82.4279 16.4623 82.4803 16.1494C82.5355 15.8147 82.6917 15.5892 82.9489 15.4728C83.2105 15.3564 83.5172 15.3316 83.8689 15.3986C83.9662 15.4179 84.0674 15.3888 84.1457 15.3187C84.2241 15.2487 84.2718 15.1447 84.2765 15.0341L84.3288 13.7157C84.3434 13.3315 84.5933 13.09 85.0787 12.991C86.5262 12.6971 87.1453 13.2755 86.936 14.7263C86.8648 15.2181 87.024 15.4466 87.4135 15.4117C87.6373 15.3913 87.7564 15.3811 87.771 15.3811C88.252 15.3811 88.7883 15.3811 89.3798 15.3811C89.7547 15.3811 90.025 15.5499 90.1907 15.8875C90.3157 16.1436 90.3585 16.4521 90.3193 16.813C90.2859 17.1375 90.1776 17.3834 89.9945 17.5507C89.7823 17.7443 89.5076 17.844 89.1705 17.8498C88.4569 17.8614 87.755 17.844 87.0647 17.7974Z" fill="#222222"/>
<path d="M59.5188 17.3564C59.9344 16.559 60.4489 15.9231 61.0622 15.4487C61.3862 15.1984 61.7982 15.0529 62.2982 15.0122C62.8722 14.9656 63.2225 15.2115 63.3489 15.7499C63.4652 16.2418 63.4078 16.6608 63.1767 17.0072C63.0314 17.2254 62.8286 17.3375 62.5685 17.3433C61.06 17.3797 60.0812 18.0716 59.6321 19.4191C59.5304 19.7217 59.4744 20.1765 59.4643 20.7833C59.4323 22.432 59.4156 24.0799 59.4141 25.7271C59.4141 26.0182 59.3545 26.2335 59.2354 26.3732C59.0857 26.5508 58.8771 26.6744 58.6097 26.7443C57.8468 26.9466 57.2669 26.7494 56.8701 26.1528C56.8319 26.0973 56.8113 26.028 56.8113 25.9542C56.7953 22.7383 56.7909 19.5231 56.7982 16.3087C56.7997 15.8867 56.9777 15.5935 57.3323 15.4291C57.8424 15.1919 58.33 15.1759 58.795 15.381C59.0711 15.5018 59.2601 15.6895 59.3618 15.9442C59.4664 16.2076 59.4839 16.4928 59.4141 16.7998C59.3676 17.005 59.372 17.1898 59.4272 17.3542C59.4519 17.427 59.4824 17.4277 59.5188 17.3564Z" fill="#222222"/>
<path d="M93.2352 16.6713C94.129 15.612 95.28 15.0547 96.6883 14.9994C98.0674 14.9455 99.1712 15.3508 99.9996 16.2151C100.585 16.8249 100.998 17.6303 101.238 18.6314C101.467 19.5962 101.459 20.5318 101.214 21.4384C101.089 21.8982 100.766 22.1085 100.246 22.0692C99.9465 22.0474 99.791 22.0365 99.7794 22.0365C98.0732 22.0205 96.3671 22.0336 94.6609 22.0758C94.5981 22.0779 94.5477 22.1265 94.5454 22.1871C94.48 23.5622 95.086 24.3858 96.3635 24.6579C97.465 24.8922 98.4249 24.6186 99.2431 23.8372C99.5047 23.5869 99.7409 23.4494 99.9516 23.4247C100.43 23.3694 100.792 23.5666 101.037 24.0162C101.261 24.4266 101.196 24.8609 100.841 25.3193C100.177 26.1836 99.3042 26.7199 98.2229 26.928C97.4483 27.0764 96.6854 27.0873 95.934 26.9607C95.1216 26.8239 94.432 26.5365 93.8652 26.0985C93.0063 25.4335 92.4221 24.4804 92.1126 23.2392C91.7696 21.8669 91.7696 20.4482 92.1126 18.9828C92.3233 18.0792 92.6975 17.3087 93.2352 16.6713ZM94.9966 18.2669C94.6609 18.7777 94.4982 19.3117 94.5083 19.869C94.5107 19.9814 94.6002 20.071 94.7089 20.0698L98.3842 20.048C98.6778 20.0466 98.805 19.8959 98.7657 19.5962C98.5521 17.9679 97.7695 17.2337 96.4179 17.3938C95.8061 17.4651 95.3323 17.7561 94.9966 18.2669Z" fill="#222222"/>
<path d="M106.462 16.9945C106.692 16.5448 107.127 16.0479 107.768 15.5037C108.082 15.2388 108.476 15.0773 108.949 15.0191C109.342 14.9711 109.648 15.0613 109.867 15.2898C110.046 15.4775 110.146 15.7416 110.168 16.0821C110.19 16.411 110.126 16.6998 109.976 16.9486C109.823 17.2033 109.599 17.3342 109.302 17.3415C107.974 17.3779 107.045 17.9476 106.514 19.0506C106.234 19.637 106.105 20.4694 106.128 21.5476C106.159 22.8936 106.174 24.2397 106.174 25.5857C106.174 26.2318 105.908 26.6261 105.376 26.7687C104.727 26.9419 104.217 26.8233 103.846 26.4129C103.664 26.2107 103.572 25.9131 103.569 25.5202C103.55 22.4993 103.55 19.4784 103.569 16.4575C103.571 16.0719 103.661 15.7932 103.84 15.6215C104.063 15.4062 104.365 15.2854 104.744 15.2592C105.834 15.1835 106.306 15.7314 106.161 16.9028C106.087 17.5067 106.187 17.5372 106.462 16.9945Z" fill="#222222"/>
<path d="M137.356 16.9787C137.416 16.9481 137.467 16.8885 137.511 16.7997C137.86 16.0969 138.368 15.6014 139.037 15.3133C139.598 15.0717 140.263 14.9975 141.034 15.0906C142.474 15.2638 143.438 15.9695 143.926 17.2079C144.155 17.787 144.269 18.8391 144.269 20.3641C144.269 22.1656 144.269 24.002 144.269 25.8733C144.269 26.1876 144.135 26.427 143.868 26.5914C143.435 26.8562 142.948 26.9137 142.407 26.7638C142.004 26.6518 141.762 26.427 141.679 26.0894C141.662 26.021 141.653 25.7205 141.653 25.1879C141.654 23.5014 141.659 21.8149 141.668 20.1284C141.67 19.7617 141.641 19.3986 141.583 19.0392C141.513 18.6012 141.388 18.265 141.206 18.0308C140.827 17.5433 140.245 17.3286 139.46 17.3869C138.038 17.4902 137.323 18.2403 137.315 19.6372C137.3 21.7298 137.293 23.7881 137.293 25.8122C137.293 26.2371 137.094 26.5245 136.696 26.6744C135.864 26.9858 135.217 26.8126 134.753 26.1549C134.712 26.0982 134.69 26.0279 134.69 25.9541L134.677 16.1907C134.677 15.9244 134.785 15.712 135 15.5534C135.266 15.3555 135.579 15.25 135.939 15.2369C136.297 15.2252 136.603 15.3045 136.859 15.4748C137.302 15.7687 137.443 16.2438 137.28 16.9001C137.257 16.9932 137.282 17.0194 137.356 16.9787Z" fill="#222222"/>
<path d="M153.874 16.7233C153.769 15.8662 154.101 15.3853 154.868 15.2805C155.349 15.2165 155.747 15.3031 156.061 15.5402C156.329 15.744 156.486 16.0277 156.531 16.3915C156.531 16.3944 156.531 16.7044 156.531 17.3214C156.531 20.057 156.531 22.7934 156.531 25.5306C156.531 26.3993 156.077 26.8322 155.169 26.8293C154.251 26.8264 153.796 26.3789 153.804 25.4869C153.806 25.4535 153.812 25.4113 153.824 25.3603C153.856 25.2279 153.808 25.2112 153.68 25.3101C153.648 25.3363 153.623 25.3705 153.606 25.4127C153.331 26.0617 152.903 26.4786 152.322 26.6634C150.715 27.1727 149.365 26.9901 148.272 26.1155C147.392 25.4127 146.784 24.3519 146.445 22.9331C146.068 21.3499 146.149 19.7347 146.687 18.0875C147.27 16.302 148.5 15.3023 150.377 15.0884C151.841 14.9211 152.941 15.4879 153.678 16.7888C153.852 17.0973 153.918 17.0754 153.874 16.7233ZM149.662 18.2665C149.319 18.7263 149.108 19.2429 149.028 19.8162C148.925 20.5612 148.918 21.3012 149.008 22.036C149.103 22.8044 149.301 23.3944 149.601 23.8062C150.026 24.3868 150.628 24.6888 151.409 24.7121C152.346 24.7412 153.005 24.4036 153.386 23.6993C153.626 23.2569 153.786 22.6094 153.868 21.7566C153.965 20.7351 153.817 19.7464 153.425 18.7903C153.254 18.3727 153.056 18.0657 152.832 17.8692C152.547 17.616 152.2 17.4603 151.79 17.4021C150.896 17.2741 150.187 17.5622 149.662 18.2665Z" fill="#222222"/>
<path d="M161.575 16.9024C161.899 16.1864 162.385 15.6713 163.033 15.357C163.578 15.0907 164.237 14.9969 165.01 15.0754C166.522 15.2268 167.525 15.9427 168.019 17.2232C168.247 17.8169 168.359 18.9301 168.354 20.5628C168.35 22.309 168.34 24.0559 168.324 25.8035C168.32 26.3376 168.074 26.6562 167.587 26.7596C167.263 26.828 166.939 26.8265 166.615 26.7552C166.02 26.6257 165.725 26.2903 165.728 25.749C165.736 24.1119 165.757 22.4749 165.791 20.8378C165.81 19.9036 165.734 19.1258 165.564 18.5045C165.412 17.9515 165.087 17.6059 164.59 17.4677C164.241 17.3702 163.809 17.3331 163.293 17.3564C162.553 17.3884 162.011 17.7347 161.666 18.3954C161.44 18.8305 161.332 19.4263 161.344 20.183C161.373 21.9874 161.382 23.7925 161.37 25.5984C161.368 25.9723 161.278 26.2524 161.1 26.4387C160.742 26.8098 160.25 26.9116 159.624 26.7443C159.172 26.6235 158.896 26.3827 158.798 26.0218C158.776 25.9403 158.765 25.6122 158.765 25.0374C158.765 22.4822 158.765 19.9269 158.765 17.3717C158.765 16.5684 158.768 16.1523 158.774 16.1231C158.878 15.6109 159.256 15.3228 159.907 15.2588C161.02 15.1467 161.512 15.6422 161.381 16.7452C161.368 16.8514 161.384 16.9249 161.429 16.9657C161.449 16.9831 161.477 16.986 161.506 16.9736C161.535 16.9611 161.56 16.9347 161.575 16.9024Z" fill="#222222"/>
<path d="M173.026 15.7303C174.101 15.0827 175.348 14.8855 176.765 15.1387C177.48 15.2683 178.133 15.5425 178.724 15.9616C179.439 16.468 179.744 17.1112 179.638 17.8912C179.59 18.2389 179.354 18.5118 178.929 18.7097C178.44 18.9367 178.017 18.7955 177.663 18.2862C177.355 17.8468 176.933 17.5637 176.398 17.4372C175.917 17.3236 175.438 17.3491 174.96 17.5135C174.24 17.7595 173.713 18.2659 173.379 19.0327C172.767 20.4297 172.751 21.7728 173.329 23.062C173.572 23.6004 173.952 24.0217 174.471 24.3258C174.977 24.6241 175.501 24.7435 176.043 24.6838C176.68 24.6139 177.274 24.328 177.826 23.826C178.194 23.4913 178.636 23.4556 179.154 23.719C179.901 24.1003 180.053 24.6605 179.612 25.3997C179.418 25.7271 179.162 25.992 178.842 26.1942C177.775 26.8709 176.604 27.1539 175.328 27.0433C172.583 26.8047 170.949 25.3182 170.428 22.584C170.143 21.0925 170.26 19.7159 170.781 18.4543C171.279 17.2422 172.028 16.3341 173.026 15.7303Z" fill="#222222"/>
<path d="M183.839 22.1608C183.769 23.0921 184.045 23.7796 184.667 24.2234C185.2 24.6047 185.847 24.7684 186.607 24.7146C187.354 24.6622 187.997 24.3566 188.534 23.7978C188.893 23.4253 189.282 23.338 189.701 23.5359C190.254 23.7993 190.487 24.1718 190.4 24.6534C190.345 24.959 190.151 25.2813 189.818 25.6204C188.845 26.6128 187.572 27.0784 186.001 27.0173C183.506 26.9198 181.966 25.6604 181.382 23.239C181.023 21.7519 181.029 20.3185 181.399 18.9391C181.735 17.692 182.298 16.7389 183.089 16.0797C184 15.3201 185.139 14.976 186.505 15.0473C188.273 15.1404 189.487 15.996 190.145 17.6141C190.665 18.8932 190.796 20.1316 190.538 21.3291C190.429 21.8326 190.083 22.08 189.502 22.0713C187.654 22.0436 185.806 22.0371 183.959 22.0516C183.895 22.0514 183.842 22.0993 183.839 22.1608ZM184.257 18.2602C183.923 18.7506 183.767 19.3138 183.789 19.9497C183.791 20.013 183.841 20.0631 183.902 20.0632L187.935 20.037C187.997 20.037 188.047 19.9875 188.048 19.9257C188.054 19.6535 188.012 19.3029 187.922 18.8736C187.725 17.9365 187.168 17.4293 186.25 17.3522C185.384 17.2809 184.719 17.5836 184.257 18.2602Z" fill="#222222"/>
<path d="M79.1488 15.2349H78.9715C78.2837 15.2349 77.7261 15.7925 77.7261 16.4803V25.584C77.7261 26.2719 78.2837 26.8295 78.9715 26.8295H79.1488C79.8367 26.8295 80.3943 26.2719 80.3943 25.584V16.4803C80.3943 15.7925 79.8367 15.2349 79.1488 15.2349Z" fill="#222222"/>
<path d="M130.644 15.2373H130.48C129.789 15.2373 129.228 15.7979 129.228 16.4893V25.5799C129.228 26.2714 129.789 26.8319 130.48 26.8319H130.644C131.336 26.8319 131.896 26.2714 131.896 25.5799V16.4893C131.896 15.7979 131.336 15.2373 130.644 15.2373Z" fill="#222222"/>
<defs>
<linearGradient id="paint0_linear_3025_5875" x1="145.395" y1="286.994" x2="1177.68" y2="1363.97" gradientUnits="userSpaceOnUse">
<stop stop-color="#EF2F2D"/>
<stop offset="1" stop-color="#89272D"/>
</linearGradient>
</defs>
</svg>
