<?xml version="1.0" encoding="UTF-8" standalone="no"?>
<svg
   xmlns:dc="http://purl.org/dc/elements/1.1/"
   xmlns:cc="http://creativecommons.org/ns#"
   xmlns:rdf="http://www.w3.org/1999/02/22-rdf-syntax-ns#"
   xmlns:svg="http://www.w3.org/2000/svg"
   xmlns="http://www.w3.org/2000/svg"
   viewBox="0 0 400.62399 400.62399"
   height="400.62399"
   width="400.62399"
   xml:space="preserve"
   id="svg2"
   version="1.1"><metadata
     id="metadata8"><rdf:RDF><cc:Work
         rdf:about=""><dc:format>image/svg+xml</dc:format><dc:type
           rdf:resource="http://purl.org/dc/dcmitype/StillImage" /></cc:Work></rdf:RDF></metadata><defs
     id="defs6"><clipPath
       id="clipPath20"
       clipPathUnits="userSpaceOnUse"><path
         id="path18"
         d="M 0,0 H 300.468 V 300.468 H 0 Z" /></clipPath></defs><g
     transform="matrix(1.3333333,0,0,-1.3333333,0,400.624)"
     id="g10"><g
       id="g12" /><g
       id="g14"><g
         clip-path="url(#clipPath20)"
         id="g16"><path
           id="path22"
           style="fill:#1f3f63;fill-opacity:1;fill-rule:nonzero;stroke:none"
           d="m 263.5225,153.6983 c 0,1.914 -1.551,3.465 -3.465,3.465 -1.913,0 -3.464,-1.551 -3.464,-3.465 0,-1.913 1.551,-3.464 3.464,-3.464 1.914,0 3.465,1.551 3.465,3.464" /><path
           id="path24"
           style="fill:#203d6c;fill-opacity:1;fill-rule:nonzero;stroke:none"
           d="m 199.3838,159.6573 c -0.221,1.7 -1.659,3.018 -3.419,3.018 -1.129,0 -2.122,-0.549 -2.755,-1.385 l -27.61,14.867 14.4,5.499 c 0.513,-1.271 1.754,-2.171 3.209,-2.171 1.299,0 2.417,0.723 3.01,1.78 l 70.465,-26.639 z m -38.863,19.235 16.918,2.797 -12.939,-4.94 z m -26.889,-13.929 c -0.601,1.028 -1.704,1.727 -2.981,1.727 -0.456,0 -0.889,-0.093 -1.288,-0.253 l -3.818,6.673 33.451,5.53 4.338,-2.336 z m -26.39,40.132 c 0.376,0.235 0.702,0.538 0.962,0.895 l 49.431,-26.617 -32.591,-5.388 z m -55.902,-43.295 c -0.096,0.264 -0.212,0.518 -0.365,0.748 l 52.1,42.94 c 0.618,-0.569 1.435,-0.925 2.34,-0.925 0.334,0 0.651,0.063 0.956,0.151 l 17.678,-30.893 z m 208.885,-7.502 -73.655,27.845 c 0.062,0.26 0.104,0.528 0.104,0.806 0,1.914 -1.552,3.465 -3.465,3.465 -1.886,0 -3.413,-1.509 -3.457,-3.384 l -20.592,-3.405 -50.508,27.197 c 0.14,0.377 0.227,0.78 0.227,1.206 0,1.913 -1.551,3.464 -3.464,3.464 -1.913,0 -3.465,-1.551 -3.465,-3.464 0,-0.666 0.198,-1.283 0.524,-1.811 l -52.137,-42.971 c -0.605,0.52 -1.383,0.846 -2.244,0.846 -1.913,0 -3.464,-1.551 -3.464,-3.465 0,-1.913 1.551,-3.464 3.464,-3.464 1.913,0 3.465,1.551 3.465,3.464 0,0.085 -0.02,0.164 -0.026,0.247 l 73.019,12.072 3.996,-6.985 c -0.822,-0.634 -1.36,-1.617 -1.36,-2.736 0,-1.913 1.551,-3.464 3.464,-3.464 1.914,0 3.464,1.551 3.464,3.464 0,0.301 -0.049,0.587 -0.122,0.865 l 30.441,11.622 28.31,-15.244 c -0.152,-0.391 -0.244,-0.813 -0.244,-1.258 0,-1.913 1.551,-3.465 3.465,-3.465 1.741,0 3.169,1.29 3.414,2.964 l 60.638,-5.324 z" /><path
           id="path26"
           style="fill:#203d6c;fill-opacity:1;fill-rule:nonzero;stroke:none"
           d="m 215.7823,136.1895 c -0.584,-2.065 -2.236,-3.398 -4.422,-3.563 -0.899,-0.07 -1.792,-0.053 -2.734,-0.035 -0.385,0.007 -0.772,0.015 -1.163,0.016 v 11.036 c 0.227,0.003 0.455,0.009 0.682,0.014 2.237,0.051 4.349,0.1 6.127,-1.468 1.703,-1.503 2.211,-3.521 1.51,-6 m 5.72,-12.982 c -0.359,0.5 -0.693,1.02 -1.004,1.511 -0.304,0.483 -0.6,0.972 -0.895,1.462 -1.256,2.083 -2.553,4.236 -4.641,5.816 l 0.001,0.001 c 0.115,0.041 0.205,0.073 0.295,0.106 0.138,0.052 0.279,0.106 0.416,0.163 2.675,1.117 4.093,2.992 4.215,5.571 0.119,2.498 -0.948,4.452 -3.168,5.807 -1.378,0.842 -3.013,1.276 -4.857,1.291 -2.545,0.019 -5.134,0.016 -7.636,0.012 l -2.659,-0.002 c -0.112,0 -0.223,-0.012 -0.338,-0.024 -0.052,-0.005 -0.105,-0.01 -0.159,-0.015 l -0.108,-0.009 v -0.973 l 0.261,-0.03 c 0.104,-0.013 0.193,-0.024 0.281,-0.029 1.315,-0.08 1.843,-0.543 2.095,-1.836 0.103,-0.524 0.153,-0.979 0.154,-1.393 0.008,-4.553 0.016,-10.567 -0.005,-16.696 -0.002,-0.517 -0.082,-1.095 -0.255,-1.818 -0.203,-0.86 -0.744,-1.343 -1.608,-1.435 -0.189,-0.02 -0.378,-0.053 -0.57,-0.085 l -0.354,-0.057 v -0.954 h 9.269 v 0.954 l -0.098,0.017 c -0.049,0.008 -0.096,0.014 -0.14,0.019 -0.077,0.008 -0.144,0.016 -0.197,0.038 -0.172,0.067 -0.36,0.124 -0.54,0.177 -0.41,0.123 -0.834,0.251 -1.06,0.515 -0.376,0.435 -0.644,1.16 -0.669,1.807 -0.073,1.96 -0.082,3.957 -0.089,5.887 -0.003,0.629 -0.006,1.258 -0.011,1.887 0,0.057 0.019,0.121 0.039,0.19 l 0.008,0.029 c 1.881,0.135 3.685,0.116 5.117,-1.367 0.485,-0.504 1.041,-1.096 1.476,-1.747 0.709,-1.063 1.411,-2.157 2.091,-3.214 0.593,-0.925 1.208,-1.881 1.824,-2.814 0.385,-0.581 0.805,-1.131 1.211,-1.662 0.177,-0.23 0.35,-0.455 0.513,-0.676 l 0.036,-0.047 h 5.374 v 0.994 l -0.101,0.015 c -1.704,0.26 -2.708,1.486 -3.514,2.614" /><path
           id="path28"
           style="fill:#203d6c;fill-opacity:1;fill-rule:nonzero;stroke:none"
           d="m 249.083,120.9161 c -1.086,0.048 -1.682,0.569 -1.931,1.693 -0.168,0.751 -0.246,1.362 -0.248,1.92 -0.017,5.039 -0.016,10.162 -0.016,15.116 v 3.65 c 0,0.079 0.007,0.159 0.017,0.265 0.002,0.032 0.005,0.066 0.009,0.103 h 0.146 c 0.165,0.002 0.315,0.001 0.469,-10e-4 0.529,-0.006 1.06,-0.005 1.589,-0.002 1.159,0.005 2.356,0.01 3.523,-0.076 4.42,-0.324 7.379,-2.593 8.796,-6.744 1.281,-3.749 1.181,-7.36 -0.294,-10.731 -1.373,-3.132 -3.865,-4.875 -7.407,-5.178 -1.549,-0.132 -3.147,-0.079 -4.653,-0.015 m 13.537,20.248 c -2.516,2.453 -5.711,3.683 -9.766,3.76 -2.773,0.053 -5.597,0.041 -8.327,0.03 -1.165,-0.005 -2.328,-0.009 -3.492,-0.009 -0.109,0 -0.22,-0.01 -0.335,-0.021 -0.053,-0.005 -0.108,-0.011 -0.165,-0.015 l -0.108,-0.008 v -0.968 l 0.244,-0.037 c 0.088,-0.013 0.164,-0.025 0.24,-0.031 1.296,-0.11 1.891,-0.629 2.121,-1.85 0.137,-0.723 0.157,-1.476 0.159,-2.181 0.012,-4.803 0.008,-9.686 0.005,-14.407 l -0.001,-0.759 c -0.001,-0.481 -0.007,-1.051 -0.053,-1.614 -0.128,-1.576 -0.761,-2.237 -2.334,-2.438 -0.065,-0.008 -0.129,-0.022 -0.201,-0.037 l -0.197,-0.041 v -0.964 l 0.322,-0.018 c 0.127,-0.008 0.235,-0.015 0.344,-0.016 1.028,0 2.053,-10e-4 3.08,-0.003 1.053,-10e-4 2.119,-0.003 3.192,-0.003 1.778,0 3.574,0.005 5.35,0.021 1.052,0.009 2.177,0.109 3.346,0.295 2.934,0.466 5.24,1.568 7.054,3.367 2.049,2.032 3.168,4.661 3.323,7.815 0.2,4.072 -1.079,7.48 -3.801,10.132" /><path
           id="path30"
           style="fill:#203d6c;fill-opacity:1;fill-rule:nonzero;stroke:none"
           d="m 180.4287,125.2218 c -1.66,-3.367 -4.443,-5.101 -8.064,-4.972 -3.553,0.113 -6.176,2.007 -7.798,5.631 -0.812,1.813 -1.201,3.867 -1.227,6.468 0.036,3.06 0.599,5.42 1.772,7.427 1.847,3.159 4.619,4.669 8.241,4.467 3.213,-0.172 5.668,-1.847 7.098,-4.84 2.276,-4.763 2.269,-9.534 -0.022,-14.181 m -7.68,20.4 -0.014,-0.001 c -0.293,-0.032 -0.587,-0.057 -0.882,-0.084 -0.628,-0.054 -1.278,-0.111 -1.907,-0.235 -4.259,-0.839 -7.607,-3.318 -9.428,-6.979 -1.833,-3.688 -1.826,-8.153 0.021,-11.944 2.278,-4.672 6.959,-7.431 12.107,-7.431 1.241,0 2.51,0.161 3.776,0.493 3.396,0.891 6.356,3.203 8.121,6.343 1.764,3.136 2.202,6.861 1.203,10.22 -1.72,5.779 -6.822,9.554 -12.997,9.618" /><path
           id="path32"
           style="fill:#203d6c;fill-opacity:1;fill-rule:nonzero;stroke:none"
           d="m 62.5508,132.047 c -0.047,-2.935 -0.7,-5.384 -1.997,-7.489 -1.765,-2.866 -4.252,-4.318 -7.396,-4.318 -0.097,0 -0.196,0.001 -0.294,0.004 -3.292,0.092 -5.79,1.717 -7.426,4.827 -1.448,2.752 -1.907,5.852 -1.445,9.755 0.218,1.841 0.72,3.426 1.537,4.846 1.752,3.05 4.321,4.592 7.641,4.592 0.273,0 0.55,-0.011 0.832,-0.031 3.218,-0.236 5.641,-2.029 7.199,-5.33 0.879,-1.861 1.295,-3.976 1.349,-6.856 m -9.263,13.508 h -0.034 c -3.833,0 -7.332,-1.386 -9.858,-3.904 -2.426,-2.417 -3.764,-5.711 -3.767,-9.276 -0.009,-7.523 5.918,-13.426 13.492,-13.436 h 0.021 c 7.602,0 13.563,5.874 13.575,13.382 0.012,7.405 -5.886,13.218 -13.429,13.234" /><path
           id="path34"
           style="fill:#203d6c;fill-opacity:1;fill-rule:nonzero;stroke:none"
           d="m 108.5782,120.6817 c -0.224,0.06 -0.435,0.116 -0.639,0.187 -1.18,0.408 -1.978,1.323 -2.542,2.076 -1.927,2.572 -3.87,5.201 -5.748,7.743 l -1.846,2.5 c -0.024,0.032 -0.042,0.073 -0.066,0.126 -0.006,0.011 -0.011,0.021 -0.015,0.032 l 0.41,0.528 c 0.321,0.414 0.642,0.829 0.965,1.24 l 1.494,1.906 c 1.382,1.764 2.809,3.587 4.228,5.369 0.774,0.971 1.828,1.469 3.136,1.479 0.104,10e-4 0.205,0.015 0.311,0.031 0.049,0.008 0.099,0.015 0.153,0.021 l 0.104,0.013 v 0.972 h -8.248 v -0.987 l 0.106,-0.01 c 0.085,-0.01 0.166,-0.018 0.244,-0.026 0.149,-0.013 0.286,-0.026 0.422,-0.049 0.545,-0.092 0.907,-0.297 1.076,-0.607 0.163,-0.301 0.141,-0.698 -0.067,-1.18 -0.212,-0.494 -0.513,-0.993 -0.893,-1.484 -1.063,-1.369 -2.16,-2.747 -3.223,-4.08 l -1.054,-1.325 c -0.07,-0.089 -0.147,-0.172 -0.229,-0.26 l -0.038,-0.042 -0.003,0.003 c -0.043,0.046 -0.076,0.08 -0.103,0.119 l -0.879,1.215 c -1.225,1.695 -2.491,3.447 -3.722,5.18 -0.19,0.268 -0.35,0.603 -0.486,1.027 -0.189,0.579 0.041,1.061 0.614,1.29 0.205,0.082 0.428,0.131 0.664,0.183 0.112,0.025 0.227,0.049 0.343,0.079 l 0.089,0.023 v 0.938 h -9.875 v -1.025 l 0.12,0.003 c 0.031,0.001 0.06,0.001 0.09,0.001 1.402,0 2.366,-0.767 3.374,-1.915 0.328,-0.375 0.668,-0.762 0.964,-1.17 2.083,-2.859 4.16,-5.726 6.235,-8.592 l 0.156,-0.215 c 0.038,-0.052 0.067,-0.115 0.099,-0.181 0.007,-0.013 0.012,-0.027 0.019,-0.039 l -0.013,-0.022 c -0.032,-0.05 -0.057,-0.094 -0.09,-0.134 l -1.635,-2.087 c -1.651,-2.109 -3.303,-4.218 -4.96,-6.321 -1.082,-1.372 -2.213,-2.602 -4.109,-2.602 -0.039,0 -0.079,10e-4 -0.117,0.002 l -0.121,0.003 v -1.026 h 8.258 v 0.965 l -0.091,0.021 c -0.089,0.021 -0.174,0.041 -0.259,0.059 -0.177,0.04 -0.348,0.078 -0.515,0.125 -0.451,0.128 -0.773,0.351 -0.929,0.644 -0.145,0.271 -0.154,0.603 -0.029,0.986 0.184,0.563 0.486,1.153 0.874,1.706 0.504,0.72 1.057,1.426 1.591,2.108 0.215,0.275 0.429,0.55 0.642,0.827 l 2.561,3.324 c 0.005,-0.006 0.01,-0.011 0.014,-0.016 0.047,-0.05 0.08,-0.084 0.106,-0.121 0.367,-0.504 0.734,-1.007 1.101,-1.51 1.056,-1.447 2.148,-2.945 3.198,-4.434 0.276,-0.393 0.505,-0.888 0.68,-1.473 0.158,-0.522 0.124,-0.995 -0.094,-1.368 -0.223,-0.378 -0.629,-0.643 -1.176,-0.764 -0.094,-0.02 -0.186,-0.046 -0.291,-0.076 l -0.268,-0.074 0.043,-0.949 h 10.309 v 0.995 l -0.086,0.024 c -0.114,0.032 -0.227,0.062 -0.334,0.091" /><path
           id="path36"
           style="fill:#203d6c;fill-opacity:1;fill-rule:nonzero;stroke:none"
           d="m 124.8604,143.9073 0.656,-0.05 c 1.078,-0.082 1.67,-0.573 1.919,-1.593 0.125,-0.509 0.191,-1.008 0.196,-1.48 0.022,-1.882 0.021,-3.797 0.019,-5.647 v -0.707 c 0,-1.005 0.004,-2.012 0.008,-3.018 0.009,-2.546 0.018,-5.179 -0.039,-7.765 -0.056,-2.495 -0.837,-2.963 -2.569,-3.068 -0.039,-0.002 -0.066,-0.019 -0.089,-0.033 l -0.097,-0.054 v -0.911 h 9.258 v 0.972 l -0.323,0.049 c -0.158,0.025 -0.302,0.047 -0.446,0.071 -1.108,0.18 -1.63,0.669 -1.858,1.745 -0.082,0.393 -0.123,0.737 -0.126,1.049 -0.022,2.457 -0.029,4.913 -0.036,7.369 l -0.002,0.461 c 0,0.086 0.016,0.176 0.032,0.264 0.003,0.019 0.007,0.036 0.01,0.054 0.007,0.003 0.013,0.006 0.019,0.008 0.022,0.009 0.05,0.019 0.058,0.019 0.616,0 1.233,0.003 1.848,0.006 1.589,0.007 3.232,0.014 4.847,-0.02 0.986,-0.021 1.67,-0.563 1.98,-1.567 0.072,-0.238 0.122,-0.485 0.173,-0.747 0.024,-0.119 0.048,-0.24 0.075,-0.364 l 0.02,-0.093 h 0.9 v 7.281 h -0.913 l -0.024,-0.088 c -0.013,-0.05 -0.025,-0.094 -0.038,-0.137 -0.024,-0.087 -0.046,-0.164 -0.058,-0.241 -0.272,-1.826 -0.977,-2.443 -2.792,-2.446 -1.874,-0.004 -3.743,-0.002 -5.616,0.001 -0.127,0 -0.255,0.011 -0.387,0.021 -0.028,0.003 -0.055,0.005 -0.084,0.007 v 10.098 c 0.004,0.001 0.008,0.003 0.013,0.005 0.022,0.008 0.049,0.018 0.058,0.019 0.673,-0.001 1.345,0.001 2.017,0.002 1.808,0.004 3.677,0.007 5.517,-0.026 1.061,-0.018 1.786,-0.58 2.097,-1.623 0.102,-0.346 0.202,-0.693 0.302,-1.044 l 0.144,-0.499 h 0.79 v 4.71 h -17.519 z" /><path
           id="path38"
           style="fill:#203d6c;fill-opacity:1;fill-rule:nonzero;stroke:none"
           d="m 47.9717,101.3887 c 0.317,0.253 0.477,0.635 0.477,1.147 0,0.426 -0.181,0.788 -0.535,1.076 -0.353,0.289 -0.822,0.433 -1.4,0.433 h -2.54 v -3.046 h 2.482 c 0.687,0 1.191,0.13 1.516,0.39 m -0.382,4.468 c 0.324,0.252 0.49,0.57 0.49,0.952 0,1.032 -0.656,1.552 -1.977,1.552 h -2.129 v -2.887 h 2.288 c 0.556,0 1.003,0.13 1.328,0.383 m -5.334,-6.286 c -0.051,0.035 -0.072,0.122 -0.072,0.245 v 9.728 c 0,0.123 0.021,0.202 0.072,0.246 0.043,0.043 0.13,0.065 0.252,0.065 h 3.667 c 0.354,0 0.7,-0.028 1.032,-0.087 0.332,-0.058 0.664,-0.158 0.996,-0.296 0.325,-0.144 0.614,-0.324 0.859,-0.533 0.238,-0.217 0.432,-0.491 0.585,-0.823 0.151,-0.339 0.223,-0.715 0.223,-1.133 0,-0.932 -0.491,-1.646 -1.465,-2.144 v -0.014 c 0.16,-0.066 0.31,-0.138 0.455,-0.217 0.136,-0.079 0.297,-0.195 0.476,-0.339 0.174,-0.145 0.324,-0.304 0.455,-0.47 0.123,-0.166 0.231,-0.375 0.318,-0.628 0.087,-0.252 0.13,-0.519 0.13,-0.801 0,-0.411 -0.065,-0.787 -0.196,-1.111 -0.136,-0.332 -0.317,-0.606 -0.541,-0.815 -0.223,-0.217 -0.498,-0.398 -0.815,-0.542 -0.325,-0.144 -0.657,-0.245 -1.011,-0.303 -0.353,-0.064 -0.728,-0.094 -1.133,-0.094 h -4.035 c -0.122,0 -0.209,0.022 -0.252,0.066" /><path
           id="path40"
           style="fill:#203d6c;fill-opacity:1;fill-rule:nonzero;stroke:none"
           d="m 62.3086,100.9698 c 0.043,-0.043 0.064,-0.13 0.064,-0.252 v -0.902 c 0,-0.123 -0.021,-0.202 -0.064,-0.245 -0.043,-0.044 -0.123,-0.066 -0.246,-0.066 h -6.063 c -0.123,0 -0.201,0.022 -0.245,0.066 -0.044,0.043 -0.065,0.122 -0.065,0.245 v 9.728 c 0,0.123 0.021,0.202 0.065,0.246 0.044,0.043 0.122,0.065 0.245,0.065 h 1.17 c 0.122,0 0.202,-0.022 0.245,-0.065 0.043,-0.044 0.066,-0.123 0.066,-0.246 v -8.516 h 4.582 c 0.123,0 0.203,-0.022 0.246,-0.058" /><path
           id="path42"
           style="fill:#203d6c;fill-opacity:1;fill-rule:nonzero;stroke:none"
           d="m 68.4532,103.2794 c 0.173,-0.462 0.41,-0.866 0.714,-1.22 0.296,-0.353 0.671,-0.641 1.112,-0.858 0.44,-0.217 0.916,-0.325 1.414,-0.325 0.512,0 0.989,0.108 1.436,0.325 0.441,0.217 0.816,0.505 1.111,0.858 0.297,0.354 0.535,0.766 0.708,1.22 0.166,0.455 0.253,0.917 0.253,1.4 0,0.484 -0.087,0.954 -0.253,1.408 -0.173,0.455 -0.411,0.866 -0.708,1.219 -0.295,0.354 -0.67,0.636 -1.111,0.852 -0.44,0.21 -0.924,0.318 -1.436,0.318 -0.498,0 -0.974,-0.108 -1.414,-0.318 -0.441,-0.216 -0.816,-0.498 -1.112,-0.852 -0.304,-0.353 -0.541,-0.764 -0.714,-1.219 -0.174,-0.454 -0.26,-0.924 -0.26,-1.408 0,-0.476 0.086,-0.945 0.26,-1.4 m -1.639,3.479 c 0.282,0.657 0.657,1.227 1.133,1.71 0.477,0.484 1.039,0.867 1.696,1.148 0.658,0.281 1.335,0.426 2.05,0.426 0.715,0 1.401,-0.145 2.057,-0.426 0.656,-0.281 1.22,-0.664 1.696,-1.148 0.47,-0.483 0.852,-1.053 1.134,-1.71 0.281,-0.664 0.426,-1.357 0.426,-2.079 0,-0.721 -0.145,-1.414 -0.426,-2.078 -0.282,-0.664 -0.664,-1.234 -1.134,-1.711 -0.476,-0.483 -1.04,-0.866 -1.696,-1.147 -0.656,-0.289 -1.342,-0.434 -2.057,-0.434 -0.715,0 -1.392,0.145 -2.05,0.434 -0.657,0.281 -1.219,0.664 -1.696,1.147 -0.476,0.477 -0.851,1.047 -1.133,1.711 -0.281,0.664 -0.425,1.357 -0.425,2.078 0,0.722 0.144,1.415 0.425,2.079" /><path
           id="path44"
           style="fill:#203d6c;fill-opacity:1;fill-rule:nonzero;stroke:none"
           d="m 89.8106,102.0596 c 0.094,0.087 0.173,0.123 0.23,0.116 0.059,-0.008 0.131,-0.058 0.217,-0.144 l 0.679,-0.737 c 0.087,-0.101 0.13,-0.18 0.137,-0.231 0.007,-0.058 -0.036,-0.137 -0.122,-0.231 -0.47,-0.469 -1.055,-0.836 -1.754,-1.111 -0.7,-0.274 -1.408,-0.412 -2.122,-0.412 -0.715,0 -1.394,0.145 -2.05,0.434 -0.656,0.281 -1.22,0.664 -1.696,1.147 -0.476,0.477 -0.852,1.047 -1.133,1.711 -0.282,0.664 -0.427,1.356 -0.427,2.078 0,0.722 0.145,1.415 0.427,2.079 0.281,0.656 0.657,1.227 1.133,1.71 0.476,0.484 1.04,0.866 1.696,1.148 0.656,0.281 1.335,0.425 2.05,0.425 0.714,0 1.422,-0.136 2.122,-0.411 0.699,-0.274 1.284,-0.642 1.754,-1.111 0.079,-0.087 0.122,-0.159 0.115,-0.209 -0.008,-0.059 -0.059,-0.138 -0.145,-0.231 l -0.677,-0.744 c -0.088,-0.093 -0.161,-0.137 -0.217,-0.144 -0.066,-0.007 -0.138,0.029 -0.232,0.115 -0.729,0.779 -1.637,1.17 -2.72,1.17 -0.498,0 -0.975,-0.108 -1.415,-0.318 -0.44,-0.216 -0.816,-0.498 -1.112,-0.852 -0.302,-0.353 -0.541,-0.765 -0.715,-1.22 -0.172,-0.454 -0.259,-0.923 -0.259,-1.407 0,-0.476 0.087,-0.945 0.259,-1.4 0.174,-0.462 0.413,-0.866 0.715,-1.22 0.296,-0.354 0.672,-0.642 1.112,-0.858 0.44,-0.217 0.917,-0.326 1.415,-0.326 1.083,0 1.991,0.398 2.735,1.184" /><path
           id="path46"
           style="fill:#203d6c;fill-opacity:1;fill-rule:nonzero;stroke:none"
           d="m 104.3125,99.505 h -1.486 c -0.102,0 -0.18,0.021 -0.231,0.058 -0.058,0.036 -0.137,0.123 -0.246,0.253 l -4.301,4.626 v -4.626 c 0,-0.124 -0.021,-0.21 -0.065,-0.246 -0.044,-0.044 -0.122,-0.065 -0.245,-0.065 h -1.17 c -0.122,0 -0.201,0.021 -0.245,0.065 -0.043,0.043 -0.066,0.122 -0.066,0.246 v 9.728 c 0,0.123 0.023,0.202 0.066,0.246 0.044,0.043 0.123,0.065 0.245,0.065 h 1.17 c 0.123,0 0.201,-0.022 0.245,-0.065 0.044,-0.044 0.065,-0.123 0.065,-0.246 v -4.229 l 4.092,4.229 c 0.123,0.138 0.217,0.224 0.268,0.26 0.05,0.036 0.129,0.051 0.238,0.051 h 1.479 c 0.252,0 0.296,-0.101 0.13,-0.311 l -4.569,-4.626 4.764,-5.102 c 0.18,-0.21 0.137,-0.311 -0.138,-0.311" /><path
           id="path48"
           style="fill:#203d6c;fill-opacity:1;fill-rule:nonzero;stroke:none"
           d="m 116.294,102.0596 c 0.094,0.087 0.173,0.123 0.231,0.116 0.057,-0.008 0.129,-0.058 0.216,-0.144 l 0.679,-0.737 c 0.086,-0.101 0.13,-0.18 0.137,-0.231 0.008,-0.058 -0.035,-0.137 -0.123,-0.231 -0.469,-0.469 -1.053,-0.836 -1.754,-1.111 -0.699,-0.274 -1.407,-0.412 -2.121,-0.412 -0.715,0 -1.393,0.145 -2.05,0.434 -0.657,0.281 -1.22,0.664 -1.696,1.147 -0.477,0.477 -0.852,1.047 -1.133,1.711 -0.282,0.664 -0.426,1.356 -0.426,2.078 0,0.722 0.144,1.415 0.426,2.079 0.281,0.656 0.656,1.227 1.133,1.71 0.476,0.484 1.039,0.866 1.696,1.148 0.657,0.281 1.335,0.425 2.05,0.425 0.714,0 1.422,-0.136 2.121,-0.411 0.701,-0.274 1.285,-0.642 1.754,-1.111 0.08,-0.087 0.123,-0.159 0.116,-0.209 -0.007,-0.059 -0.058,-0.138 -0.145,-0.231 l -0.678,-0.744 c -0.086,-0.093 -0.159,-0.137 -0.217,-0.144 -0.065,-0.007 -0.137,0.029 -0.231,0.115 -0.728,0.779 -1.638,1.17 -2.72,1.17 -0.498,0 -0.975,-0.108 -1.414,-0.318 -0.442,-0.216 -0.817,-0.498 -1.113,-0.852 -0.303,-0.353 -0.541,-0.765 -0.714,-1.22 -0.173,-0.454 -0.259,-0.923 -0.259,-1.407 0,-0.476 0.086,-0.945 0.259,-1.4 0.173,-0.462 0.411,-0.866 0.714,-1.22 0.296,-0.354 0.671,-0.642 1.113,-0.858 0.439,-0.217 0.916,-0.326 1.414,-0.326 1.082,0 1.992,0.398 2.735,1.184" /><path
           id="path50"
           style="fill:#203d6c;fill-opacity:1;fill-rule:nonzero;stroke:none"
           d="m 129.5909,109.7901 c 0.043,0.043 0.122,0.064 0.245,0.064 h 1.17 c 0.122,0 0.201,-0.021 0.244,-0.064 0.044,-0.044 0.066,-0.123 0.066,-0.246 v -9.729 c 0,-0.123 -0.022,-0.202 -0.066,-0.245 -0.043,-0.044 -0.122,-0.065 -0.244,-0.065 h -1.17 c -0.123,0 -0.202,0.021 -0.245,0.065 -0.044,0.043 -0.065,0.122 -0.065,0.245 v 4.064 h -4.995 v -4.064 c 0,-0.123 -0.021,-0.202 -0.064,-0.245 -0.044,-0.044 -0.123,-0.065 -0.246,-0.065 h -1.169 c -0.123,0 -0.202,0.021 -0.245,0.065 -0.043,0.043 -0.066,0.122 -0.066,0.245 v 9.729 c 0,0.123 0.023,0.202 0.066,0.246 0.043,0.043 0.122,0.064 0.245,0.064 h 1.169 c 0.123,0 0.202,-0.021 0.246,-0.064 0.043,-0.044 0.064,-0.123 0.064,-0.246 v -4.113 h 4.995 v 4.113 c 0,0.123 0.021,0.202 0.065,0.246" /><path
           id="path52"
           style="fill:#203d6c;fill-opacity:1;fill-rule:nonzero;stroke:none"
           d="m 139.6953,103.3663 h 3.457 l -1.711,3.674 h -0.029 z m 7.008,-3.761 c -0.043,-0.064 -0.115,-0.1 -0.209,-0.1 h -1.358 c -0.108,0 -0.195,0.021 -0.245,0.065 -0.057,0.043 -0.116,0.122 -0.173,0.245 l -0.974,2.029 h -4.656 l -0.959,-2.029 c -0.066,-0.123 -0.123,-0.21 -0.174,-0.245 -0.051,-0.044 -0.129,-0.065 -0.239,-0.065 h -1.377 c -0.087,0 -0.152,0.036 -0.189,0.1 -0.043,0.066 -0.043,0.138 -0.006,0.21 l 5.001,9.96 c 0.007,0.015 0.022,0.036 0.029,0.058 0.007,0.021 0.022,0.036 0.029,0.043 0.008,0.008 0.014,0.021 0.021,0.044 0.008,0.013 0.022,0.028 0.03,0.036 0.007,0.007 0.013,0.021 0.021,0.036 l 0.022,0.028 0.021,0.022 c 0.008,0.008 0.022,0.008 0.029,0.014 l 0.022,0.015 h 0.029 0.043 c 0.022,0 0.043,0 0.065,-0.008 0.015,-0.007 0.029,-0.021 0.05,-0.043 0.015,-0.021 0.03,-0.043 0.043,-0.057 0.008,-0.022 0.03,-0.051 0.051,-0.087 0.022,-0.043 0.043,-0.079 0.059,-0.101 l 4.994,-9.96 c 0.036,-0.08 0.036,-0.144 0,-0.21" /><path
           id="path54"
           style="fill:#203d6c;fill-opacity:1;fill-rule:nonzero;stroke:none"
           d="m 151.5811,109.7901 c 0.043,0.043 0.123,0.064 0.245,0.064 h 1.17 c 0.122,0 0.209,-0.021 0.252,-0.064 0.036,-0.044 0.058,-0.123 0.058,-0.246 v -9.729 c 0,-0.123 -0.022,-0.202 -0.065,-0.245 -0.043,-0.044 -0.123,-0.065 -0.245,-0.065 h -1.17 c -0.122,0 -0.202,0.021 -0.245,0.065 -0.043,0.043 -0.064,0.122 -0.064,0.245 v 9.729 c 0,0.123 0.021,0.202 0.064,0.246" /><path
           id="path56"
           style="fill:#203d6c;fill-opacity:1;fill-rule:nonzero;stroke:none"
           d="m 161.0938,99.5704 c -0.044,-0.044 -0.123,-0.065 -0.246,-0.065 h -1.154 c -0.123,0 -0.203,0.021 -0.253,0.072 -0.051,0.043 -0.073,0.123 -0.073,0.238 v 10.097 c 0,0.087 0.044,0.13 0.138,0.13 h 0.115 c 0.079,0 0.16,-0.036 0.239,-0.116 l 6.575,-6.95 v 6.568 c 0,0.123 0.021,0.202 0.064,0.246 0.044,0.043 0.123,0.064 0.246,0.064 h 1.169 c 0.122,0 0.202,-0.021 0.245,-0.064 0.043,-0.044 0.066,-0.123 0.066,-0.246 v -10.097 c 0,-0.094 -0.044,-0.138 -0.13,-0.138 h -0.108 c -0.073,0 -0.16,0.044 -0.253,0.123 l -6.576,7.008 v -6.625 c 0,-0.123 -0.021,-0.202 -0.064,-0.245" /><path
           id="path58"
           style="fill:#203d6c;fill-opacity:1;fill-rule:nonzero;stroke:none"
           d="m 187.1485,108.3468 c -0.273,-0.065 -0.49,-0.152 -0.649,-0.253 -0.159,-0.108 -0.288,-0.231 -0.382,-0.375 -0.102,-0.152 -0.166,-0.296 -0.202,-0.434 -0.037,-0.136 -0.058,-0.289 -0.058,-0.447 0,-0.195 0.043,-0.361 0.13,-0.505 0.086,-0.152 0.194,-0.267 0.332,-0.361 0.13,-0.094 0.309,-0.173 0.548,-0.245 0.238,-0.072 0.469,-0.13 0.693,-0.166 0.224,-0.044 0.505,-0.087 0.852,-0.13 0.396,-0.051 0.757,-0.108 1.068,-0.181 0.31,-0.072 0.62,-0.18 0.945,-0.325 0.325,-0.151 0.592,-0.324 0.801,-0.534 0.21,-0.209 0.376,-0.476 0.513,-0.801 0.137,-0.324 0.202,-0.7 0.202,-1.126 0,-0.411 -0.079,-0.808 -0.245,-1.177 -0.166,-0.367 -0.398,-0.699 -0.708,-0.988 -0.31,-0.296 -0.714,-0.527 -1.205,-0.7 -0.498,-0.173 -1.054,-0.26 -1.667,-0.26 -1.573,0 -2.909,0.375 -4.006,1.126 -0.108,0.065 -0.159,0.13 -0.166,0.195 -0.007,0.065 0.021,0.152 0.079,0.252 l 0.455,0.737 c 0.065,0.108 0.123,0.18 0.173,0.202 0.051,0.021 0.138,-0.007 0.253,-0.072 0.902,-0.578 1.92,-0.867 3.06,-0.867 1.501,0 2.252,0.492 2.252,1.473 0,0.209 -0.044,0.39 -0.123,0.549 -0.079,0.158 -0.187,0.288 -0.325,0.396 -0.137,0.109 -0.324,0.203 -0.562,0.282 -0.239,0.08 -0.477,0.144 -0.722,0.195 -0.253,0.051 -0.556,0.094 -0.917,0.144 -0.36,0.05 -0.686,0.108 -0.981,0.18 -0.296,0.066 -0.599,0.174 -0.917,0.319 -0.318,0.136 -0.584,0.309 -0.801,0.504 -0.217,0.195 -0.397,0.455 -0.534,0.765 -0.137,0.311 -0.209,0.664 -0.209,1.062 0,0.266 0.036,0.547 0.115,0.83 0.079,0.281 0.209,0.562 0.404,0.858 0.195,0.289 0.426,0.549 0.707,0.773 0.281,0.223 0.643,0.411 1.09,0.555 0.447,0.145 0.945,0.217 1.494,0.217 0.715,0 1.335,-0.094 1.877,-0.274 0.541,-0.181 1.126,-0.469 1.761,-0.852 0.094,-0.051 0.144,-0.115 0.151,-0.181 0.008,-0.072 -0.021,-0.159 -0.079,-0.259 l -0.44,-0.722 c -0.065,-0.115 -0.123,-0.188 -0.173,-0.209 -0.058,-0.023 -0.145,-0.008 -0.253,0.058 -0.469,0.31 -0.909,0.534 -1.328,0.67 -0.426,0.137 -0.881,0.203 -1.365,0.203 -0.353,0 -0.67,-0.037 -0.938,-0.101" /><path
           id="path60"
           style="fill:#203d6c;fill-opacity:1;fill-rule:nonzero;stroke:none"
           d="m 198.7549,103.2794 c 0.174,-0.462 0.412,-0.866 0.715,-1.22 0.296,-0.353 0.671,-0.641 1.111,-0.858 0.441,-0.217 0.917,-0.325 1.415,-0.325 0.513,0 0.988,0.108 1.437,0.325 0.439,0.217 0.815,0.505 1.111,0.858 0.296,0.354 0.534,0.766 0.707,1.22 0.166,0.455 0.253,0.917 0.253,1.4 0,0.484 -0.087,0.954 -0.253,1.408 -0.173,0.455 -0.411,0.866 -0.707,1.219 -0.296,0.354 -0.672,0.636 -1.111,0.852 -0.441,0.21 -0.924,0.318 -1.437,0.318 -0.498,0 -0.974,-0.108 -1.415,-0.318 -0.44,-0.216 -0.815,-0.498 -1.111,-0.852 -0.303,-0.353 -0.541,-0.764 -0.715,-1.219 -0.173,-0.454 -0.26,-0.924 -0.26,-1.408 0,-0.476 0.087,-0.945 0.26,-1.4 m -1.638,3.479 c 0.282,0.657 0.657,1.227 1.133,1.71 0.477,0.484 1.039,0.867 1.696,1.148 0.657,0.281 1.335,0.426 2.05,0.426 0.715,0 1.401,-0.145 2.057,-0.426 0.657,-0.281 1.22,-0.664 1.696,-1.148 0.469,-0.483 0.852,-1.053 1.133,-1.71 0.282,-0.664 0.426,-1.357 0.426,-2.079 0,-0.721 -0.144,-1.414 -0.426,-2.078 -0.281,-0.664 -0.664,-1.234 -1.133,-1.711 -0.476,-0.483 -1.039,-0.866 -1.696,-1.147 -0.656,-0.289 -1.342,-0.434 -2.057,-0.434 -0.715,0 -1.393,0.145 -2.05,0.434 -0.657,0.281 -1.219,0.664 -1.696,1.147 -0.476,0.477 -0.851,1.047 -1.133,1.711 -0.281,0.664 -0.425,1.357 -0.425,2.078 0,0.722 0.144,1.415 0.425,2.079" /><path
           id="path62"
           style="fill:#203d6c;fill-opacity:1;fill-rule:nonzero;stroke:none"
           d="m 220.1133,102.0596 c 0.094,0.087 0.173,0.123 0.23,0.116 0.059,-0.008 0.13,-0.058 0.217,-0.144 l 0.679,-0.737 c 0.087,-0.101 0.13,-0.18 0.137,-0.231 0.008,-0.058 -0.036,-0.137 -0.122,-0.231 -0.47,-0.469 -1.054,-0.836 -1.754,-1.111 -0.7,-0.274 -1.408,-0.412 -2.122,-0.412 -0.715,0 -1.394,0.145 -2.05,0.434 -0.657,0.281 -1.22,0.664 -1.696,1.147 -0.477,0.477 -0.852,1.047 -1.133,1.711 -0.282,0.664 -0.426,1.356 -0.426,2.078 0,0.722 0.144,1.415 0.426,2.079 0.281,0.656 0.656,1.227 1.133,1.71 0.476,0.484 1.039,0.866 1.696,1.148 0.656,0.281 1.335,0.425 2.05,0.425 0.714,0 1.422,-0.136 2.122,-0.411 0.7,-0.274 1.284,-0.642 1.754,-1.111 0.079,-0.087 0.122,-0.159 0.115,-0.209 -0.008,-0.059 -0.058,-0.138 -0.145,-0.231 l -0.678,-0.744 c -0.086,-0.093 -0.159,-0.137 -0.216,-0.144 -0.066,-0.007 -0.138,0.029 -0.232,0.115 -0.728,0.779 -1.638,1.17 -2.72,1.17 -0.498,0 -0.975,-0.108 -1.415,-0.318 -0.441,-0.216 -0.816,-0.498 -1.112,-0.852 -0.302,-0.353 -0.541,-0.765 -0.715,-1.22 -0.172,-0.454 -0.259,-0.923 -0.259,-1.407 0,-0.476 0.087,-0.945 0.259,-1.4 0.174,-0.462 0.413,-0.866 0.715,-1.22 0.296,-0.354 0.671,-0.642 1.112,-0.858 0.44,-0.217 0.917,-0.326 1.415,-0.326 1.082,0 1.992,0.398 2.735,1.184" /><path
           id="path64"
           style="fill:#203d6c;fill-opacity:1;fill-rule:nonzero;stroke:none"
           d="m 226.626,109.7901 c 0.043,0.043 0.122,0.064 0.245,0.064 h 1.169 c 0.123,0 0.21,-0.021 0.253,-0.064 0.036,-0.044 0.058,-0.123 0.058,-0.246 v -9.729 c 0,-0.123 -0.022,-0.202 -0.066,-0.245 -0.043,-0.044 -0.122,-0.065 -0.245,-0.065 h -1.169 c -0.123,0 -0.202,0.021 -0.245,0.065 -0.044,0.043 -0.065,0.122 -0.065,0.245 v 9.729 c 0,0.123 0.021,0.202 0.065,0.246" /><path
           id="path66"
           style="fill:#203d6c;fill-opacity:1;fill-rule:nonzero;stroke:none"
           d="m 234.4639,99.5704 c -0.051,0.043 -0.072,0.122 -0.072,0.245 v 9.729 c 0,0.116 0.021,0.195 0.072,0.246 0.051,0.043 0.13,0.064 0.253,0.064 h 6.64 c 0.123,0 0.202,-0.021 0.253,-0.064 0.049,-0.051 0.072,-0.13 0.072,-0.246 v -0.902 c 0,-0.123 -0.023,-0.202 -0.072,-0.253 -0.051,-0.05 -0.13,-0.072 -0.253,-0.072 h -5.175 v -2.844 h 4.951 c 0.122,0 0.209,-0.021 0.252,-0.057 0.036,-0.043 0.058,-0.13 0.058,-0.253 v -0.903 c 0,-0.122 -0.022,-0.202 -0.058,-0.245 -0.043,-0.043 -0.13,-0.064 -0.252,-0.064 h -4.951 v -2.924 h 5.175 c 0.129,0 0.216,-0.021 0.259,-0.058 0.043,-0.043 0.066,-0.129 0.066,-0.252 v -0.902 c 0,-0.123 -0.023,-0.202 -0.066,-0.245 -0.05,-0.044 -0.136,-0.065 -0.259,-0.065 h -6.64 c -0.123,0 -0.21,0.021 -0.253,0.065" /><path
           id="path68"
           style="fill:#203d6c;fill-opacity:1;fill-rule:nonzero;stroke:none"
           d="m 255.0918,109.7901 c 0.036,-0.044 0.058,-0.123 0.058,-0.246 v -0.982 c 0,-0.122 -0.022,-0.209 -0.066,-0.245 -0.043,-0.043 -0.122,-0.065 -0.245,-0.065 h -3.219 v -8.437 c 0,-0.123 -0.021,-0.202 -0.065,-0.245 -0.05,-0.044 -0.137,-0.065 -0.26,-0.065 h -1.154 c -0.123,0 -0.21,0.021 -0.245,0.065 -0.044,0.043 -0.066,0.122 -0.066,0.245 v 8.437 h -3.24 c -0.123,0 -0.21,0.022 -0.246,0.065 -0.043,0.043 -0.065,0.123 -0.065,0.245 v 0.982 c 0,0.123 0.022,0.202 0.065,0.246 0.044,0.043 0.123,0.064 0.246,0.064 h 8.249 c 0.123,0 0.209,-0.021 0.253,-0.064" /><path
           id="path70"
           style="fill:#203d6c;fill-opacity:1;fill-rule:nonzero;stroke:none"
           d="m 259.3555,109.7901 c 0.021,0.043 0.094,0.064 0.209,0.064 h 1.343 c 0.1,0 0.179,-0.021 0.238,-0.064 0.05,-0.044 0.115,-0.123 0.18,-0.246 l 2.75,-4.568 2.764,4.568 c 0.079,0.123 0.137,0.21 0.188,0.253 0.051,0.036 0.123,0.057 0.224,0.057 h 1.313 c 0.115,0 0.187,-0.021 0.209,-0.064 0.022,-0.044 0.008,-0.123 -0.058,-0.246 l -3.789,-6.135 v -3.594 c 0,-0.123 -0.021,-0.202 -0.057,-0.245 -0.043,-0.044 -0.13,-0.065 -0.253,-0.065 h -1.104 c -0.123,0 -0.202,0.021 -0.246,0.065 -0.043,0.043 -0.064,0.122 -0.064,0.245 v 3.594 l -3.789,6.135 c -0.066,0.123 -0.079,0.202 -0.058,0.246" /></g></g></g></svg>